<svg xmlns="http://www.w3.org/2000/svg" viewBox="0 0 16 16"><defs><style>.cls-1{fill:#0f32b5;}.cls-2{fill:#fff;}</style></defs><title>子集——s_1</title><g id="图层_2" data-name="图层 2"><g id="标注"><circle class="cls-1" cx="8" cy="8" r="8"/><path class="cls-2" d="M12.2,3.8C10.85,2.46,8,3.24,5.6,5.6s-3.14,5.25-1.8,6.6a2.45,2.45,0,0,0,1.77.65A7.45,7.45,0,0,0,10.4,10.4C12.76,8.05,13.54,5.15,12.2,3.8Z"/><path class="cls-1" d="M9.66,6.34C9,5.72,7.85,6,6.9,6.9A2.83,2.83,0,0,0,6,8.76,1.17,1.17,0,0,0,7.24,10,2.78,2.78,0,0,0,9.1,9.1a3.18,3.18,0,0,0,.83-1.36A1.43,1.43,0,0,0,9.66,6.34Z"/><circle class="cls-1" cx="11.5" cy="8" r="1"/><path class="cls-2" d="M11.5,7a1,1,0,1,1-1,1,1,1,0,0,1,1-1m0-.6A1.6,1.6,0,1,0,13.1,8a1.6,1.6,0,0,0-1.6-1.6Z"/></g></g></svg>