<svg xmlns="http://www.w3.org/2000/svg" viewBox="0 0 24 24"><defs><style>.cls-1{fill:none;}.cls-2{fill:#3d65c9;}</style></defs><title>父级——d_1</title><g id="图层_2" data-name="图层 2"><g id="标注"><rect class="cls-1" width="24" height="24"/><path class="cls-1" d="M12.9,10.75a2.29,2.29,0,0,0-1.42.73c-.7.71-.86,1.48-.65,1.69s1,.05,1.69-.65.85-1.48.65-1.69A.4.4,0,0,0,12.9,10.75Z"/><path class="cls-1" d="M15.08,12a1.54,1.54,0,0,1,1.54-1.54h.09a2.84,2.84,0,0,0-.28-2.9A2,2,0,0,0,15,7a8.34,8.34,0,0,0-5.22,2.7c-2.4,2.41-3.4,5.47-2.17,6.69s4.28.23,6.69-2.17a11.63,11.63,0,0,0,1.13-1.34A1.54,1.54,0,0,1,15.08,12Zm-1.86,1.22a3.13,3.13,0,0,1-2.11,1,1.41,1.41,0,0,1-1-.38c-.69-.7-.41-2,.66-3.1s2.4-1.35,3.1-.66S14.29,12.15,13.22,13.22Z"/><path class="cls-2" d="M16.92,19.5H5.23a.73.73,0,0,1-.73-.73V7.08a.5.5,0,0,0-1,0V18.77A1.74,1.74,0,0,0,5.23,20.5H16.92a.5.5,0,0,0,0-1Z"/><path class="cls-2" d="M18.77,3.5H7.08a.5.5,0,0,0,0,1H18.77a.73.73,0,0,1,.73.73V16.92a.5.5,0,0,0,1,0V5.23A1.74,1.74,0,0,0,18.77,3.5Z"/><path class="cls-2" d="M10.78,10.78c-1.07,1.07-1.35,2.4-.66,3.1a1.41,1.41,0,0,0,1,.38,3.13,3.13,0,0,0,2.11-1c1.07-1.07,1.35-2.4.66-3.1S11.85,9.71,10.78,10.78Zm1.74,1.74c-.71.7-1.48.85-1.69.65s-.05-1,.65-1.69a2.29,2.29,0,0,1,1.42-.73.4.4,0,0,1,.27.08C13.37,11,13.22,11.81,12.52,12.52Z"/><path class="cls-2" d="M17.63,10.85c.54-1.61.42-3.08-.49-4C15.48,5.2,11.92,6.15,9,9s-3.84,6.44-2.18,8.1A3,3,0,0,0,9.05,18,9.08,9.08,0,0,0,15,15a11.59,11.59,0,0,0,1.27-1.48,1.27,1.27,0,0,0,.39.06,1.54,1.54,0,0,0,1-2.69Zm-3.37,3.41c-2.41,2.4-5.47,3.4-6.69,2.17s-.23-4.28,2.17-6.69A8.34,8.34,0,0,1,15,7a2,2,0,0,1,1.47.53,2.84,2.84,0,0,1,.28,2.9h-.09a1.54,1.54,0,0,0-1.23,2.46A11.63,11.63,0,0,1,14.26,14.26Z"/></g></g></svg>