<svg xmlns="http://www.w3.org/2000/svg" viewBox="0 0 18 18"><defs><style>.cls-1{fill:#3d65c9;}.cls-2{fill:#fff;}</style></defs><title>子集——d_1</title><g id="图层_2" data-name="图层 2"><g id="标注"><circle class="cls-1" cx="9" cy="9" r="9"/><rect class="cls-2" x="4" y="9.67" width="2" height="5" rx="0.5"/><rect class="cls-2" x="8" y="10.67" width="2" height="4" rx="0.5"/><rect class="cls-2" x="12" y="8.07" width="2" height="6.6" rx="0.5"/><path class="cls-2" d="M15,3.33l-4,.1.74,1.21L9.14,6.23,8,4.78a.56.56,0,0,0-.74-.14L3.28,7a.57.57,0,0,0,.29,1.06A.51.51,0,0,0,3.86,8L7.44,5.88l1.1,1.45a.57.57,0,0,0,.75.15l3.06-1.86.74,1.21Z"/></g></g></svg>