<svg xmlns="http://www.w3.org/2000/svg" viewBox="0 0 16 16"><defs><style>.cls-1{fill:none;}.cls-2{fill:#0f32b5;}</style></defs><title>模块_1</title><g id="图层_2" data-name="图层 2"><g id="标注"><rect class="cls-1" width="16" height="16"/><rect class="cls-2" x="2.4" y="8.09" width="2.4" height="7" rx="0.5"/><rect class="cls-2" x="6.8" y="10.09" width="2.4" height="5" rx="0.5"/><rect class="cls-2" x="11.2" y="6.09" width="2.4" height="9" rx="0.5"/><path class="cls-2" d="M14.3.91,10.11,1l.78,1.27L8.15,4,7,2.43a.6.6,0,0,0-.78-.15L2,4.75a.59.59,0,0,0,.3,1.11.54.54,0,0,0,.3-.08l3.76-2.2L7.52,5.11a.59.59,0,0,0,.79.15l3.2-1.95.78,1.28Z"/></g></g></svg>