<svg xmlns="http://www.w3.org/2000/svg" viewBox="0 0 24 24"><defs><style>.cls-1{fill:none;}.cls-2{fill:#0f32b5;}</style></defs><title>父级——s_1</title><g id="图层_2" data-name="图层 2"><g id="标注"><rect class="cls-1" width="24" height="24"/><rect class="cls-1" x="3.27" y="4.5" width="17.46" height="15" rx="0.5"/><path class="cls-2" d="M20.23,3.5H3.77A1.5,1.5,0,0,0,2.27,5V19a1.5,1.5,0,0,0,1.5,1.5H20.23a1.5,1.5,0,0,0,1.5-1.5V5A1.5,1.5,0,0,0,20.23,3.5Zm.5,15.5a.5.5,0,0,1-.5.5H3.77a.5.5,0,0,1-.5-.5V5a.5.5,0,0,1,.5-.5H20.23a.5.5,0,0,1,.5.5Z"/><path class="cls-2" d="M8.4,19.5H6V14.14a.44.44,0,0,1,.48-.38H7.92a.44.44,0,0,1,.48.38Z"/><path class="cls-2" d="M13.2,19.5H10.8V15.1a.44.44,0,0,1,.48-.38h1.44a.44.44,0,0,1,.48.38Z"/><path class="cls-2" d="M18,19.5H15.6V12.23a.44.44,0,0,1,.48-.38h1.44a.44.44,0,0,1,.48.38Z"/><path class="cls-2" d="M18.3,6.73l-4.54.17.89,1.42-2.93,1.84L10.4,8.71a.59.59,0,0,0-.74-.12L5.4,11a.59.59,0,0,0-.23.81A.59.59,0,0,0,6,12L9.83,9.87l1.34,1.47a.59.59,0,0,0,.76.11l3.36-2.12.89,1.42Z"/></g></g></svg>