<?xml version="1.0" standalone="no"?>
<!DOCTYPE svg PUBLIC "-//W3C//DTD SVG 1.1//EN" "http://www.w3.org/Graphics/SVG/1.1/DTD/svg11.dtd" >
<!--
2013-9-30: Created.
-->
<svg>
<metadata>
Created by iconfont
</metadata>
<defs>

<font id="iconfont" horiz-adv-x="1024" >
  <font-face
    font-family="iconfont"
    font-weight="500"
    font-stretch="normal"
    units-per-em="1024"
    ascent="896"
    descent="-128"
  />
    <missing-glyph />
    
    <glyph glyph-name="c_chexiao" unicode="&#58913;" d="M587.337143 535.771429h-157.622857V633.782857a12.068571 12.068571 0 0 1-17.92 10.24L201.142857 522.24a11.702857 11.702857 0 0 1 0-20.48l210.651429-121.782857a12.068571 12.068571 0 0 1 17.92 10.24v98.011428h157.622857c107.154286 0 193.828571-71.314286 193.828571-159.085714s-86.674286-159.085714-193.828571-159.085714H274.651429a23.771429 23.771429 0 0 1 0-47.542857h312.685714c133.12 0 241.371429 92.525714 241.371428 206.628571s-108.251429 206.628571-241.371428 206.628572z"  horiz-adv-x="1024" />

    
    <glyph glyph-name="c_fabu" unicode="&#58914;" d="M828.342857 645.851429v2.194285a23.405714 23.405714 0 0 1-5.485714 9.142857h-1.828572a23.405714 23.405714 0 0 1-8.777142 3.657143h-2.925715a23.771429 23.771429 0 0 1-11.337143 0L207.725714 372.662857a24.868571 24.868571 0 0 1-13.165714-20.845714 23.771429 23.771429 0 0 1 11.702857-21.211429l106.057143-61.074285a23.405714 23.405714 0 0 1 32.182857 8.777142 23.771429 23.771429 0 0 1-8.411428 32.548572l-67.291429 38.765714 427.885714 210.285714-292.571428-309.028571a24.502857 24.502857 0 0 1-6.582857-16.457143V54.857143a23.771429 23.771429 0 1 1 47.542857 0v170.057143l316.342857 332.8L652.068571 128l-99.84 57.782857a23.771429 23.771429 0 1 1-23.771428-40.96l126.902857-73.142857a22.308571 22.308571 0 0 1 11.702857-2.925714 21.211429 21.211429 0 0 1 9.508572 1.828571 24.502857 24.502857 0 0 1 13.897142 16.091429l138.24 548.571428a29.988571 29.988571 0 0 1-0.365714 10.605715z"  horiz-adv-x="1024" />

    
    <glyph glyph-name="c_baocun" unicode="&#58915;" d="M713.142857 700.342857h-402.285714A96.914286 96.914286 0 0 1 213.942857 603.428571v-438.857142a96.914286 96.914286 0 0 1 96.914286-96.914286h402.285714A96.914286 96.914286 0 0 1 810.057143 164.571429V603.428571a96.914286 96.914286 0 0 1-96.914286 96.914286z m-261.485714-47.542857V566.857143a23.771429 23.771429 0 0 1 47.542857 0V652.8h117.028571V493.714286a12.8 12.8 0 0 0-12.8-12.8h-182.857142a12.8 12.8 0 0 0-12.8 12.8V652.8z m-80.457143-537.6V274.285714a12.8 12.8 0 0 0 12.8 12.8h256a12.8 12.8 0 0 0 12.8-12.8v-159.085714zM762.514286 164.571429a49.737143 49.737143 0 0 0-49.371429-49.371429h-12.8V274.285714a60.342857 60.342857 0 0 1-60.342857 60.342857h-256A60.342857 60.342857 0 0 1 323.657143 274.285714v-159.085714H310.857143A49.737143 49.737143 0 0 0 261.485714 164.571429V603.428571A49.737143 49.737143 0 0 0 310.857143 652.8h49.371428V493.714286a60.342857 60.342857 0 0 1 60.342858-60.342857h182.857142A60.342857 60.342857 0 0 1 663.771429 493.714286V652.8h49.371428A49.737143 49.737143 0 0 0 762.514286 603.428571z"  horiz-adv-x="1024" />

    
    <glyph glyph-name="d_fabu" unicode="&#58916;" d="M828.342857 645.851429v2.194285a23.405714 23.405714 0 0 1-5.485714 9.142857h-1.828572a23.405714 23.405714 0 0 1-8.777142 3.657143h-2.925715a23.771429 23.771429 0 0 1-11.337143 0L207.725714 372.662857a24.868571 24.868571 0 0 1-13.165714-20.845714 23.771429 23.771429 0 0 1 11.702857-21.211429l106.057143-61.074285a23.405714 23.405714 0 0 1 32.182857 8.777142 23.771429 23.771429 0 0 1-8.411428 32.548572l-67.291429 38.765714 427.885714 210.285714-292.571428-309.028571a24.502857 24.502857 0 0 1-6.582857-16.457143V54.857143a23.771429 23.771429 0 1 1 47.542857 0v170.057143l316.342857 332.8L652.068571 128l-99.84 57.782857a23.771429 23.771429 0 1 1-23.771428-40.96l126.902857-73.142857a22.308571 22.308571 0 0 1 11.702857-2.925714 21.211429 21.211429 0 0 1 9.508572 1.828571 24.502857 24.502857 0 0 1 13.897142 16.091429l138.24 548.571428a29.988571 29.988571 0 0 1-0.365714 10.605715z"  horiz-adv-x="1024" />

    
    <glyph glyph-name="h_fabu" unicode="&#58917;" d="M828.342857 645.851429v2.194285a23.405714 23.405714 0 0 1-5.485714 9.142857h-1.828572a23.405714 23.405714 0 0 1-8.777142 3.657143h-2.925715a23.771429 23.771429 0 0 1-11.337143 0L207.725714 372.662857a24.868571 24.868571 0 0 1-13.165714-20.845714 23.771429 23.771429 0 0 1 11.702857-21.211429l106.057143-61.074285a23.405714 23.405714 0 0 1 32.182857 8.777142 23.771429 23.771429 0 0 1-8.411428 32.548572l-67.291429 38.765714 427.885714 210.285714-292.571428-309.028571a24.502857 24.502857 0 0 1-6.582857-16.457143V54.857143a23.771429 23.771429 0 1 1 47.542857 0v170.057143l316.342857 332.8L652.068571 128l-99.84 57.782857a23.771429 23.771429 0 1 1-23.771428-40.96l126.902857-73.142857a22.308571 22.308571 0 0 1 11.702857-2.925714 21.211429 21.211429 0 0 1 9.508572 1.828571 24.502857 24.502857 0 0 1 13.897142 16.091429l138.24 548.571428a29.988571 29.988571 0 0 1-0.365714 10.605715z"  horiz-adv-x="1024" />

    
    <glyph glyph-name="dc_jianyishanchu" unicode="&#58918;" d="M971.487179 725.333333h-262.564102V797.538462A98.461538 98.461538 0 0 1 610.461538 896H413.538462a98.461538 98.461538 0 0 1-98.461539-98.461538v-72.205129h-262.564102a32.820513 32.820513 0 0 1 0-65.641025H150.974359v-623.589744a164.102564 164.102564 0 0 1 164.102564-164.102564h393.846154a164.102564 164.102564 0 0 1 164.102564 164.102564V659.692308h98.461538a32.820513 32.820513 0 0 1 0 65.641025z m-590.76923 72.205129A32.820513 32.820513 0 0 0 413.538462 830.358974h196.923076a32.820513 32.820513 0 0 0 32.820513-32.820512v-72.205129h-262.564102zM807.384615 36.102564a98.461538 98.461538 0 0 0-98.461538-98.461538h-393.846154A98.461538 98.461538 0 0 0 216.615385 36.102564V659.692308h590.76923zM347.897436 548.102564a32.820513 32.820513 0 0 1-32.820513-32.820513v-433.230769a32.820513 32.820513 0 0 1 65.641026 0V515.282051a32.820513 32.820513 0 0 1-32.820513 32.820513zM512 548.102564a32.820513 32.820513 0 0 1-32.820513-32.820513v-433.230769a32.820513 32.820513 0 0 1 65.641026 0V515.282051a32.820513 32.820513 0 0 1-32.820513 32.820513zM676.102564 548.102564a32.820513 32.820513 0 0 1-32.820513-32.820513v-433.230769a32.820513 32.820513 0 0 1 65.641026 0V515.282051a32.820513 32.820513 0 0 1-32.820513 32.820513z"  horiz-adv-x="1024" />

    
    <glyph glyph-name="d_baocun" unicode="&#58919;" d="M713.142857 700.342857h-402.285714A96.914286 96.914286 0 0 1 213.942857 603.428571v-438.857142a96.914286 96.914286 0 0 1 96.914286-96.914286h402.285714A96.914286 96.914286 0 0 1 810.057143 164.571429V603.428571a96.914286 96.914286 0 0 1-96.914286 96.914286z m-261.485714-47.542857V566.857143a23.771429 23.771429 0 0 1 47.542857 0V652.8h117.028571V493.714286a12.8 12.8 0 0 0-12.8-12.8h-182.857142a12.8 12.8 0 0 0-12.8 12.8V652.8z m-80.457143-537.6V274.285714a12.8 12.8 0 0 0 12.8 12.8h256a12.8 12.8 0 0 0 12.8-12.8v-159.085714zM762.514286 164.571429a49.737143 49.737143 0 0 0-49.371429-49.371429h-12.8V274.285714a60.342857 60.342857 0 0 1-60.342857 60.342857h-256A60.342857 60.342857 0 0 1 323.657143 274.285714v-159.085714H310.857143A49.737143 49.737143 0 0 0 261.485714 164.571429V603.428571A49.737143 49.737143 0 0 0 310.857143 652.8h49.371428V493.714286a60.342857 60.342857 0 0 1 60.342858-60.342857h182.857142A60.342857 60.342857 0 0 1 663.771429 493.714286V652.8h49.371428A49.737143 49.737143 0 0 0 762.514286 603.428571z"  horiz-adv-x="1024" />

    
    <glyph glyph-name="h_chexiao" unicode="&#58920;" d="M587.337143 535.771429h-157.622857V633.782857a12.068571 12.068571 0 0 1-17.92 10.24L201.142857 522.24a11.702857 11.702857 0 0 1 0-20.48l210.651429-121.782857a12.068571 12.068571 0 0 1 17.92 10.24v98.011428h157.622857c107.154286 0 193.828571-71.314286 193.828571-159.085714s-86.674286-159.085714-193.828571-159.085714H274.651429a23.771429 23.771429 0 0 1 0-47.542857h312.685714c133.12 0 241.371429 92.525714 241.371428 206.628571s-108.251429 206.628571-241.371428 206.628572z"  horiz-adv-x="1024" />

    
    <glyph glyph-name="h_jianyishanchu" unicode="&#58921;" d="M971.487179 725.333333h-262.564102V797.538462A98.461538 98.461538 0 0 1 610.461538 896H413.538462a98.461538 98.461538 0 0 1-98.461539-98.461538v-72.205129h-262.564102a32.820513 32.820513 0 0 1 0-65.641025H150.974359v-623.589744a164.102564 164.102564 0 0 1 164.102564-164.102564h393.846154a164.102564 164.102564 0 0 1 164.102564 164.102564V659.692308h98.461538a32.820513 32.820513 0 0 1 0 65.641025z m-590.76923 72.205129A32.820513 32.820513 0 0 0 413.538462 830.358974h196.923076a32.820513 32.820513 0 0 0 32.820513-32.820512v-72.205129h-262.564102zM807.384615 36.102564a98.461538 98.461538 0 0 0-98.461538-98.461538h-393.846154A98.461538 98.461538 0 0 0 216.615385 36.102564V659.692308h590.76923zM347.897436 548.102564a32.820513 32.820513 0 0 1-32.820513-32.820513v-433.230769a32.820513 32.820513 0 0 1 65.641026 0V515.282051a32.820513 32.820513 0 0 1-32.820513 32.820513zM512 548.102564a32.820513 32.820513 0 0 1-32.820513-32.820513v-433.230769a32.820513 32.820513 0 0 1 65.641026 0V515.282051a32.820513 32.820513 0 0 1-32.820513 32.820513zM676.102564 548.102564a32.820513 32.820513 0 0 1-32.820513-32.820513v-433.230769a32.820513 32.820513 0 0 1 65.641026 0V515.282051a32.820513 32.820513 0 0 1-32.820513 32.820513z"  horiz-adv-x="1024" />

    
    <glyph glyph-name="d_chexiao" unicode="&#58922;" d="M587.337143 535.771429h-157.622857V633.782857a12.068571 12.068571 0 0 1-17.92 10.24L201.142857 522.24a11.702857 11.702857 0 0 1 0-20.48l210.651429-121.782857a12.068571 12.068571 0 0 1 17.92 10.24v98.011428h157.622857c107.154286 0 193.828571-71.314286 193.828571-159.085714s-86.674286-159.085714-193.828571-159.085714H274.651429a23.771429 23.771429 0 0 1 0-47.542857h312.685714c133.12 0 241.371429 92.525714 241.371428 206.628571s-108.251429 206.628571-241.371428 206.628572z"  horiz-adv-x="1024" />

    
    <glyph glyph-name="h_baocun" unicode="&#58923;" d="M713.142857 700.342857h-402.285714A96.914286 96.914286 0 0 1 213.942857 603.428571v-438.857142a96.914286 96.914286 0 0 1 96.914286-96.914286h402.285714A96.914286 96.914286 0 0 1 810.057143 164.571429V603.428571a96.914286 96.914286 0 0 1-96.914286 96.914286z m-261.485714-47.542857V566.857143a23.771429 23.771429 0 0 1 47.542857 0V652.8h117.028571V493.714286a12.8 12.8 0 0 0-12.8-12.8h-182.857142a12.8 12.8 0 0 0-12.8 12.8V652.8z m-80.457143-537.6V274.285714a12.8 12.8 0 0 0 12.8 12.8h256a12.8 12.8 0 0 0 12.8-12.8v-159.085714zM762.514286 164.571429a49.737143 49.737143 0 0 0-49.371429-49.371429h-12.8V274.285714a60.342857 60.342857 0 0 1-60.342857 60.342857h-256A60.342857 60.342857 0 0 1 323.657143 274.285714v-159.085714H310.857143A49.737143 49.737143 0 0 0 261.485714 164.571429V603.428571A49.737143 49.737143 0 0 0 310.857143 652.8h49.371428V493.714286a60.342857 60.342857 0 0 1 60.342858-60.342857h182.857142A60.342857 60.342857 0 0 1 663.771429 493.714286V652.8h49.371428A49.737143 49.737143 0 0 0 762.514286 603.428571z"  horiz-adv-x="1024" />

    
    <glyph glyph-name="h_shanchu" unicode="&#58924;" d="M971.487179 725.333333h-262.564102V797.538462A98.461538 98.461538 0 0 1 610.461538 896H413.538462a98.461538 98.461538 0 0 1-98.461539-98.461538v-72.205129h-262.564102a32.820513 32.820513 0 0 1 0-65.641025H150.974359v-623.589744a164.102564 164.102564 0 0 1 164.102564-164.102564h393.846154a164.102564 164.102564 0 0 1 164.102564 164.102564V659.692308h98.461538a32.820513 32.820513 0 0 1 0 65.641025z m-590.76923 72.205129A32.820513 32.820513 0 0 0 413.538462 830.358974h196.923076a32.820513 32.820513 0 0 0 32.820513-32.820512v-72.205129h-262.564102zM807.384615 36.102564a98.461538 98.461538 0 0 0-98.461538-98.461538h-393.846154A98.461538 98.461538 0 0 0 216.615385 36.102564V659.692308h590.76923zM347.897436 548.102564a32.820513 32.820513 0 0 1-32.820513-32.820513v-433.230769a32.820513 32.820513 0 0 1 65.641026 0V515.282051a32.820513 32.820513 0 0 1-32.820513 32.820513zM512 548.102564a32.820513 32.820513 0 0 1-32.820513-32.820513v-433.230769a32.820513 32.820513 0 0 1 65.641026 0V515.282051a32.820513 32.820513 0 0 1-32.820513 32.820513zM676.102564 548.102564a32.820513 32.820513 0 0 1-32.820513-32.820513v-433.230769a32.820513 32.820513 0 0 1 65.641026 0V515.282051a32.820513 32.820513 0 0 1-32.820513 32.820513z"  horiz-adv-x="1024" />

    
    <glyph glyph-name="dc_shanchu" unicode="&#58925;" d="M971.487179 725.333333h-262.564102V797.538462A98.461538 98.461538 0 0 1 610.461538 896H413.538462a98.461538 98.461538 0 0 1-98.461539-98.461538v-72.205129h-262.564102a32.820513 32.820513 0 0 1 0-65.641025H150.974359v-623.589744a164.102564 164.102564 0 0 1 164.102564-164.102564h393.846154a164.102564 164.102564 0 0 1 164.102564 164.102564V659.692308h98.461538a32.820513 32.820513 0 0 1 0 65.641025z m-590.76923 72.205129A32.820513 32.820513 0 0 0 413.538462 830.358974h196.923076a32.820513 32.820513 0 0 0 32.820513-32.820512v-72.205129h-262.564102zM807.384615 36.102564a98.461538 98.461538 0 0 0-98.461538-98.461538h-393.846154A98.461538 98.461538 0 0 0 216.615385 36.102564V659.692308h590.76923zM347.897436 548.102564a32.820513 32.820513 0 0 1-32.820513-32.820513v-433.230769a32.820513 32.820513 0 0 1 65.641026 0V515.282051a32.820513 32.820513 0 0 1-32.820513 32.820513zM512 548.102564a32.820513 32.820513 0 0 1-32.820513-32.820513v-433.230769a32.820513 32.820513 0 0 1 65.641026 0V515.282051a32.820513 32.820513 0 0 1-32.820513 32.820513zM676.102564 548.102564a32.820513 32.820513 0 0 1-32.820513-32.820513v-433.230769a32.820513 32.820513 0 0 1 65.641026 0V515.282051a32.820513 32.820513 0 0 1-32.820513 32.820513z"  horiz-adv-x="1024" />

    
    <glyph glyph-name="zijid_1" unicode="&#58926;" d="M512 384m-512 0a512 512 0 1 1 1024 0 512 512 0 1 1-1024 0ZM192 704m64 0l512 0q64 0 64-64l0-512q0-64-64-64l-512 0q-64 0-64 64l0 512q0 64 64 64ZM672 172.8h-320a22.4 22.4 0 1 1 0-44.8h320a22.4 22.4 0 1 1 0 44.8zM352 211.2h320a22.4 22.4 0 1 1 0 44.8h-320a22.4 22.4 0 1 1 0-44.8zM494.08 320a23.04 23.04 0 0 1 32 0l158.08 158.72a22.4 22.4 0 0 1 0 32 23.04 23.04 0 0 1-31.36 0L512 368.64 435.2 442.88a22.4 22.4 0 0 1-31.36-31.36z"  horiz-adv-x="1024" />

    
    <glyph glyph-name="fujid_1" unicode="&#58927;" d="M863.146667 746.666667H160.853333A64 64 0 0 1 96.853333 682.666667v-597.333334a64 64 0 0 1 64-64h702.293334a64 64 0 0 1 64 64V682.666667a64 64 0 0 1-64 64z m21.333333-661.333334a21.333333 21.333333 0 0 0-21.333333-21.333333H160.853333a21.333333 21.333333 0 0 0-21.333333 21.333333V682.666667a21.333333 21.333333 0 0 0 21.333333 21.333333h702.293334a21.333333 21.333333 0 0 0 21.333333-21.333333zM721.92 170.666667H302.08a21.333333 21.333333 0 0 1-21.333333-21.333334 21.333333 21.333333 0 0 1 21.333333-21.333333h419.84a21.333333 21.333333 0 0 1 21.333333 21.333333 21.333333 21.333333 0 0 1-21.333333 21.333334zM721.92 273.92H302.08a21.333333 21.333333 0 0 1-21.333333-21.333333 21.333333 21.333333 0 0 1 21.333333-21.333334h419.84a21.333333 21.333333 0 0 1 21.333333 21.333334 21.333333 21.333333 0 0 1-21.333333 21.333333zM489.386667 341.333333a21.333333 21.333333 0 0 1 14.933333-6.4 21.76 21.76 0 0 1 15.36 6.4l157.44 157.44a21.333333 21.333333 0 0 1-30.293333 30.293334l-142.506667-142.506667-74.666667 75.093333a21.333333 21.333333 0 1 1-30.293333-30.293333z"  horiz-adv-x="1024" />

    
    <glyph glyph-name="mokuai_1" unicode="&#58928;" d="M672 128h-320a32 32 0 0 1 0-64h320a32 32 0 0 1 0 64zM672 256h-320a32 32 0 0 1 0-64h320a32 32 0 0 1 0 64zM487.68 314.24a30.72 30.72 0 0 1 44.8 0l158.72 158.08a32.64 32.64 0 0 1 0 45.44 32 32 0 0 1-45.44 0L512 384 442.24 448a32 32 0 0 1-45.44 0 32.64 32.64 0 0 1 0-45.44zM832 832h-128V864a32 32 0 0 1-64 0V832H384V864a32 32 0 0 1-64 0V832H192a96 96 0 0 1-96-96v-768A96 96 0 0 1 192-128h640a96 96 0 0 1 96 96v768A96 96 0 0 1 832 832z m32-864a32 32 0 0 0-32-32H192a32 32 0 0 0-32 32v768A32 32 0 0 0 192 768h128v-32a32 32 0 0 1 64 0V768h256v-32a32 32 0 0 1 64 0V768h128a32 32 0 0 0 32-32z"  horiz-adv-x="1024" />

    
    <glyph glyph-name="zijis_1" unicode="&#58929;" d="M512 384m-512 0a512 512 0 1 1 1024 0 512 512 0 1 1-1024 0ZM192 704m64 0l512 0q64 0 64-64l0-512q0-64-64-64l-512 0q-64 0-64 64l0 512q0 64 64 64ZM672 128h-320a22.4 22.4 0 1 0 0 44.8h320a22.4 22.4 0 1 0 0-44.8zM672 211.2h-320a22.4 22.4 0 1 0 0 44.8h320a22.4 22.4 0 1 0 0-44.8zM512 314.24A23.04 23.04 0 0 0 494.08 320L403.84 411.52a22.4 22.4 0 0 0 31.36 31.36L512 368.64 652.8 512a22.4 22.4 0 1 0 31.36-31.36L526.08 320a23.04 23.04 0 0 0-14.08-5.76z"  horiz-adv-x="1024" />

    
    <glyph glyph-name="fujis_1" unicode="&#58930;" d="M863.146667 746.666667H160.853333A64 64 0 0 1 96.853333 682.666667v-597.333334a64 64 0 0 1 64-64h702.293334a64 64 0 0 1 64 64V682.666667a64 64 0 0 1-64 64z m21.333333-661.333334a21.333333 21.333333 0 0 0-21.333333-21.333333H160.853333a21.333333 21.333333 0 0 0-21.333333 21.333333V682.666667a21.333333 21.333333 0 0 0 21.333333 21.333333h702.293334a21.333333 21.333333 0 0 0 21.333333-21.333333zM721.92 170.666667H302.08a21.333333 21.333333 0 0 1-21.333333-21.333334 21.333333 21.333333 0 0 1 21.333333-21.333333h419.84a21.333333 21.333333 0 0 1 21.333333 21.333333 21.333333 21.333333 0 0 1-21.333333 21.333334zM721.92 273.92H302.08a21.333333 21.333333 0 0 1-21.333333-21.333333 21.333333 21.333333 0 0 1 21.333333-21.333334h419.84a21.333333 21.333333 0 0 1 21.333333 21.333334 21.333333 21.333333 0 0 1-21.333333 21.333333zM489.386667 341.333333a21.333333 21.333333 0 0 1 14.933333-6.4 21.76 21.76 0 0 1 15.36 6.4l157.44 157.44a21.333333 21.333333 0 0 1-30.293333 30.293334l-142.506667-142.506667-74.666667 75.093333a21.333333 21.333333 0 1 1-30.293333-30.293333z"  horiz-adv-x="1024" />

    
    <glyph glyph-name="zijid_11" unicode="&#58931;" d="M512 384m-512 0a512 512 0 1 1 1024 0 512 512 0 1 1-1024 0ZM192 640m64 0l512 0q64 0 64-64l0-448q0-64-64-64l-512 0q-64 0-64 64l0 448q0 64 64 64ZM736 192h-448a22.4 22.4 0 1 1 0-44.8h448a22.4 22.4 0 1 1 0 44.8zM480.64 266.24h5.76a22.4 22.4 0 0 1 21.76 16.64l51.2 192a22.4 22.4 0 0 1-16 27.52 23.04 23.04 0 0 1-27.52-16l-51.2-192a22.4 22.4 0 0 1 16-28.16zM277.12 364.16l128-71.68a21.76 21.76 0 0 1 10.88-3.2 24.32 24.32 0 0 1 19.84 11.52 23.04 23.04 0 0 1-8.96 30.72L333.44 384l93.44 52.48a23.04 23.04 0 0 1 8.96 30.72 23.68 23.68 0 0 1-30.72 8.32l-128-71.68a23.04 23.04 0 0 1 0-39.68zM588.16 300.8a24.32 24.32 0 0 1 19.84-11.52 21.76 21.76 0 0 1 10.88 3.2l128 71.68a23.68 23.68 0 0 1 11.52 19.84 21.76 21.76 0 0 1-11.52 19.2l-128 72.32a23.68 23.68 0 0 1-30.72-8.32 23.04 23.04 0 0 1 8.96-30.72l93.44-52.48-93.44-52.48a23.04 23.04 0 0 1-8.96-30.72z"  horiz-adv-x="1024" />

    
    <glyph glyph-name="zijis_11" unicode="&#58932;" d="M512 384m-512 0a512 512 0 1 1 1024 0 512 512 0 1 1-1024 0ZM192 640m64 0l512 0q64 0 64-64l0-448q0-64-64-64l-512 0q-64 0-64 64l0 448q0 64 64 64ZM736 147.2h-448a22.4 22.4 0 1 0 0 44.8h448a22.4 22.4 0 1 0 0-44.8zM486.4 265.6h-5.76a22.4 22.4 0 0 0-16 27.52l51.2 192a22.4 22.4 0 1 0 43.52-11.52l-51.2-192a22.4 22.4 0 0 0-21.76-16zM416 289.92a21.12 21.12 0 0 0-10.88 0l-128 72.32a21.76 21.76 0 0 0 0 38.4l128 72.32a22.4 22.4 0 0 0 30.72-8.32 23.04 23.04 0 0 0-8.96-30.72L333.44 384l93.44-52.48a23.04 23.04 0 0 0 8.96-30.72 23.68 23.68 0 0 0-19.84-10.88zM608 289.28a24.32 24.32 0 0 0-19.84 11.52 23.04 23.04 0 0 0 8.96 30.72L690.56 384l-93.44 52.48a22.4 22.4 0 1 0 21.76 39.04l128-72.32a22.4 22.4 0 0 0 11.52-19.2 23.68 23.68 0 0 0-11.52-19.84l-128-71.68a21.76 21.76 0 0 0-10.88-3.2z"  horiz-adv-x="1024" />

    
    <glyph glyph-name="mokuai_11" unicode="&#58933;" d="M359.04 267.52a37.76 37.76 0 0 0-14.08 3.2l-192 96a32.64 32.64 0 0 0 0 57.6l192 96a32 32 0 0 0 42.88-14.72 31.36 31.36 0 0 0-14.08-42.88L238.72 395.52l135.04-64a32 32 0 0 0-14.72-64zM664.96 256a32 32 0 0 0-14.72 60.8L785.28 384l-135.04 64a31.36 31.36 0 0 0-14.08 42.88 32 32 0 0 0 42.88 14.72l192-96a32 32 0 0 0 0-57.6l-192-96a37.76 37.76 0 0 0-14.08 0zM469.12 192H460.8a31.36 31.36 0 0 0-22.4 39.04l85.76 320a32 32 0 0 0 64-16.64l-85.76-320a32 32 0 0 0-33.28-22.4zM857.6-32H166.4a134.4 134.4 0 0 0-134.4 134.4V665.6a134.4 134.4 0 0 0 134.4 134.4h691.2a134.4 134.4 0 0 0 134.4-134.4v-563.2a134.4 134.4 0 0 0-134.4-134.4zM166.4 736a70.4 70.4 0 0 1-70.4-70.4v-563.2a70.4 70.4 0 0 1 70.4-70.4h691.2a70.4 70.4 0 0 1 70.4 70.4V665.6a70.4 70.4 0 0 1-70.4 70.4z"  horiz-adv-x="1024" />

    
    <glyph glyph-name="fujid_11" unicode="&#58934;" d="M863.146667 746.666667H160.853333A64 64 0 0 1 96.853333 682.666667v-597.333334a64 64 0 0 1 64-64h702.293334a64 64 0 0 1 64 64V682.666667a64 64 0 0 1-64 64z m21.333333-661.333334a21.333333 21.333333 0 0 0-21.333333-21.333333H160.853333a21.333333 21.333333 0 0 0-21.333333 21.333333V682.666667a21.333333 21.333333 0 0 0 21.333333 21.333333h702.293334a21.333333 21.333333 0 0 0 21.333333-21.333333zM800.853333 170.666667H223.146667a21.333333 21.333333 0 0 1-21.333334-21.333334 21.333333 21.333333 0 0 1 21.333334-21.333333h577.706666a21.333333 21.333333 0 0 1 21.333334 21.333333 21.333333 21.333333 0 0 1-21.333334 21.333334zM479.146667 261.973333h5.546666a21.76 21.76 0 0 1 20.906667 15.786667l54.186667 203.093333a21.333333 21.333333 0 0 1-14.933334 26.026667 22.186667 22.186667 0 0 1-26.453333-14.933333l-54.186667-203.093334a21.333333 21.333333 0 0 1 14.933334-26.88zM399.786667 286.72a25.173333 25.173333 0 0 1 10.666666-2.986667 21.333333 21.333333 0 0 1 18.346667 10.666667 21.76 21.76 0 0 1-7.68 29.44L316.586667 384l104.533333 60.16a21.76 21.76 0 0 1 7.68 29.44 20.906667 20.906667 0 0 1-29.013333 7.68l-136.533334-78.933333a20.906667 20.906667 0 0 1 0-36.693334zM597.333333 294.4a21.333333 21.333333 0 0 1 18.346667-10.666667 25.173333 25.173333 0 0 1 10.666667 2.986667l136.533333 78.933333a20.906667 20.906667 0 0 1 0 36.693334l-136.533333 78.933333a20.906667 20.906667 0 0 1-29.013334-7.68 21.76 21.76 0 0 1 7.68-29.44l102.4-60.16-104.533333-60.16a21.76 21.76 0 0 1-5.546667-29.44z"  horiz-adv-x="1024" />

    
    <glyph glyph-name="fujis_11" unicode="&#58935;" d="M863.146667 746.666667H160.853333A64 64 0 0 1 96.853333 682.666667v-597.333334a64 64 0 0 1 64-64h702.293334a64 64 0 0 1 64 64V682.666667a64 64 0 0 1-64 64z m21.333333-661.333334a21.333333 21.333333 0 0 0-21.333333-21.333333H160.853333a21.333333 21.333333 0 0 0-21.333333 21.333333V682.666667a21.333333 21.333333 0 0 0 21.333333 21.333333h702.293334a21.333333 21.333333 0 0 0 21.333333-21.333333zM800.853333 170.666667H223.146667a21.333333 21.333333 0 0 1-21.333334-21.333334 21.333333 21.333333 0 0 1 21.333334-21.333333h577.706666a21.333333 21.333333 0 0 1 21.333334 21.333333 21.333333 21.333333 0 0 1-21.333334 21.333334zM479.146667 261.973333h5.546666a21.76 21.76 0 0 1 20.906667 15.786667l54.186667 203.093333a21.333333 21.333333 0 0 1-14.933334 26.026667 22.186667 22.186667 0 0 1-26.453333-14.933333l-54.186667-203.093334a21.333333 21.333333 0 0 1 14.933334-26.88zM399.786667 286.72a25.173333 25.173333 0 0 1 10.666666-2.986667 21.333333 21.333333 0 0 1 18.346667 10.666667 21.76 21.76 0 0 1-7.68 29.44L316.586667 384l104.533333 60.16a21.76 21.76 0 0 1 7.68 29.44 20.906667 20.906667 0 0 1-29.013333 7.68l-136.533334-78.933333a20.906667 20.906667 0 0 1 0-36.693334zM597.333333 294.4a21.333333 21.333333 0 0 1 18.346667-10.666667 25.173333 25.173333 0 0 1 10.666667 2.986667l136.533333 78.933333a20.906667 20.906667 0 0 1 0 36.693334l-136.533333 78.933333a20.906667 20.906667 0 0 1-29.013334-7.68 21.76 21.76 0 0 1 7.68-29.44l102.4-60.16-104.533333-60.16a21.76 21.76 0 0 1-5.546667-29.44z"  horiz-adv-x="1024" />

    
    <glyph glyph-name="mokuai_12" unicode="&#58936;" d="M668.8 546.56c-64 64-184.32 40.96-275.2-49.92a304.64 304.64 0 0 1-81.28-139.52 142.72 142.72 0 0 1 31.36-135.68 128 128 0 0 1 93.44-35.84 268.16 268.16 0 0 1 181.12 85.76c91.52 91.52 113.28 211.84 50.56 275.2zM564.48 325.76c-64-64-138.88-77.44-166.4-49.92a68.48 68.48 0 0 0-10.88 64 225.92 225.92 0 0 0 64 102.4 192 192 0 0 0 128 64 55.04 55.04 0 0 0 39.68-13.44c21.12-28.16 8.96-103.04-54.4-167.04zM938.24 426.88c3.84 13.44 7.68 26.88 10.88 40.32a306.56 306.56 0 0 1-64 295.68 307.2 307.2 0 0 1-295.68 64A704 704 0 0 1 256 632.96C44.8 420.48-12.8 144.64 128 5.12a272.64 272.64 0 0 1 197.76-75.52 436.48 436.48 0 0 1 96.64 11.52 707.84 707.84 0 0 1 332.8 192 872.96 872.96 0 0 1 81.28 96 119.68 119.68 0 0 1 21.76 0 115.2 115.2 0 0 1 115.2 115.2 117.76 117.76 0 0 1-35.2 82.56zM704 192a630.4 630.4 0 0 0-295.04-173.44 233.6 233.6 0 0 0-224.64 43.52c-105.6 104.96-45.44 343.04 128 519.04a627.2 627.2 0 0 0 294.4 170.88 353.28 353.28 0 0 0 79.36 9.6 198.4 198.4 0 0 0 145.92-53.12 232.32 232.32 0 0 0 43.52-224c0-8.32-5.76-17.28-8.32-26.24h-7.68A115.2 115.2 0 0 1 768 270.72 683.52 683.52 0 0 0 704 192z"  horiz-adv-x="1024" />

    
    <glyph glyph-name="fujid_12" unicode="&#58939;" d="M721.92 64H223.146667a31.146667 31.146667 0 0 0-31.146667 31.146667V593.92a21.333333 21.333333 0 0 1-42.666667 0v-498.773333a74.24 74.24 0 0 1 73.813334-73.813334h498.773333a21.333333 21.333333 0 0 1 0 42.666667zM800.853333 746.666667H302.08a21.333333 21.333333 0 0 1 0-42.666667h498.773333a31.146667 31.146667 0 0 0 31.146667-31.146667v-498.773333a21.333333 21.333333 0 0 1 42.666667 0V672.853333a74.24 74.24 0 0 1-73.813334 73.813334zM459.946667 436.053333c-45.653333-45.653333-57.6-102.4-28.16-132.266666a60.16 60.16 0 0 1 42.666666-16.213334 133.546667 133.546667 0 0 1 90.026667 42.666667c45.653333 45.653333 57.6 102.4 28.16 132.266667s-87.04 19.2-132.693333-26.453334z m74.24-74.24c-30.293333-29.866667-63.146667-36.266667-72.106667-27.733333s-2.133333 42.666667 27.733333 72.106667a97.706667 97.706667 0 0 0 60.586667 31.146666 17.066667 17.066667 0 0 0 11.52-3.413333c8.533333-7.253333 2.133333-41.813333-27.733333-72.106667zM752.213333 433.066667c23.04 68.693333 17.92 131.413333-20.906666 170.666666C660.48 674.133333 508.586667 633.6 384 512s-163.84-274.773333-93.013333-345.6a128 128 0 0 1 95.146666-38.4A387.413333 387.413333 0 0 1 640 256a494.506667 494.506667 0 0 1 54.186667 63.146667 54.186667 54.186667 0 0 1 16.64-2.56 65.706667 65.706667 0 0 1 42.666666 114.773333z m-143.786666-145.493334c-102.826667-102.4-233.386667-145.066667-285.44-92.586666s-9.813333 182.613333 92.586666 285.44A355.84 355.84 0 0 0 640 597.333333a85.333333 85.333333 0 0 0 62.72-22.613333 121.173333 121.173333 0 0 0 11.946667-123.733333h-3.84a65.706667 65.706667 0 0 1-52.48-104.96 496.213333 496.213333 0 0 0-49.92-58.453334z"  horiz-adv-x="1024" />

    
    <glyph glyph-name="fujis_12" unicode="&#58940;" d="M721.92 64H223.146667a31.146667 31.146667 0 0 0-31.146667 31.146667V593.92a21.333333 21.333333 0 0 1-42.666667 0v-498.773333a74.24 74.24 0 0 1 73.813334-73.813334h498.773333a21.333333 21.333333 0 0 1 0 42.666667zM800.853333 746.666667H302.08a21.333333 21.333333 0 0 1 0-42.666667h498.773333a31.146667 31.146667 0 0 0 31.146667-31.146667v-498.773333a21.333333 21.333333 0 0 1 42.666667 0V672.853333a74.24 74.24 0 0 1-73.813334 73.813334zM459.946667 436.053333c-45.653333-45.653333-57.6-102.4-28.16-132.266666a60.16 60.16 0 0 1 42.666666-16.213334 133.546667 133.546667 0 0 1 90.026667 42.666667c45.653333 45.653333 57.6 102.4 28.16 132.266667s-87.04 19.2-132.693333-26.453334z m74.24-74.24c-30.293333-29.866667-63.146667-36.266667-72.106667-27.733333s-2.133333 42.666667 27.733333 72.106667a97.706667 97.706667 0 0 0 60.586667 31.146666 17.066667 17.066667 0 0 0 11.52-3.413333c8.533333-7.253333 2.133333-41.813333-27.733333-72.106667zM752.213333 433.066667c23.04 68.693333 17.92 131.413333-20.906666 170.666666C660.48 674.133333 508.586667 633.6 384 512s-163.84-274.773333-93.013333-345.6a128 128 0 0 1 95.146666-38.4A387.413333 387.413333 0 0 1 640 256a494.506667 494.506667 0 0 1 54.186667 63.146667 54.186667 54.186667 0 0 1 16.64-2.56 65.706667 65.706667 0 0 1 42.666666 114.773333z m-143.786666-145.493334c-102.826667-102.4-233.386667-145.066667-285.44-92.586666s-9.813333 182.613333 92.586666 285.44A355.84 355.84 0 0 0 640 597.333333a85.333333 85.333333 0 0 0 62.72-22.613333 121.173333 121.173333 0 0 0 11.946667-123.733333h-3.84a65.706667 65.706667 0 0 1-52.48-104.96 496.213333 496.213333 0 0 0-49.92-58.453334z"  horiz-adv-x="1024" />

    
    <glyph glyph-name="zijis_12" unicode="&#58937;" d="M512 384m-512 0a512 512 0 1 1 1024 0 512 512 0 1 1-1024 0ZM780.8 652.8C694.4 738.56 512 688.64 358.4 537.6s-200.96-336-115.2-422.4a156.8 156.8 0 0 1 113.28-41.6 476.8 476.8 0 0 1 309.12 156.8c151.04 150.4 200.96 336 115.2 422.4zM618.24 490.24C576 529.92 502.4 512 441.6 454.4A181.12 181.12 0 0 1 384 335.36 74.88 74.88 0 0 1 463.36 256a177.92 177.92 0 0 1 119.04 57.6 203.52 203.52 0 0 1 53.12 87.04 91.52 91.52 0 0 1-17.28 89.6zM736 384m-64 0a64 64 0 1 1 128 0 64 64 0 1 1-128 0ZM736 448a64 64 0 1 0-64-64 64 64 0 0 0 64 64m0 38.4A102.4 102.4 0 1 1 838.4 384a102.4 102.4 0 0 1-102.4 102.4z"  horiz-adv-x="1024" />

    
    <glyph glyph-name="mokuai" unicode="&#58942;" d="M512-102.4a40.96 40.96 0 0 0-19.2 5.12L99.84 128a37.76 37.76 0 0 0-14.08 52.48 39.04 39.04 0 0 0 52.48 14.08L512-19.84l373.76 216.32a39.04 39.04 0 0 0 52.48-14.08 37.76 37.76 0 0 0-14.08-52.48L531.2-97.28a40.96 40.96 0 0 0-19.2-5.12zM512 118.4a40.96 40.96 0 0 0-19.2 5.12L99.84 350.72a37.76 37.76 0 0 0-14.08 52.48 38.4 38.4 0 0 0 52.48 14.08L512 200.96l373.76 216.32a38.4 38.4 0 0 0 52.48-14.08 37.76 37.76 0 0 0-14.08-52.48L531.2 123.52a40.96 40.96 0 0 0-19.2-5.12zM512 339.84a34.56 34.56 0 0 0-19.2 5.12L99.84 571.52a38.4 38.4 0 0 0-19.2 33.28 37.76 37.76 0 0 0 19.2 35.2L492.8 865.28a37.76 37.76 0 0 0 38.4 0L924.16 640a37.76 37.76 0 0 0 19.2-33.28 38.4 38.4 0 0 0-19.2-33.28L531.2 344.96a34.56 34.56 0 0 0-19.2-5.12zM195.84 604.8L512 422.4l316.16 182.4L512 787.84z"  horiz-adv-x="1024" />

    
    <glyph glyph-name="fujis" unicode="&#58943;" d="M512 341.333333a36.693333 36.693333 0 0 0-17.493333 4.266667L170.666667 509.866667a37.973333 37.973333 0 0 0-21.76 34.986666 38.826667 38.826667 0 0 0 21.76 34.986667l323.84 162.56a38.826667 38.826667 0 0 0 34.986666 0L853.333333 579.84a38.826667 38.826667 0 0 0 21.76-34.986667 37.973333 37.973333 0 0 0-21.76-34.986666l-325.12-162.56A36.693333 36.693333 0 0 0 512 341.333333zM194.56 544.853333L512 384l317.866667 160.426667L512 704.426667z m650.666667-15.786666zM512 181.333333a17.92 17.92 0 0 0-9.386667 2.133334l-365.226666 182.613333a21.333333 21.333333 0 0 0-9.386667 28.586667 20.906667 20.906667 0 0 0 28.586667 9.386666L512 226.133333l355.84 177.92a20.906667 20.906667 0 0 0 28.586667-9.386666 21.333333 21.333333 0 0 0-9.813334-28.586667l-365.226666-182.613333a17.92 17.92 0 0 0-9.386667-2.133334zM512 21.333333a23.04 23.04 0 0 0-9.386667 2.133334l-365.226666 182.613333a21.333333 21.333333 0 0 0 18.773333 38.4L512 66.56l355.84 177.92a21.333333 21.333333 0 0 0 18.773333-38.4l-365.226666-182.613333a23.04 23.04 0 0 0-9.386667-2.133334z"  horiz-adv-x="1024" />

    
    <glyph glyph-name="fujid" unicode="&#58944;" d="M512 341.333333a36.693333 36.693333 0 0 0-17.493333 4.266667L170.666667 509.866667a37.973333 37.973333 0 0 0-21.76 34.986666 38.826667 38.826667 0 0 0 21.76 34.986667l323.84 162.56a38.826667 38.826667 0 0 0 34.986666 0L853.333333 579.84a38.826667 38.826667 0 0 0 21.76-34.986667 37.973333 37.973333 0 0 0-21.76-34.986666l-325.12-162.56A36.693333 36.693333 0 0 0 512 341.333333zM194.56 544.853333L512 384l317.866667 160.426667L512 704.426667z m650.666667-15.786666zM512 181.333333a17.92 17.92 0 0 0-9.386667 2.133334l-365.226666 182.613333a21.333333 21.333333 0 0 0-9.386667 28.586667 20.906667 20.906667 0 0 0 28.586667 9.386666L512 226.133333l355.84 177.92a20.906667 20.906667 0 0 0 28.586667-9.386666 21.333333 21.333333 0 0 0-9.813334-28.586667l-365.226666-182.613333a17.92 17.92 0 0 0-9.386667-2.133334zM512 21.333333a23.04 23.04 0 0 0-9.386667 2.133334l-365.226666 182.613333a21.333333 21.333333 0 0 0 18.773333 38.4L512 66.56l355.84 177.92a21.333333 21.333333 0 0 0 18.773333-38.4l-365.226666-182.613333a23.04 23.04 0 0 0-9.386667-2.133334z"  horiz-adv-x="1024" />

    
    <glyph glyph-name="zijid" unicode="&#58938;" d="M512 384m-512 0a512 512 0 1 1 1024 0 512 512 0 1 1-1024 0ZM211.057778 491.52l284.444444-142.222222a33.564444 33.564444 0 0 1 31.857778 0l284.444444 142.222222a34.702222 34.702222 0 0 1 19.342223 31.857778 35.84 35.84 0 0 1-18.204445 31.288889l-284.444444 142.222222a36.977778 36.977778 0 0 1-31.857778 0L211.057778 554.666667a35.84 35.84 0 0 1-19.342222-31.857778 34.702222 34.702222 0 0 1 19.342222-31.288889zM183.182222 365.795556l319.715556-160.426667a25.031111 25.031111 0 0 1 18.204444 0l319.715556 160.426667a20.48 20.48 0 0 1 9.102222 26.737777 19.911111 19.911111 0 0 1-26.737778 8.533334L512 245.76 200.817778 401.066667a19.911111 19.911111 0 0 1-26.737778-8.533334 20.48 20.48 0 0 1 9.102222-26.737777zM823.182222 261.12L512 105.813333l-311.182222 155.306667a19.911111 19.911111 0 0 1-26.737778-8.533333 20.48 20.48 0 0 1 9.102222-26.737778l319.715556-160.426667a25.031111 25.031111 0 0 1 18.204444 0l319.715556 160.426667a20.48 20.48 0 0 1 9.102222 26.737778 19.911111 19.911111 0 0 1-26.737778 8.533333z"  horiz-adv-x="1024" />

    
    <glyph glyph-name="zijid_12" unicode="&#58941;" d="M512 384m-512 0a512 512 0 1 1 1024 0 512 512 0 1 1-1024 0ZM227.555556 345.884444m28.444444 0l56.888889 0q28.444444 0 28.444444-28.444444l0-227.555556q0-28.444444-28.444444-28.444444l-56.888889 0q-28.444444 0-28.444444 28.444444l0 227.555556q0 28.444444 28.444444 28.444444ZM455.111111 288.995556m28.444445 0l56.888888 0q28.444444 0 28.444445-28.444445l0-170.666667q0-28.444444-28.444445-28.444444l-56.888888 0q-28.444444 0-28.444445 28.444444l0 170.666667q0 28.444444 28.444445 28.444445ZM682.666667 436.906667m28.444444 0l56.888889 0q28.444444 0 28.444444-28.444445l0-318.577778q0-28.444444-28.444444-28.444444l-56.888889 0q-28.444444 0-28.444444 28.444444l0 318.577778q0 28.444444 28.444444 28.444445ZM853.333333 706.56l-227.555555-5.688889 42.097778-68.835555-147.911112-90.453334L455.111111 624.071111a31.857778 31.857778 0 0 1-42.097778 7.964445L186.595556 497.777778a32.426667 32.426667 0 0 1 16.497777-60.302222 29.013333 29.013333 0 0 1 16.497778 3.413333l203.662222 120.604444 62.577778-82.488889a32.426667 32.426667 0 0 1 42.666667-8.533333l174.08 105.813333 42.097778-68.835555z"  horiz-adv-x="1024" />

    
    <glyph glyph-name="fujid_13" unicode="&#58945;" d="M863.146667 746.666667H160.853333A64 64 0 0 1 96.853333 682.666667v-597.333334a64 64 0 0 1 64-64h702.293334a64 64 0 0 1 64 64V682.666667a64 64 0 0 1-64 64z m21.333333-661.333334a21.333333 21.333333 0 0 0-21.333333-21.333333H160.853333a21.333333 21.333333 0 0 0-21.333333 21.333333V682.666667a21.333333 21.333333 0 0 0 21.333333 21.333333h702.293334a21.333333 21.333333 0 0 0 21.333333-21.333333zM358.4 64H256v228.693333a18.773333 18.773333 0 0 0 20.48 16.213334h61.44a18.773333 18.773333 0 0 0 20.48-16.213334zM563.2 64h-102.4v187.733333a18.773333 18.773333 0 0 0 20.48 16.213334h61.44a18.773333 18.773333 0 0 0 20.48-16.213334zM768 64h-102.4v310.186667a18.773333 18.773333 0 0 0 20.48 16.213333h61.44a18.773333 18.773333 0 0 0 20.48-16.213333zM780.8 608.853333l-193.706667-7.253333 37.973334-60.586667-125.013334-78.506666-56.32 61.866666a25.173333 25.173333 0 0 1-31.573333 5.12L230.4 426.666667a25.173333 25.173333 0 0 1-9.813333-34.56A25.173333 25.173333 0 0 1 256 384l163.413333 90.88 57.173334-62.72a25.173333 25.173333 0 0 1 32.426666-4.693333l143.36 90.453333 37.973334-60.586667z"  horiz-adv-x="1024" />

    
    <glyph glyph-name="fujis_13" unicode="&#58946;" d="M863.146667 746.666667H160.853333A64 64 0 0 1 96.853333 682.666667v-597.333334a64 64 0 0 1 64-64h702.293334a64 64 0 0 1 64 64V682.666667a64 64 0 0 1-64 64z m21.333333-661.333334a21.333333 21.333333 0 0 0-21.333333-21.333333H160.853333a21.333333 21.333333 0 0 0-21.333333 21.333333V682.666667a21.333333 21.333333 0 0 0 21.333333 21.333333h702.293334a21.333333 21.333333 0 0 0 21.333333-21.333333zM358.4 64H256v228.693333a18.773333 18.773333 0 0 0 20.48 16.213334h61.44a18.773333 18.773333 0 0 0 20.48-16.213334zM563.2 64h-102.4v187.733333a18.773333 18.773333 0 0 0 20.48 16.213334h61.44a18.773333 18.773333 0 0 0 20.48-16.213334zM768 64h-102.4v310.186667a18.773333 18.773333 0 0 0 20.48 16.213333h61.44a18.773333 18.773333 0 0 0 20.48-16.213333zM780.8 608.853333l-193.706667-7.253333 37.973334-60.586667-125.013334-78.506666-56.32 61.866666a25.173333 25.173333 0 0 1-31.573333 5.12L230.4 426.666667a25.173333 25.173333 0 0 1-9.813333-34.56A25.173333 25.173333 0 0 1 256 384l163.413333 90.88 57.173334-62.72a25.173333 25.173333 0 0 1 32.426666-4.693333l143.36 90.453333 37.973334-60.586667z"  horiz-adv-x="1024" />

    
    <glyph glyph-name="zijis_13" unicode="&#58947;" d="M512 384m-512 0a512 512 0 1 1 1024 0 512 512 0 1 1-1024 0ZM227.555556 345.884444m28.444444 0l56.888889 0q28.444444 0 28.444444-28.444444l0-227.555556q0-28.444444-28.444444-28.444444l-56.888889 0q-28.444444 0-28.444444 28.444444l0 227.555556q0 28.444444 28.444444 28.444444ZM455.111111 288.995556m28.444445 0l56.888888 0q28.444444 0 28.444445-28.444445l0-170.666667q0-28.444444-28.444445-28.444444l-56.888888 0q-28.444444 0-28.444445 28.444444l0 170.666667q0 28.444444 28.444445 28.444445ZM682.666667 436.906667m28.444444 0l56.888889 0q28.444444 0 28.444444-28.444445l0-318.577778q0-28.444444-28.444444-28.444444l-56.888889 0q-28.444444 0-28.444444 28.444444l0 318.577778q0 28.444444 28.444444 28.444445ZM853.333333 706.56l-227.555555-5.688889 42.097778-68.835555-147.911112-90.453334L455.111111 624.071111a31.857778 31.857778 0 0 1-42.097778 7.964445L186.595556 497.777778a32.426667 32.426667 0 0 1 16.497777-60.302222 29.013333 29.013333 0 0 1 16.497778 3.413333l203.662222 120.604444 62.577778-82.488889a32.426667 32.426667 0 0 1 42.666667-8.533333l174.08 105.813333 42.097778-68.835555z"  horiz-adv-x="1024" />

    
    <glyph glyph-name="mokuai_13" unicode="&#58948;" d="M153.6 378.24m32 0l89.6 0q32 0 32-32l0-384q0-32-32-32l-89.6 0q-32 0-32 32l0 384q0 32 32 32ZM435.2 250.24m32 0l89.6 0q32 0 32-32l0-256q0-32-32-32l-89.6 0q-32 0-32 32l0 256q0 32 32 32ZM716.8 506.24m32 0l89.6 0q32 0 32-32l0-512q0-32-32-32l-89.6 0q-32 0-32 32l0 512q0 32 32 32ZM915.2 837.76L647.04 832l49.92-81.28L521.6 640 448 740.48a38.4 38.4 0 0 1-49.92 9.6L128 592a37.76 37.76 0 0 1 19.2-71.04 34.56 34.56 0 0 1 19.2 5.12l240.64 140.8 74.24-97.92a37.76 37.76 0 0 1 50.56-9.6l204.8 124.8 49.92-81.92z"  horiz-adv-x="1024" />

    
    <glyph glyph-name="zijid_13" unicode="&#58949;" d="M512 384m-512 0a512 512 0 1 1 1024 0 512 512 0 1 1-1024 0ZM780.8 652.8C694.4 738.56 512 688.64 358.4 537.6s-200.96-336-115.2-422.4a156.8 156.8 0 0 1 113.28-41.6 476.8 476.8 0 0 1 309.12 156.8c151.04 150.4 200.96 336 115.2 422.4zM618.24 490.24C576 529.92 502.4 512 441.6 454.4A181.12 181.12 0 0 1 384 335.36 74.88 74.88 0 0 1 463.36 256a177.92 177.92 0 0 1 119.04 57.6 203.52 203.52 0 0 1 53.12 87.04 91.52 91.52 0 0 1-17.28 89.6zM736 384m-64 0a64 64 0 1 1 128 0 64 64 0 1 1-128 0ZM736 448a64 64 0 1 0-64-64 64 64 0 0 0 64 64m0 38.4A102.4 102.4 0 1 1 838.4 384a102.4 102.4 0 0 1-102.4 102.4z"  horiz-adv-x="1024" />

    
    <glyph glyph-name="activeClose" unicode="&#58950;" d="M512 896a512 512 0 1 1 512-512 512 512 0 0 1-512 512z m0-938.666667a426.666667 426.666667 0 1 0 426.666667 426.666667 426.666667 426.666667 0 0 0-426.666667-426.666667zM621.226667 635.733333a42.666667 42.666667 0 0 1-60.586667 0L341.333333 413.866667a42.666667 42.666667 0 0 1 0-60.586667l220.16-221.013333a42.666667 42.666667 0 0 1 60.586667 60.586666L426.666667 384l194.56 191.146667a42.666667 42.666667 0 0 1 0 60.586666z"  horiz-adv-x="1024" />

    
    <glyph glyph-name="active_service_batch_on" unicode="&#58951;" d="M640 384m-106.666667 0a106.666667 106.666667 0 1 1 213.333334 0 106.666667 106.666667 0 1 1-213.333334 0ZM640 567.466667H384a183.466667 183.466667 0 0 1 0-366.933334h256a183.466667 183.466667 0 0 1 0 366.933334z m0-341.333334H384a157.866667 157.866667 0 0 0 0 315.733334h256a157.866667 157.866667 0 0 0 0-315.733334z"  horiz-adv-x="1024" />

    
    <glyph glyph-name="active_service_batch_off" unicode="&#58952;" d="M384 384m-106.666667 0a106.666667 106.666667 0 1 1 213.333334 0 106.666667 106.666667 0 1 1-213.333334 0ZM640 567.466667H384a183.466667 183.466667 0 0 1 0-366.933334h256a183.466667 183.466667 0 0 1 0 366.933334z m0-341.333334H384a157.866667 157.866667 0 0 0 0 315.733334h256a157.866667 157.866667 0 0 0 0-315.733334z"  horiz-adv-x="1024" />

    
    <glyph glyph-name="bookmark" unicode="&#58953;" d="M768-128L512 213.333333l-256-341.333333V896h512z"  horiz-adv-x="1024" />

    
    <glyph glyph-name="active_service_copy" unicode="&#58954;" d="M652.8 128H448a64 64 0 0 0-64 64v12.8h25.6v-12.8a38.4 38.4 0 0 1 38.4-38.4h204.8a38.4 38.4 0 0 1 38.4 38.4v307.2a38.4 38.4 0 0 1-38.4 38.4H640v25.6h12.8a64 64 0 0 0 64-64V192a64 64 0 0 0-64-64zM576 204.8h-204.8a64 64 0 0 0-64 64V576a64 64 0 0 0 64 64H576a64 64 0 0 0 64-64v-307.2a64 64 0 0 0-64-64zM371.2 614.4a38.4 38.4 0 0 1-38.4-38.4v-307.2a38.4 38.4 0 0 1 38.4-38.4H576a38.4 38.4 0 0 1 38.4 38.4V576A38.4 38.4 0 0 1 576 614.4zM563.2 486.4H384a12.8 12.8 0 0 0 0 25.6h179.2a12.8 12.8 0 0 0 0-25.6zM563.2 409.6H384a12.8 12.8 0 0 0 0 25.6h179.2a12.8 12.8 0 0 0 0-25.6zM563.2 332.8H384a12.8 12.8 0 1 0 0 25.6h179.2a12.8 12.8 0 0 0 0-25.6z"  horiz-adv-x="1024" />

    
    <glyph glyph-name="404" unicode="&#58955;" d="M931.6 310.4v-79c28.6 60.2 44.8 127.4 44.8 198.4C976.4 685 769.4 892 514.2 892S52 685 52 429.8c0-3.2 0.2-6.4 0.2-9.6l166 206h96.4L171.8 410.4h46.4v54.8l99.2 154.6V228h-99.2v82.4H67.6c43-161 170.6-287.4 332.4-328.6-10.4-26.2-40.6-89.4-90.8-100.6-62.2-14 168.8-3.4 333.6 104.6C769.4 22.4 873.6 111.6 930.2 228h-97.6v82.4H666.4V420l166.2 206.2h94L786.2 410.4h46.4v59l99.2 154v-313zM366.2 288c-4.8 11.2-7.2 23.2-7.2 36V538.4c0 12.8 2.4 24.8 7.2 36 4.8 11.2 11.4 21 19.6 29.2 8.2 8.2 18 14.8 29.2 19.6 11.2 4.8 23.2 7.2 36 7.2h81.6c12.8 0 24.8-2.4 36-7.2 11-4.8 20.6-11.2 28.8-19.2l-88.6-129.4v23c0 4.8-1.6 8.8-4.8 12-3.2 3.2-7.2 4.8-12 4.8s-8.8-1.6-12-4.8c-3.2-3.2-4.8-7.2-4.8-12v-72L372.6 276c-2.4 3.8-4.6 7.8-6.4 12z m258.2 36c0-12.8-2.4-24.8-7.2-36-4.8-11.2-11.4-21-19.6-29.2-8.2-8.2-18-14.8-29.2-19.6-11.2-4.8-23.2-7.2-36-7.2h-81.6c-12.8 0-24.8 2.4-36 7.2-11.2 4.8-21 11.4-29.2 19.6-3.6 3.6-7 7.8-10 12l99.2 144.6v-50.6c0-4.8 1.6-8.8 4.8-12 3.2-3.2 7.2-4.8 12-4.8s8.8 1.6 12 4.8c3.2 3.2 4.8 7.2 4.8 12v99.6L601 599.6c6.6-7.4 12-15.8 16-25.2 4.8-11.2 7.2-23.2 7.2-36V324z"  horiz-adv-x="1024" />

    
    <glyph glyph-name="active_service_batch_update" unicode="&#58956;" d="M512 111.786667A272.213333 272.213333 0 1 0 784.213333 384 272.213333 272.213333 0 0 0 512 111.786667z m0 512A240.213333 240.213333 0 1 1 751.786667 384 239.786667 239.786667 0 0 1 512 623.786667zM613.546667 439.893333l-89.6 88.746667a17.493333 17.493333 0 0 1-23.893334 0l-89.6-88.746667a16.213333 16.213333 0 0 1 0-23.466666 16.64 16.64 0 0 1 23.466667 0l61.44 60.16v-225.28a16.64 16.64 0 0 1 33.28 0V476.586667l61.44-60.16a16.64 16.64 0 0 1 11.946667-4.693334 16.64 16.64 0 0 1 11.52 4.693334 16.213333 16.213333 0 0 1 0 23.466666z"  horiz-adv-x="1024" />

    
    <glyph glyph-name="alg" unicode="&#58957;" d="M704.704 50.368l-435.2 96a112 112 0 1 0-107.072 172.8l72.896 336.576A95.936 95.936 0 0 0 288 832a96 96 0 0 0 91.136-65.856l400.448 14.208a96 96 0 1 0 76.032-139.904L784.32 415.552a80 80 0 1 0-137.536-79.936l-150.656 6.144a64 64 0 1 0-59.84 105.152l37.12 81.28a64 64 0 1 0 69.376-33.024l-35.904-78.144 145.984-5.248a80 80 0 0 0 60.992 36.096L787.2 679.296a95.744 95.744 0 0 0-12.864 24.064l-402.688-14.272c-12.8-22.784-34.688-39.808-60.672-46.208l-73.728-341.12c27.136-17.728 46.08-46.912 49.984-80.64l432.576-95.424a128 128 0 1 0-15.104-75.328z"  horiz-adv-x="1024" />

    
    <glyph glyph-name="chart" unicode="&#58958;" d="M64 448h256v-512H64V448z m640 192h256v-704H704V640zM384 832h256v-896H384V832z"  horiz-adv-x="1024" />

    
    <glyph glyph-name="close" unicode="&#58959;" d="M555.008 384l299.008 299.008c12.288 12.288 12.288 31.744 0 43.008-12.288 12.288-31.744 12.288-43.008 0L512 427.008 212.992 726.016c-12.288 12.288-31.744 12.288-43.008 0-12.288-12.288-12.288-31.744 0-43.008L468.992 384 169.984 84.992c-12.288-12.288-12.288-31.744 0-43.008 6.144-6.144 14.336-9.216 21.504-9.216s15.36 3.072 21.504 9.216L512 340.992l299.008-299.008c6.144-6.144 14.336-9.216 21.504-9.216s15.36 3.072 21.504 9.216c12.288 12.288 12.288 31.744 0 43.008L555.008 384z"  horiz-adv-x="1024" />

    
    <glyph glyph-name="algorithmManage1" unicode="&#58960;" d="M1207.248573 896H86.238046A86.770526 86.770526 0 0 1 0.006467 808.151579v-848.842105A86.770526 86.770526 0 0 1 86.238046-128h1121.010527a86.770526 86.770526 0 0 1 86.231579 87.309474V808.151579A86.770526 86.770526 0 0 1 1207.248573 896zM53.901204 808.151579A32.875789 32.875789 0 0 0 86.238046 842.105263h1121.010527a32.875789 32.875789 0 0 0 32.336842-33.953684V141.473684H53.901204z m1185.684211-848.842105a32.875789 32.875789 0 0 0-32.336842-33.953685H86.238046a32.875789 32.875789 0 0 0-32.336842 33.414737V87.578947h1185.684211zM794.953836 585.566316a26.947368 26.947368 0 1 1-26.947369-46.888421L943.164362 437.894737l-175.157895-101.322105a26.947368 26.947368 0 0 1 26.947369-46.888421l215.578947 124.496842a26.947368 26.947368 0 0 1 0 46.888421zM535.181204 575.865263a26.947368 26.947368 0 0 1-36.648421 9.701053l-215.578947-124.496842a26.947368 26.947368 0 0 1 0-46.888421l215.578947-124.496842a26.947368 26.947368 0 0 1 26.947369 46.888421L350.322257 437.894737l175.157895 101.322105a26.947368 26.947368 0 0 1 9.701052 36.648421zM695.78752 626.526316a26.947368 26.947368 0 0 1-32.875789-18.863158l-83.536843-312.589474a26.947368 26.947368 0 1 1 53.894737-14.012631l83.536842 312.589473a26.947368 26.947368 0 0 1-21.018947 32.87579z"  horiz-adv-x="1293" />

    
    <glyph glyph-name="create" unicode="&#58961;" d="M932 603.2L669.2 867.6A96.342 96.342 0 0 1 600.9 896H108C48.3 896 0 847.6 0 788v-808c0-59.7 48.4-108 108-108h744c59.7 0 108 48.4 108 108V535.3c0 25.5-10.1 49.9-28 67.9zM896-20c0-24.3-19.7-44-44-44H108c-24.3 0-44 19.7-44 44V788c0 24.3 19.7 44 44 44h492.9c8.5 0 16.9-3.5 22.9-9.5l262.8-264.4c6.1-6.1 9.4-14.2 9.4-22.8V-20zM736 385H512.1V608c0 17.7-14.3 32-32 32s-32-14.3-32-32v-223H224c-17.7 0-32-14.3-32-32s14.3-32 32-32h224.1v-225c0-17.7 14.3-32 32-32s32 14.3 32 32V321H736c17.7 0 32 14.3 32 32s-14.3 32-32 32z"  horiz-adv-x="1024" />

    
    <glyph glyph-name="closeRight" unicode="&#58962;" d="M785.201215 871.185784a82.714055 82.714055 0 0 1-117.453958 0L239.288452 442.726979a82.714055 82.714055 0 0 1 0-117.453958L667.747257-96.568659a82.714055 82.714055 0 0 1 117.453958 117.453958l-370.558966 363.941842L785.201215 755.386107a82.714055 82.714055 0 0 1 0 115.799677z"  horiz-adv-x="1024" />

    
    <glyph glyph-name="algorithmManage" unicode="&#58963;" d="M1207.248573 896H86.238046A86.770526 86.770526 0 0 1 0.006467 808.151579v-848.842105A86.770526 86.770526 0 0 1 86.238046-128h1121.010527a86.770526 86.770526 0 0 1 86.231579 87.309474V808.151579A86.770526 86.770526 0 0 1 1207.248573 896zM53.901204 808.151579A32.875789 32.875789 0 0 0 86.238046 842.105263h1121.010527a32.875789 32.875789 0 0 0 32.336842-33.953684V141.473684H53.901204z m1185.684211-848.842105a32.875789 32.875789 0 0 0-32.336842-33.953685H86.238046a32.875789 32.875789 0 0 0-32.336842 33.414737V87.578947h1185.684211zM794.953836 585.566316a26.947368 26.947368 0 1 1-26.947369-46.888421L943.164362 437.894737l-175.157895-101.322105a26.947368 26.947368 0 0 1 26.947369-46.888421l215.578947 124.496842a26.947368 26.947368 0 0 1 0 46.888421zM535.181204 575.865263a26.947368 26.947368 0 0 1-36.648421 9.701053l-215.578947-124.496842a26.947368 26.947368 0 0 1 0-46.888421l215.578947-124.496842a26.947368 26.947368 0 0 1 26.947369 46.888421L350.322257 437.894737l175.157895 101.322105a26.947368 26.947368 0 0 1 9.701052 36.648421zM695.78752 626.526316a26.947368 26.947368 0 0 1-32.875789-18.863158l-83.536843-312.589474a26.947368 26.947368 0 1 1 53.894737-14.012631l83.536842 312.589473a26.947368 26.947368 0 0 1-21.018947 32.87579z"  horiz-adv-x="1293" />

    
    <glyph glyph-name="component" unicode="&#58964;" d="M64 832h384v-384H64V832z m0-512h384v-384H64V320z m512 0h384v-384H576V320z m192 128c106.039 0 192 85.961 192 192S874.039 832 768 832s-192-85.961-192-192 85.961-192 192-192z"  horiz-adv-x="1024" />

    
    <glyph glyph-name="dataFlow" unicode="&#58965;" d="M1344 384h-224V479.36A32 32 0 0 1 1088 512H320a32 32 0 0 1-32-32V448H64V768h224v-96A32 32 0 0 1 320 640h768a32 32 0 0 1 32 32V768H1344a32 32 0 0 1 0 64h-224V864A32 32 0 0 1 1088 896H320a32 32 0 0 1-32-32V832H64a64 64 0 0 1-64-64v-320a64 64 0 0 1 64-64h224v-96.64A32 32 0 0 1 320 256h768a32 32 0 0 1 32 32V320H1344v-320h-224v96a32 32 0 0 1-32 32H320a32 32 0 0 1-32-32V0H64a32 32 0 0 1 0-64h224v-32a32 32 0 0 1 32-32h768a32 32 0 0 1 32 32V-64H1344a64 64 0 0 1 64 64V320a64 64 0 0 1-64 64z m-288 448v-128H512V832z m-704 0H448v-128H352z m0-384H448v-128H352z m704-128H512V448h544z m-704-384v128H448v-128z m704 0H512v128h544z"  horiz-adv-x="1408" />

    
    <glyph glyph-name="clipboard" unicode="&#58966;" d="M438.857-54.857h512V310.857H713.143q-22.82 0-38.839 16.018t-16.018 38.84V603.428H438.857v-658.286zM585.143 768V804.571q0 7.461-5.413 12.874t-12.873 5.412H164.571q-7.46 0-12.873-5.412t-5.412-12.874V768q0-7.46 5.412-12.873t12.873-5.413h402.286q7.46 0 12.873 5.413T585.143 768z m146.286-384H902.29L731.43 554.862V384zM1024 310.857v-384q0-22.82-16.018-38.839T969.142-128h-548.57q-22.821 0-38.84 16.018t-16.018 38.84v91.428H54.857q-22.82 0-38.839 16.018T0 73.143v768q0 22.82 16.018 38.839T54.858 896H676.57q22.821 0 38.84-16.018t16.018-38.84v-187.464q11.995-7.46 20.553-16.019l233.18-233.179q16.017-16.018 27.428-43.447t11.41-50.322z"  horiz-adv-x="1024" />

    
    <glyph glyph-name="bug" unicode="&#58967;" d="M969.143 347.429q0-14.848-10.862-25.71t-25.71-10.862h-128q0-97.719-38.29-165.705L885.138 25.71Q896 14.848 896 0t-10.862-25.71q-10.276-10.861-25.71-10.861t-25.71 10.861L720.568 86.857q-2.853-2.852-8.558-7.424t-23.99-16.274-37.157-20.846-46.848-16.567-55.443-7.424v512H475.43v-512q-29.148 0-58.003 7.717t-49.7 18.87-37.705 22.273-24.869 18.578l-8.558 8.01-104.557-118.273q-11.447-11.995-27.429-11.995-13.714 0-24.576 9.143-10.862 10.276-11.703 25.417t8.85 26.587L252.6 154.368q-33.134 65.134-33.134 156.562h-128q-14.848 0-25.71 10.862t-10.861 25.71 10.861 25.71 25.71 10.861h128v168.01l-98.852 98.852q-10.862 10.862-10.862 25.71t10.862 25.71 25.71 10.861 25.709-10.862l98.853-98.852h482.304l98.852 98.852q10.862 10.862 25.71 10.862t25.71-10.862 10.861-25.71-10.861-25.71l-98.853-98.852v-168.009h128q14.848 0 25.71-10.862t10.861-25.71zM694.857 676.57H329.143q0 75.996 53.43 129.427T512 859.428t129.426-53.43 53.431-129.427z"  horiz-adv-x="1024" />

    
    <glyph glyph-name="dataSearch_c" unicode="&#58968;" d="M1017.6-87.893333l-108.373333 108.373333a197.546667 197.546667 0 1 1-28.16-32l106.24-106.24a21.333333 21.333333 0 0 1 30.293333 30.293333z m-267.093333 66.56a149.333333 149.333333 0 1 0 149.333333 149.333333 149.333333 149.333333 0 0 0-149.333333-149.333333zM494.506667 64h-277.333334v640h396.373334l158.293333-158.293333v-140.373334a21.333333 21.333333 0 0 1 42.666667 0V554.666667a21.333333 21.333333 0 0 1-6.4 14.933333l-170.666667 170.666667a21.333333 21.333333 0 0 1-14.933333 6.4h-426.666667a21.333333 21.333333 0 0 1-21.333333-21.333334v-682.666666a21.333333 21.333333 0 0 1 21.333333-21.333334h298.666667a21.333333 21.333333 0 0 1 0 42.666667zM665.173333 554.666667h-362.666666a21.333333 21.333333 0 0 1 0-42.666667h362.666666a21.333333 21.333333 0 0 1 0 42.666667zM665.173333 426.666667h-362.666666a21.333333 21.333333 0 0 1 0-42.666667h362.666666a21.333333 21.333333 0 0 1 0 42.666667zM494.506667 298.666667h-192a21.333333 21.333333 0 0 1 0-42.666667h192a21.333333 21.333333 0 0 1 0 42.666667z"  horiz-adv-x="1024" />

    
    <glyph glyph-name="dataSearch_d" unicode="&#58969;" d="M1017.6-87.893333l-108.373333 108.373333a197.546667 197.546667 0 1 1-28.16-32l106.24-106.24a21.333333 21.333333 0 0 1 30.293333 30.293333z m-267.093333 66.56a149.333333 149.333333 0 1 0 149.333333 149.333333 149.333333 149.333333 0 0 0-149.333333-149.333333zM494.506667 64h-277.333334v640h396.373334l158.293333-158.293333v-140.373334a21.333333 21.333333 0 0 1 42.666667 0V554.666667a21.333333 21.333333 0 0 1-6.4 14.933333l-170.666667 170.666667a21.333333 21.333333 0 0 1-14.933333 6.4h-426.666667a21.333333 21.333333 0 0 1-21.333333-21.333334v-682.666666a21.333333 21.333333 0 0 1 21.333333-21.333334h298.666667a21.333333 21.333333 0 0 1 0 42.666667zM665.173333 554.666667h-362.666666a21.333333 21.333333 0 0 1 0-42.666667h362.666666a21.333333 21.333333 0 0 1 0 42.666667zM665.173333 426.666667h-362.666666a21.333333 21.333333 0 0 1 0-42.666667h362.666666a21.333333 21.333333 0 0 1 0 42.666667zM494.506667 298.666667h-192a21.333333 21.333333 0 0 1 0-42.666667h192a21.333333 21.333333 0 0 1 0 42.666667z"  horiz-adv-x="1024" />

    
    <glyph glyph-name="dataSearch_h" unicode="&#58970;" d="M1017.6-87.893333l-108.373333 108.373333a197.546667 197.546667 0 1 1-28.16-32l106.24-106.24a21.333333 21.333333 0 0 1 30.293333 30.293333z m-267.093333 66.56a149.333333 149.333333 0 1 0 149.333333 149.333333 149.333333 149.333333 0 0 0-149.333333-149.333333zM494.506667 64h-277.333334v640h396.373334l158.293333-158.293333v-140.373334a21.333333 21.333333 0 0 1 42.666667 0V554.666667a21.333333 21.333333 0 0 1-6.4 14.933333l-170.666667 170.666667a21.333333 21.333333 0 0 1-14.933333 6.4h-426.666667a21.333333 21.333333 0 0 1-21.333333-21.333334v-682.666666a21.333333 21.333333 0 0 1 21.333333-21.333334h298.666667a21.333333 21.333333 0 0 1 0 42.666667zM665.173333 554.666667h-362.666666a21.333333 21.333333 0 0 1 0-42.666667h362.666666a21.333333 21.333333 0 0 1 0 42.666667zM665.173333 426.666667h-362.666666a21.333333 21.333333 0 0 1 0-42.666667h362.666666a21.333333 21.333333 0 0 1 0 42.666667zM494.506667 298.666667h-192a21.333333 21.333333 0 0 1 0-42.666667h192a21.333333 21.333333 0 0 1 0 42.666667z"  horiz-adv-x="1024" />

    
    <glyph glyph-name="dataConfig1" unicode="&#58971;" d="M692.58517 28.472946h-615.631262a25.651303 25.651303 0 0 0-25.651303 25.651302V819.046092a25.651303 25.651303 0 0 0 25.651303 25.651303h974.749499a25.651303 25.651303 0 0 0 25.651302-25.651303v-410.420841a25.651303 25.651303 0 0 1 51.302606 0v410.420841A76.953908 76.953908 0 0 1 1051.703407 896h-974.749499A76.953908 76.953908 0 0 1 0 819.046092v-764.921844a76.953908 76.953908 0 0 1 76.953908-76.953907h615.631262a25.651303 25.651303 0 0 1 0 51.302605zM1231.262525 115.687375l-117.482966 205.210421a25.651303 25.651303 0 0 1-22.06012 12.825651h-234.452906a25.651303 25.651303 0 0 1-22.06012-12.825651l-117.482966-205.210421a25.651303 25.651303 0 0 1 0-25.651303l117.482966-205.210421a25.651303 25.651303 0 0 1 22.06012-12.825651h234.452906a25.651303 25.651303 0 0 1 22.06012 12.825651l117.482966 205.210421a25.651303 25.651303 0 0 1 0 25.651303zM1077.354709-78.749499h-205.21042l-102.605211 179.559118 102.605211 179.559118h205.21042l102.605211-179.559118zM974.749499 205.97996a102.60521 102.60521 0 1 1 102.60521-102.605211 102.60521 102.60521 0 0 1-102.60521 102.605211z m0-153.907816a51.302605 51.302605 0 1 0 51.302605 51.302605 51.302605 51.302605 0 0 0-51.302605-51.302605zM941.402806 660.008016a25.651303 25.651303 0 0 1-36.42485 0l-205.210421-205.210421a75.41483 75.41483 0 0 1-77.466934-6.669338L484.296593 544.577154a75.927856 75.927856 0 0 1 3.078156 20.521042 76.953908 76.953908 0 1 1-146.212424-32.833667l-179.559119-179.559118a25.651303 25.651303 0 1 1 36.42485-36.42485l179.559118 179.559118a75.41483 75.41483 0 0 1 77.466934 6.669339l138.004008-96.448898a75.927856 75.927856 0 0 1-3.078156-20.521042 76.953908 76.953908 0 1 1 146.212425 32.833667l205.210421 205.210421a25.651303 25.651303 0 0 1 0 36.42485z"  horiz-adv-x="1235" />

    
    <glyph glyph-name="default_service_batch_on" unicode="&#58972;" d="M640 384m-106.666667 0a106.666667 106.666667 0 1 1 213.333334 0 106.666667 106.666667 0 1 1-213.333334 0ZM640 567.466667H384a183.466667 183.466667 0 0 1 0-366.933334h256a183.466667 183.466667 0 0 1 0 366.933334z m0-341.333334H384a157.866667 157.866667 0 0 0 0 315.733334h256a157.866667 157.866667 0 0 0 0-315.733334z"  horiz-adv-x="1024" />

    
    <glyph glyph-name="default_service_copy" unicode="&#58973;" d="M652.8 128H448a64 64 0 0 0-64 64v12.8h25.6v-12.8a38.4 38.4 0 0 1 38.4-38.4h204.8a38.4 38.4 0 0 1 38.4 38.4v307.2a38.4 38.4 0 0 1-38.4 38.4H640v25.6h12.8a64 64 0 0 0 64-64V192a64 64 0 0 0-64-64zM576 204.8h-204.8a64 64 0 0 0-64 64V576a64 64 0 0 0 64 64H576a64 64 0 0 0 64-64v-307.2a64 64 0 0 0-64-64zM371.2 614.4a38.4 38.4 0 0 1-38.4-38.4v-307.2a38.4 38.4 0 0 1 38.4-38.4H576a38.4 38.4 0 0 1 38.4 38.4V576A38.4 38.4 0 0 1 576 614.4zM563.2 486.4H384a12.8 12.8 0 0 0 0 25.6h179.2a12.8 12.8 0 0 0 0-25.6zM563.2 409.6H384a12.8 12.8 0 0 0 0 25.6h179.2a12.8 12.8 0 0 0 0-25.6zM563.2 332.8H384a12.8 12.8 0 1 0 0 25.6h179.2a12.8 12.8 0 0 0 0-25.6z"  horiz-adv-x="1024" />

    
    <glyph glyph-name="dataFlow1" unicode="&#58974;" d="M1344 384h-224V479.36A32 32 0 0 1 1088 512H320a32 32 0 0 1-32-32V448H64V768h224v-96A32 32 0 0 1 320 640h768a32 32 0 0 1 32 32V768H1344a32 32 0 0 1 0 64h-224V864A32 32 0 0 1 1088 896H320a32 32 0 0 1-32-32V832H64a64 64 0 0 1-64-64v-320a64 64 0 0 1 64-64h224v-96.64A32 32 0 0 1 320 256h768a32 32 0 0 1 32 32V320H1344v-320h-224v96a32 32 0 0 1-32 32H320a32 32 0 0 1-32-32V0H64a32 32 0 0 1 0-64h224v-32a32 32 0 0 1 32-32h768a32 32 0 0 1 32 32V-64H1344a64 64 0 0 1 64 64V320a64 64 0 0 1-64 64z m-288 448v-128H512V832z m-704 0H448v-128H352z m0-384H448v-128H352z m704-128H512V448h544z m-704-384v128H448v-128z m704 0H512v128h544z"  horiz-adv-x="1408" />

    
    <glyph glyph-name="config" unicode="&#58975;" d="M992.6 491.9h-94.7c-8.7 31.3-21 61-36.6 88.7l66.9 66.9c12.2 12.2 12.2 32.2 0 44.5L820 800.1c-6.1 6.1-14.2 9.2-22.2 9.2s-16.1-3.1-22.2-9.2l-66.9-66.9c-27.7 15.6-57.4 27.9-88.7 36.6V864.6C620 881.9 605.8 896 588.6 896h-153c-17.3 0-31.4-14.2-31.4-31.4v-94.7c-31.3-8.7-61-21-88.7-36.6l-66.9 66.9c-6.1 6.1-14.2 9.2-22.2 9.2s-16.1-3.1-22.2-9.2L95.9 692c-12.2-12.2-12.2-32.2 0-44.5l66.9-66.9c-15.6-27.7-27.9-57.4-36.6-88.7H31.4C14.2 491.9 0 477.7 0 460.4v-152.9c0-17.3 14.2-31.4 31.4-31.4h94.7c8.7-31.3 21-61 36.6-88.7l-66.9-66.9c-12.2-12.2-12.2-32.2 0-44.5L204-32.1c6.1-6.1 14.2-9.2 22.2-9.2s16.1 3.1 22.2 9.2l66.9 66.9c27.7-15.6 57.4-27.9 88.7-36.6v-94.7c0-17.3 14.2-31.4 31.4-31.4h152.9c17.3 0 31.4 14.2 31.4 31.4v94.7c31.3 8.7 61 21 88.7 36.6l66.9-66.9c6.1-6.1 14.2-9.2 22.2-9.2s16.1 3.1 22.2 9.2L928.1 76c12.2 12.2 12.2 32.2 0 44.5l-66.9 66.9c15.6 27.7 27.9 57.4 36.6 88.7h94.7c17.3 0 31.4 14.2 31.4 31.4V460.4c0.1 17.3-14 31.5-31.3 31.5zM960 340.1H849.2l-13.1-46.8c-7.3-26.3-17.7-51.4-30.7-74.5l-23.9-42.3 34.4-34.4 43.9-43.9-62.1-62.1-43.9 43.9-34.4 34.4-42.3-23.9c-23.1-13-48.2-23.4-74.5-30.7l-46.8-13.1V-64H468V46.8l-46.8 13.1c-26.3 7.3-51.4 17.7-74.5 30.7l-42.3 23.9-34.4-34.4-43.9-43.9-62.1 62.1 43.9 43.9 34.4 34.4-23.9 42.3c-13 23.1-23.4 48.2-30.7 74.5l-13.1 46.8H64V428H174.8l13.1 46.8c7.3 26.3 17.7 51.4 30.7 74.5l23.9 42.3-34.4 34.4-43.9 43.9 62.1 62.1 43.9-43.9 34.4-34.4 42.3 23.9c23.1 13 48.2 23.4 74.5 30.7l46.8 13.1V832H556V721.2l46.8-13.1c26.3-7.3 51.4-17.7 74.5-30.7l42.3-23.9 34.4 34.4 43.9 43.9 62.1-62.1-43.9-43.9-34.4-34.4 23.9-42.3c13-23.1 23.4-48.2 30.7-74.5l13.1-46.8H960v-87.7zM512 576c-106 0-192-86-192-192s86-192 192-192 192 86 192 192-86 192-192 192z m90.5-282.5C578.3 269.3 546.2 256 512 256s-66.3 13.3-90.5 37.5C397.3 317.7 384 349.8 384 384s13.3 66.3 37.5 90.5c24.2 24.2 56.3 37.5 90.5 37.5s66.3-13.3 90.5-37.5c24.2-24.2 37.5-56.3 37.5-90.5s-13.3-66.3-37.5-90.5z"  horiz-adv-x="1024" />

    
    <glyph glyph-name="dataConfig" unicode="&#58976;" d="M692.58517 28.472946h-615.631262a25.651303 25.651303 0 0 0-25.651303 25.651302V819.046092a25.651303 25.651303 0 0 0 25.651303 25.651303h974.749499a25.651303 25.651303 0 0 0 25.651302-25.651303v-410.420841a25.651303 25.651303 0 0 1 51.302606 0v410.420841A76.953908 76.953908 0 0 1 1051.703407 896h-974.749499A76.953908 76.953908 0 0 1 0 819.046092v-764.921844a76.953908 76.953908 0 0 1 76.953908-76.953907h615.631262a25.651303 25.651303 0 0 1 0 51.302605zM1231.262525 115.687375l-117.482966 205.210421a25.651303 25.651303 0 0 1-22.06012 12.825651h-234.452906a25.651303 25.651303 0 0 1-22.06012-12.825651l-117.482966-205.210421a25.651303 25.651303 0 0 1 0-25.651303l117.482966-205.210421a25.651303 25.651303 0 0 1 22.06012-12.825651h234.452906a25.651303 25.651303 0 0 1 22.06012 12.825651l117.482966 205.210421a25.651303 25.651303 0 0 1 0 25.651303zM1077.354709-78.749499h-205.21042l-102.605211 179.559118 102.605211 179.559118h205.21042l102.605211-179.559118zM974.749499 205.97996a102.60521 102.60521 0 1 1 102.60521-102.605211 102.60521 102.60521 0 0 1-102.60521 102.605211z m0-153.907816a51.302605 51.302605 0 1 0 51.302605 51.302605 51.302605 51.302605 0 0 0-51.302605-51.302605zM941.402806 660.008016a25.651303 25.651303 0 0 1-36.42485 0l-205.210421-205.210421a75.41483 75.41483 0 0 1-77.466934-6.669338L484.296593 544.577154a75.927856 75.927856 0 0 1 3.078156 20.521042 76.953908 76.953908 0 1 1-146.212424-32.833667l-179.559119-179.559118a25.651303 25.651303 0 1 1 36.42485-36.42485l179.559118 179.559118a75.41483 75.41483 0 0 1 77.466934 6.669339l138.004008-96.448898a75.927856 75.927856 0 0 1-3.078156-20.521042 76.953908 76.953908 0 1 1 146.212425 32.833667l205.210421 205.210421a25.651303 25.651303 0 0 1 0 36.42485z"  horiz-adv-x="1235" />

    
    <glyph glyph-name="device_overview" unicode="&#58977;" d="M1097.142857 847.238095H487.619048V871.619048a24.380952 24.380952 0 0 1-24.380953 24.380952h-243.809524a24.380952 24.380952 0 0 1-24.380952-24.380952V847.238095H73.142857A73.142857 73.142857 0 0 1 0 774.095238v-828.952381A73.142857 73.142857 0 0 1 73.142857-128h1024a73.142857 73.142857 0 0 1 73.142857 73.142857v828.952381A73.142857 73.142857 0 0 1 1097.142857 847.238095z m0-48.761905a24.380952 24.380952 0 0 0 24.380953-24.380952V505.904762H487.619048V798.47619z m0-341.333333v-48.761905h-585.142857V457.142857zM438.857143 847.238095v-140.434285H243.809524V847.238095z m-5.851429-189.19619v-243.809524H250.148571v243.809524zM48.761905-54.857143v828.952381a24.380952 24.380952 0 0 0 24.380952 24.380952H195.047619v-877.714285H73.142857a24.380952 24.380952 0 0 0-24.380952 24.380952z m195.047619-24.380952v444.708571h195.047619V-79.238095z m877.714286 24.380952a24.380952 24.380952 0 0 0-24.380953-24.380952H487.619048v438.857143h633.904762z"  horiz-adv-x="1170" />

    
    <glyph glyph-name="aboutuser" unicode="&#58978;" d="M540.805 349.698c7.068-1.196 14.087-2.682 21.057-4.34 12.78-3.04 25.341-6.965 37.637-11.547a315.55 315.55 0 0 0 8.246-3.227l0.083-0.033c0.251-0.108 0.564-0.245 0.972-0.42a318.342 318.342 0 0 0 4.855-2.153c6.46-2.91 12.799-6.08 19.047-9.404 11.021-5.862 24.895-2.817 31.378 8.162 6.14 10.39 2.777 25.257-8.226 31.105a352.777 352.777 0 0 1-59.46 24.946c18.063 11.003 34.382 24.808 47.885 40.648 30.93 36.282 48.175 82.019 48.353 129.597-0.178 47.823-17.594 93.003-48.353 129.6-28.76 34.221-70.933 58.246-115.051 66.237-47.716 8.652-97.172 0.57-139.192-23.643-40.645-23.421-70.916-60.763-87.486-104.106-16.442-42.985-16.09-93.17 0-136.175 15.835-42.324 45.375-78.368 84.1-102.073-28.506-9.003-55.835-21.654-81.047-37.702-46.981-29.908-86.349-71.136-114.051-119.185-29.517-51.201-44.803-110.06-44.968-168.954-0.037-12.4 10.459-22.743 22.931-22.743 12.53 0 22.903 10.344 22.935 22.736 0.023 6.986 0.25 13.958 0.69 20.925 0.221 3.482 0.529 6.959 0.86 10.43 0.169 1.736 0.36 3.472 0.556 5.203 0.075 0.66 0.423 3.27 0.581 4.483 2.03 13.75 5.04 27.35 8.842 40.726 1.91 6.713 4.096 13.35 6.447 19.924 1.177 3.29 2.435 6.55 3.72 9.796 0.333 0.838 0.683 1.668 1.027 2.502 0.195 0.43 1.566 3.658 1.897 4.402 5.549 12.415 11.991 24.423 19.083 36.034 3.402 5.57 7.02 11.015 10.76 16.367 1.868 2.68 3.8 5.316 5.748 7.935 0.479 0.644 0.971 1.277 1.456 1.915-0.107-0.172 2.455 3.108 3.004 3.786 8.557 10.567 17.86 20.524 27.699 29.928 4.696 4.495 9.57 8.809 14.531 13.008a325.625 325.625 0 0 0 7.559 6.176c0.317 0.251 1.107 0.863 1.752 1.367a469.896 469.896 0 0 0 3.972 2.951c10.937 8.011 22.44 15.255 34.31 21.837 5.223 2.9 10.547 5.61 15.927 8.211a322.619 322.619 0 0 0 7.605 3.53c1.567 0.708 3.147 1.39 4.723 2.075 0.26 0.104 0.599 0.24 1.048 0.422 11.864 4.816 24.055 8.833 36.416 12.206 12.358 3.379 24.937 5.923 37.611 7.817l0.935 0.134c1.123 0.14 2.245 0.283 3.37 0.414 3.475 0.403 6.958 0.722 10.44 1.017 7.05 0.595 14.121 0.9 21.192 1.032 13.148 0.25 26.307-0.413 39.386-1.746 0.968-0.1 5.742-0.694 6.617-0.782 2.871-0.418 5.732-0.868 8.59-1.351z m11.361 61.398c3.856 1.67 1.532 0.64 0 0z m-214.778 161.66c-0.262-2.092-0.159-1.211 0 0z m183.48-170.982c-2.55-0.523-5.116-0.958-7.692-1.366-0.191-0.03-0.435-0.066-0.699-0.103-1.209-0.141-2.418-0.27-3.628-0.39-11.066-1.099-22.236-1.057-33.315-0.12-1.085 0.091-4.574 0.515-5.856 0.657a209.061 209.061 0 0 0-4.925 0.83c-5.509 0.998-10.956 2.313-16.342 3.829-4.917 1.38-9.76 3.02-14.538 4.818-0.972 0.368-1.94 0.755-2.907 1.141-2.64 1.155-5.245 2.397-7.824 3.67-9.306 4.603-18.142 10.109-26.49 16.248a166.38 166.38 0 0 0-2.415 1.94 165.996 165.996 0 0 0-5.672 4.86c-4.04 3.573-7.87 7.376-11.563 11.3a168.135 168.135 0 0 0-7.749 8.883c-0.051 0.122-2.877 3.795-3.607 4.818-1.696 2.364-3.308 4.788-4.884 7.229-2.706 4.206-5.193 8.547-7.532 12.967a165.11 165.11 0 0 0-3.355 6.733c-0.536 1.117-1.043 2.25-1.551 3.378l-0.168 0.413c-4.008 9.83-6.997 20.052-9.155 30.437-0.524 2.528-0.962 5.075-1.372 7.628a25.263 25.263 0 0 0-0.07 0.454c-0.101 0.844-0.207 1.688-0.296 2.533-0.62 5.694-0.894 11.412-0.956 17.135-0.06 5.304 0.172 10.607 0.588 15.892 0.166 2.108 0.395 4.209 0.646 6.308 0.032 0.225 0.062 0.431 0.088 0.6 0.26 1.705 0.566 3.4 0.88 5.096 1.925 10.447 4.923 20.693 8.716 30.618 0.362 0.941 0.743 1.876 1.123 2.81a177.252 177.252 0 0 0 3.169 6.715c2.405 4.86 5.08 9.582 7.918 14.202 2.61 4.244 5.445 8.347 8.408 12.363 0.132 0.18 0.31 0.413 0.5 0.664 0.429 0.53 0.851 1.066 1.285 1.593 1.832 2.25 3.745 4.43 5.694 6.589 6.243 6.927 13.104 13.299 20.378 19.161 0.33 0.212 3.831 2.86 4.83 3.564 2.046 1.445 4.134 2.817 6.236 4.169 4.574 2.943 9.312 5.632 14.127 8.143a187.34 187.34 0 0 0 6.793 3.328 174.128 174.128 0 0 0 3.368 1.519c4.883 1.965 9.862 3.68 14.897 5.21 4.93 1.496 9.938 2.728 14.976 3.792 2.55 0.537 5.107 0.99 7.673 1.42 0.3 0.048 0.599 0.089 0.899 0.137 0.97 0.126 2.665 0.35 3.411 0.428 11.054 1.18 22.221 1.221 33.302 0.362 1.53-0.116 3.056-0.269 4.58-0.432 0.058-0.043 4.927-0.704 6.244-0.934 5.521-0.96 10.984-2.24 16.387-3.712 4.931-1.343 9.787-2.952 14.578-4.717 0.898-0.329 3.555-1.417 4.902-1.96a211.208 211.208 0 0 0 5.895-2.738c9.406-4.571 18.342-10.06 26.79-16.192 0.182-0.132 0.418-0.307 0.67-0.496 0.534-0.425 1.074-0.844 1.606-1.271 1.941-1.56 3.84-3.179 5.714-4.82 4.06-3.55 7.918-7.325 11.637-11.228 3.3-3.457 6.415-7.075 9.417-10.786a201 201 0 0 0 2.067-2.799c1.71-2.355 3.336-4.765 4.93-7.198 2.74-4.186 5.252-8.51 7.622-12.907a177.288 177.288 0 0 0 3.405-6.704c0.548-1.131 1.072-2.275 1.597-3.415l0.376-0.818c4.14-10.052 7.235-20.502 9.434-31.132a171.968 171.968 0 0 0 1.478-8.286c0.143-1.21 0.275-2.42 0.395-3.634 0.575-5.7 0.81-11.438 0.83-17.168a193.837 193.837 0 0 0-0.707-15.863c-0.092-1.046-0.496-4.341-0.649-5.695a198.456 198.456 0 0 0-1.098-6.269c-2.001-10.426-5.07-20.636-8.93-30.525-0.151-0.385-0.31-0.762-0.466-1.144-0.234-0.543-0.497-1.155-0.672-1.54-1.03-2.293-2.132-4.544-3.258-6.792-2.437-4.838-5.144-9.539-8.017-14.13-2.591-4.156-5.402-8.17-8.333-12.093-0.655-0.818-1.32-1.628-1.987-2.436-1.853-2.232-3.782-4.403-5.743-6.549-3.353-3.667-6.906-7.164-10.557-10.543a177.717 177.717 0 0 0-5.607-4.937c-0.975-0.828-4.684-3.726-5.403-4.322-7.666-5.608-15.826-10.555-24.292-14.893a181.33 181.33 0 0 0-6.816-3.275c-0.836-0.385-1.68-0.752-2.526-1.121l-0.149-0.06c-5.128-2.057-10.374-3.816-15.672-5.385-4.939-1.466-9.96-2.657-15.016-3.686z m11.08-126.74c0-12.399 10.427-22.741 22.928-22.741h298.61c12.497 0 22.93 10.343 22.93 22.74s-10.432 22.74-22.93 22.74h-298.61c-12.5 0-22.929-10.342-22.929-22.74z m321.538-95.705h-298.61c-12.5 0-22.929-10.344-22.929-22.74 0-12.397 10.428-22.744 22.93-22.744h298.609c12.497 0 22.93 10.347 22.93 22.743 0 12.398-10.432 22.74-22.93 22.74z m0-118.45h-298.61c-12.5 0-22.929-10.343-22.929-22.74 0-12.393 10.428-22.738 22.93-22.738h298.609c12.497 0 22.93 10.346 22.93 22.738 0 12.397-10.432 22.74-22.93 22.74z"  horiz-adv-x="1024" />

    
    <glyph glyph-name="default_service_batch_update" unicode="&#58979;" d="M512 111.786667A272.213333 272.213333 0 1 0 784.213333 384 272.213333 272.213333 0 0 0 512 111.786667z m0 512A240.213333 240.213333 0 1 1 751.786667 384 239.786667 239.786667 0 0 1 512 623.786667zM613.546667 439.893333l-89.6 88.746667a17.493333 17.493333 0 0 1-23.893334 0l-89.6-88.746667a16.213333 16.213333 0 0 1 0-23.466666 16.64 16.64 0 0 1 23.466667 0l61.44 60.16v-225.28a16.64 16.64 0 0 1 33.28 0V476.586667l61.44-60.16a16.64 16.64 0 0 1 11.946667-4.693334 16.64 16.64 0 0 1 11.52 4.693334 16.213333 16.213333 0 0 1 0 23.466666z"  horiz-adv-x="1024" />

    
    <glyph glyph-name="device_overview1" unicode="&#58980;" d="M1097.142857 847.238095H487.619048V871.619048a24.380952 24.380952 0 0 1-24.380953 24.380952h-243.809524a24.380952 24.380952 0 0 1-24.380952-24.380952V847.238095H73.142857A73.142857 73.142857 0 0 1 0 774.095238v-828.952381A73.142857 73.142857 0 0 1 73.142857-128h1024a73.142857 73.142857 0 0 1 73.142857 73.142857v828.952381A73.142857 73.142857 0 0 1 1097.142857 847.238095z m0-48.761905a24.380952 24.380952 0 0 0 24.380953-24.380952V505.904762H487.619048V798.47619z m0-341.333333v-48.761905h-585.142857V457.142857zM438.857143 847.238095v-140.434285H243.809524V847.238095z m-5.851429-189.19619v-243.809524H250.148571v243.809524zM48.761905-54.857143v828.952381a24.380952 24.380952 0 0 0 24.380952 24.380952H195.047619v-877.714285H73.142857a24.380952 24.380952 0 0 0-24.380952 24.380952z m195.047619-24.380952v444.708571h195.047619V-79.238095z m877.714286 24.380952a24.380952 24.380952 0 0 0-24.380953-24.380952H487.619048v438.857143h633.904762z"  horiz-adv-x="1170" />

    
    <glyph glyph-name="dot_active" unicode="&#58981;" d="M512 384m-512 0a512 512 0 1 1 1024 0 512 512 0 1 1-1024 0ZM512 384m-64 0a64 64 0 1 1 128 0 64 64 0 1 1-128 0ZM768 384m-64 0a64 64 0 1 1 128 0 64 64 0 1 1-128 0ZM256 384m-64 0a64 64 0 1 1 128 0 64 64 0 1 1-128 0Z"  horiz-adv-x="1024" />

    
    <glyph glyph-name="dashboard" unicode="&#58982;" d="M219.429 237.714q0 30.286-21.429 51.715t-51.714 21.428T94.57 289.43t-21.428-51.715T94.57 186t51.715-21.429T198 186t21.429 51.714z m109.714 256q0 30.286-21.429 51.715T256 566.857t-51.714-21.428-21.429-51.715T204.286 442 256 420.571 307.714 442t21.429 51.714z m244.571-274.857l57.715 218.286q3.428 14.857-4.286 27.714t-22 16.857T577.714 478t-17.143-22.571l-57.714-218.286q-34.286-2.857-61.143-24.857t-36-56.286q-11.428-44 11.429-83.429T484 21.714t83.429 11.429T618.286 100q9.143 34.286-3.429 66.857t-41.143 52z m377.143 18.857q0 30.286-21.428 51.715t-51.715 21.428T826 289.43t-21.429-51.715T826 186t51.714-21.429T929.43 186t21.428 51.714zM585.143 603.43q0 30.285-21.429 51.714T512 676.57t-51.714-21.428-21.429-51.714 21.429-51.715T512 530.286t51.714 21.428 21.429 51.715z m256-109.715q0 30.286-21.429 51.715T768 566.857t-51.714-21.428-21.429-51.715T716.286 442 768 420.571 819.714 442t21.429 51.714z m182.857-256q0-149.143-80.571-276-10.858-16.571-30.858-16.571H111.43q-20 0-30.858 16.571Q0 88 0 237.714q0 104 40.571 198.857T149.714 600t163.429 109.143T512 749.714t198.857-40.571T874.286 600t109.143-163.429T1024 237.714z"  horiz-adv-x="1024" />

    
    <glyph glyph-name="delete_c" unicode="&#58983;" d="M896 618.951111h-234.951111v42.666667a106.382222 106.382222 0 0 1-106.382222 106.382222h-85.333334a106.951111 106.951111 0 0 1-106.951111-106.382222v-42.666667H128a21.617778 21.617778 0 0 1 0-43.235555h106.382222V42.666667A107.52 107.52 0 0 1 341.333333-64.284444h341.333334A106.951111 106.951111 0 0 1 789.048889 42.666667V575.715556h106.951111a21.617778 21.617778 0 0 1 0 43.235555z m-490.951111 42.666667A64.284444 64.284444 0 0 0 469.333333 725.333333h85.333334a63.715556 63.715556 0 0 0 63.715555-63.715555v-42.666667H405.048889z m341.333333-618.951111A63.715556 63.715556 0 0 0 682.666667-21.048889H341.333333A64.284444 64.284444 0 0 0 277.048889 42.666667V575.715556h469.333333zM512 447.715556a21.048889 21.048889 0 0 1-21.617778-21.048889v-341.333334a21.617778 21.617778 0 0 1 21.617778-21.617777 21.048889 21.048889 0 0 1 21.048889 21.617777v341.333334A20.48 20.48 0 0 1 512 447.715556zM384 447.715556a21.048889 21.048889 0 0 1-21.617778-21.048889v-341.333334a21.617778 21.617778 0 0 1 21.617778-21.617777 21.048889 21.048889 0 0 1 21.048889 21.617777v341.333334a20.48 20.48 0 0 1-21.048889 21.048889zM618.382222 426.666667v-341.333334a21.617778 21.617778 0 0 1 21.617778-21.617777 21.048889 21.048889 0 0 1 21.048889 21.617777v341.333334a20.48 20.48 0 0 1-21.048889 21.048889 21.048889 21.048889 0 0 1-21.617778-21.048889z"  horiz-adv-x="1024" />

    
    <glyph glyph-name="drag" unicode="&#58984;" d="M574.958 628.984h-63.454 204.649L511.213 832.345 307.85 628.984h141.191V439.32H258.688v-125.917H449.04V123.05h125.917V313.404h188.875V439.321H574.958V628.984z m-63.704-693.33l189.62 187.396H323.126l188.129-187.395zM71.292 377.109l187.395-189.62v377.75L71.292 377.108z m692.54 188.13v-377.75L952.708 377.11 763.833 565.238z"  horiz-adv-x="1024" />

    
    <glyph glyph-name="delete_d" unicode="&#58985;" d="M896 618.951111h-234.951111v42.666667a106.382222 106.382222 0 0 1-106.382222 106.382222h-85.333334a106.951111 106.951111 0 0 1-106.951111-106.382222v-42.666667H128a21.617778 21.617778 0 0 1 0-43.235555h106.382222V42.666667A107.52 107.52 0 0 1 341.333333-64.284444h341.333334A106.951111 106.951111 0 0 1 789.048889 42.666667V575.715556h106.951111a21.617778 21.617778 0 0 1 0 43.235555z m-490.951111 42.666667A64.284444 64.284444 0 0 0 469.333333 725.333333h85.333334a63.715556 63.715556 0 0 0 63.715555-63.715555v-42.666667H405.048889z m341.333333-618.951111A63.715556 63.715556 0 0 0 682.666667-21.048889H341.333333A64.284444 64.284444 0 0 0 277.048889 42.666667V575.715556h469.333333zM512 447.715556a21.048889 21.048889 0 0 1-21.617778-21.048889v-341.333334a21.617778 21.617778 0 0 1 21.617778-21.617777 21.048889 21.048889 0 0 1 21.048889 21.617777v341.333334A20.48 20.48 0 0 1 512 447.715556zM384 447.715556a21.048889 21.048889 0 0 1-21.617778-21.048889v-341.333334a21.617778 21.617778 0 0 1 21.617778-21.617777 21.048889 21.048889 0 0 1 21.048889 21.617777v341.333334a20.48 20.48 0 0 1-21.048889 21.048889zM618.382222 426.666667v-341.333334a21.617778 21.617778 0 0 1 21.617778-21.617777 21.048889 21.048889 0 0 1 21.048889 21.617777v341.333334a20.48 20.48 0 0 1-21.048889 21.048889 21.048889 21.048889 0 0 1-21.617778-21.048889z"  horiz-adv-x="1024" />

    
    <glyph glyph-name="delete_h" unicode="&#58986;" d="M896 618.951111h-234.951111v42.666667a106.382222 106.382222 0 0 1-106.382222 106.382222h-85.333334a106.951111 106.951111 0 0 1-106.951111-106.382222v-42.666667H128a21.617778 21.617778 0 0 1 0-43.235555h106.382222V42.666667A107.52 107.52 0 0 1 341.333333-64.284444h341.333334A106.951111 106.951111 0 0 1 789.048889 42.666667V575.715556h106.951111a21.617778 21.617778 0 0 1 0 43.235555z m-490.951111 42.666667A64.284444 64.284444 0 0 0 469.333333 725.333333h85.333334a63.715556 63.715556 0 0 0 63.715555-63.715555v-42.666667H405.048889z m341.333333-618.951111A63.715556 63.715556 0 0 0 682.666667-21.048889H341.333333A64.284444 64.284444 0 0 0 277.048889 42.666667V575.715556h469.333333zM512 447.715556a21.048889 21.048889 0 0 1-21.617778-21.048889v-341.333334a21.617778 21.617778 0 0 1 21.617778-21.617777 21.048889 21.048889 0 0 1 21.048889 21.617777v341.333334A20.48 20.48 0 0 1 512 447.715556zM384 447.715556a21.048889 21.048889 0 0 1-21.617778-21.048889v-341.333334a21.617778 21.617778 0 0 1 21.617778-21.617777 21.048889 21.048889 0 0 1 21.048889 21.617777v341.333334a20.48 20.48 0 0 1-21.048889 21.048889zM618.382222 426.666667v-341.333334a21.617778 21.617778 0 0 1 21.617778-21.617777 21.048889 21.048889 0 0 1 21.048889 21.617777v341.333334a20.48 20.48 0 0 1-21.048889 21.048889 21.048889 21.048889 0 0 1-21.617778-21.048889z"  horiz-adv-x="1024" />

    
    <glyph glyph-name="documentation" unicode="&#58987;" d="M554.667 512h234.666L554.667 746.667V512M256 810.667h341.333l256-256v-512A85.333 85.333 0 0 0 768-42.667H256a85.333 85.333 0 0 0-85.333 85.334V725.333A85.038 85.038 0 0 0 256 810.667M640 128v85.333H256V128h384m128 170.667V384H256v-85.333h512z"  horiz-adv-x="1024" />

    
    <glyph glyph-name="downArrow" unicode="&#58988;" d="M901.998005-127.767736a112.749751 112.749751 0 0 0-78.924826 33.824926L33.824925 704.325424a112.749751 112.749751 0 0 0 157.849651 157.849651L901.998005 145.086661 1628.106399 862.175075a112.749751 112.749751 0 0 0 160.104646-160.104646L989.94281-93.94281a112.749751 112.749751 0 0 0-87.944805-33.824926z"  horiz-adv-x="1821" />

    
    <glyph glyph-name="ellipsis_32" unicode="&#58989;" d="M256 384m-64 0a64 64 0 1 1 128 0 64 64 0 1 1-128 0ZM512 384m-64 0a64 64 0 1 1 128 0 64 64 0 1 1-128 0ZM768 384m-64 0a64 64 0 1 1 128 0 64 64 0 1 1-128 0Z"  horiz-adv-x="1024" />

    
    <glyph glyph-name="ellipsis_24" unicode="&#58990;" d="M170.666667 384m-85.333334 0a85.333333 85.333333 0 1 1 170.666667 0 85.333333 85.333333 0 1 1-170.666667 0ZM512 384m-85.333333 0a85.333333 85.333333 0 1 1 170.666666 0 85.333333 85.333333 0 1 1-170.666666 0ZM853.333333 384m-85.333333 0a85.333333 85.333333 0 1 1 170.666667 0 85.333333 85.333333 0 1 1-170.666667 0Z"  horiz-adv-x="1024" />

    
    <glyph glyph-name="edit" unicode="&#58991;" d="M860 392c-19.9 0-36-16.1-36-36 0-1.4 0.1-2.7 0.2-4h-0.2v-344H136V696h376c19.9 0 36 16.1 36 36s-16.1 36-36 36H136c-39.8 0-72-32.2-72-72v-688c0-39.8 32.2-72 72-72h688c39.8 0 72 32.2 72 72V352h-0.2c0.1 1.3 0.2 2.6 0.2 4 0 19.9-16.1 36-36 36zM1002.7 795.7L923.4 875c-28.1 28.1-73.9 27.9-102-0.2L424.2 477.6c-2.9-2.9-5.2-6.4-6.8-10.2L317.6 232c-5.6-13.2-1.7-26.5 6.8-35.1 8.5-8.6 21.9-12.5 35.2-6.9l235.5 99.7c3.8 1.6 7.2 3.9 10.2 6.8l397.2 397.2c28.1 28.1 28.3 73.9 0.2 102zM559.8 353l-137.4-58.2 58.2 137.4L759.4 711l79.2-79.2L559.8 353z m391.7 391.7l-62-62-79.2 79.2 62 62 0.2 0.2 79.2-79.2-0.2-0.2z"  horiz-adv-x="1024" />

    
    <glyph glyph-name="dot_hover" unicode="&#58992;" d="M512 384m-512 0a512 512 0 1 1 1024 0 512 512 0 1 1-1024 0ZM512 384m-512 0a512 512 0 1 1 1024 0 512 512 0 1 1-1024 0ZM512 384m-64 0a64 64 0 1 1 128 0 64 64 0 1 1-128 0ZM768 384m-64 0a64 64 0 1 1 128 0 64 64 0 1 1-128 0ZM256 384m-64 0a64 64 0 1 1 128 0 64 64 0 1 1-128 0Z"  horiz-adv-x="1024" />

    
    <glyph glyph-name="example" unicode="&#58993;" d="M770.56 435.2h250.88C998.4 675.84 803.84 870.4 563.2 893.44v-250.88c104.96-20.48 186.88-102.4 207.36-207.36z m0 0M460.8 642.56V893.44C220.16 870.4 25.6 675.84 2.56 435.2h250.88c20.48 104.96 102.4 186.88 207.36 207.36z m0 0M563.2 125.44v-250.88c243.2 23.04 435.2 217.6 460.8 460.8H773.12C750.08 227.84 668.16 145.92 563.2 125.44z m0 0M253.44 332.8H2.56c23.04-243.2 217.6-435.2 460.8-460.8V122.88C355.84 145.92 273.92 227.84 253.44 332.8z m0 0"  horiz-adv-x="1024" />

    
    <glyph glyph-name="error" unicode="&#58994;" d="M0 384a528.896 512 0 1 1 1057.792 0 528.896 512 0 1 1-1057.792 0ZM528.896 179.2a64 64 0 1 1 0-128 64 64 0 1 1 0 128zM546.304 256H512a26.112 26.112 0 0 0-26.624 25.6L460.8 691.2a26.112 26.112 0 0 0 26.624 27.136h80.896a26.624 26.624 0 0 0 27.136-27.136l-23.552-409.6a26.624 26.624 0 0 0-25.6-25.6z"  horiz-adv-x="1057" />

    
    <glyph glyph-name="default_service_batch_off" unicode="&#58995;" d="M384 384m-106.666667 0a106.666667 106.666667 0 1 1 213.333334 0 106.666667 106.666667 0 1 1-213.333334 0ZM640 567.466667H384a183.466667 183.466667 0 0 1 0-366.933334h256a183.466667 183.466667 0 0 1 0 366.933334z m0-341.333334H384a157.866667 157.866667 0 0 0 0 315.733334h256a157.866667 157.866667 0 0 0 0-315.733334z"  horiz-adv-x="1024" />

    
    <glyph glyph-name="excel" unicode="&#58996;" d="M625.664 763.392v-67.072h309.76v-43.008h-309.76v-69.632h309.76v-43.008h-309.76v-68.608h309.76v-43.008h-309.76v-68.608h309.76v-43.008h-309.76v-68.608h309.76v-43.008h-309.76v-68.096h309.76v-43.008h-309.76v-89.088H1024v757.76H625.664zM0-18.944L577.024-128V896L0 786.944M229.376 235.52h-89.6l118.272 187.904-112.64 180.736h92.16l65.536-119.808 67.584 119.808h89.088l-112.64-177.664L466.944 235.52h-93.696l-70.144 125.44-73.728-125.44z"  horiz-adv-x="1024" />

    
    <glyph glyph-name="eye1" unicode="&#58997;" d=""  horiz-adv-x="1527" />

    
    <glyph glyph-name="devicemanage" unicode="&#58998;" d="M512.017 896C229.234 896 0 666.766 0 383.983 0 101.234 229.234-128 512.017-128c282.764 0 512.007 229.224 512.007 511.983C1024.03 666.766 794.79 896 512.017 896zM774.58 187.605c-1.68-4.882-4.785-13.926-13.98-13.93-5.586 0-9.913 3.763-13.394 7.46-17.754 18.74-36.601 37.187-54.829 55.02l-0.922 0.91c-8.023 7.84-16.294 9.95-25.479 6.454-8.725-3.31-13.535-9.4-14.712-18.634-1.06-8.046 1.865-14.965 9.462-22.455 14.204-13.988 28.335-28.05 42.725-42.372l27.295-27.15-11.245-5.884c-14.551-7.607-30.136-11.46-46.319-11.46-53.066 0-98.076 40.294-104.692 93.731-1.998 16.113-0.864 29.942 3.466 42.27 0.317 0.904 0.356 1.353 0.361 1.465-0.049 0-0.376 0.523-1.489 1.642-69.516 69.252-131.137 130.844-188.407 188.31-1.457 1.465-1.852 1.465-2.008 1.465-0.4 0-1.181-0.088-2.636-0.499-9.336-2.616-18.96-3.96-28.604-3.96h-0.005c-50.22 0-93.829 35.543-103.716 84.513-4.834 23.979-2.339 46.015 7.436 65.502l2.13 4.253 4.701 0.762c8.814 1.412 13.038-4.33 14.805-6.592 0.187-0.239 0.357-0.483 0.552-0.683 8.14-8.057 16.27-16.196 24.405-24.34 10.278-10.293 20.556-20.582 30.942-30.772 11.724-11.509 25.123-12.705 35.293-2.715 4.731 4.649 7.08 10.297 6.802 16.319-0.299 6.463-3.516 12.987-9.297 18.856-13.98 14.219-28.125 28.291-42.71 42.822l-29.273 29.2 12.935 5.303c16.455 6.737 31.811 10.019 46.958 10.019 16.41 0 32.505-4.048 47.822-12.032 44.298-23.1 66.52-74.54 52.823-122.328-0.825-2.872-0.84-2.925 1.655-5.405 51.592-51.412 119.439-119.097 186.724-186.748 1.841-1.85 2.5-1.85 3.204-1.85 0.878 0 2.113 0.194 3.793 0.596 9.81 2.334 19.488 3.516 28.735 3.516 29.913 0 55.84-11.945 77.07-35.493 27.312-30.286 34.782-66.618 21.623-105.086z"  horiz-adv-x="1025" />

    
    <glyph glyph-name="fault_center" unicode="&#58999;" d="M146.285714 67.047619h926.476191a73.142857 73.142857 0 0 1 73.142857 73.142857v682.666667A73.142857 73.142857 0 0 1 1072.761905 896H146.285714a73.142857 73.142857 0 0 1-73.142857-73.142857v-682.666667A73.142857 73.142857 0 0 1 146.285714 67.047619zM121.904762 822.857143A24.380952 24.380952 0 0 0 146.285714 847.238095h926.476191a24.380952 24.380952 0 0 0 24.380952-24.380952v-682.666667a24.380952 24.380952 0 0 0-24.380952-24.380952H146.285714a24.380952 24.380952 0 0 0-24.380952 24.380952zM1194.666667-79.238095H24.380952a24.380952 24.380952 0 0 1 0-48.761905h1170.285715a24.380952 24.380952 0 0 1 0 48.761905zM355.961905 262.095238h507.123809a24.380952 24.380952 0 0 1 20.967619 36.571429l-253.561904 438.857143a25.35619 25.35619 0 0 1-42.422858 0l-253.561904-438.857143a24.380952 24.380952 0 0 1 21.455238-36.571429z m253.561905 414.476191l211.139047-365.714286H398.384762zM628.053333 579.047619h-39.009523a9.752381 9.752381 0 0 1-9.752381-9.752381L585.142857 442.514286a9.752381 9.752381 0 0 1 9.752381-9.752381h29.257143a9.752381 9.752381 0 0 1 9.752381 9.752381l3.900952 126.780952a9.752381 9.752381 0 0 1-9.752381 9.752381zM609.52381 384m-24.380953 0a24.380952 24.380952 0 1 1 48.761905 0 24.380952 24.380952 0 1 1-48.761905 0Z"  horiz-adv-x="1219" />

    
    <glyph glyph-name="dot_default" unicode="&#59000;" d="M512 384m-512 0a512 512 0 1 1 1024 0 512 512 0 1 1-1024 0ZM512 384m-512 0a512 512 0 1 1 1024 0 512 512 0 1 1-1024 0ZM512 384m-512 0a512 512 0 1 1 1024 0 512 512 0 1 1-1024 0ZM512 384m-64 0a64 64 0 1 1 128 0 64 64 0 1 1-128 0ZM768 384m-64 0a64 64 0 1 1 128 0 64 64 0 1 1-128 0ZM256 384m-64 0a64 64 0 1 1 128 0 64 64 0 1 1-128 0Z"  horiz-adv-x="1024" />

    
    <glyph glyph-name="duidiaojiaohuanduihuan" unicode="&#59001;" d="M893.44 554.88c-1.28 6.4-3.84 12.16-8.96 17.28l-185.6 184.96c-14.08 13.44-35.84 13.44-49.92 0-14.08-13.44-14.08-35.84 0-49.92l133.76-133.12h-624c-16.64 0-30.72-14.08-30.72-31.36S142.08 512 158.72 512h624L648.96 378.88c-14.08-13.44-14.08-35.84 0-49.92 14.08-13.44 35.84-13.44 49.92 0l185.6 184.96c5.12 5.12 7.68 10.88 8.96 17.28 1.92 3.2 2.56 7.68 2.56 11.52s-0.64 8.96-2.56 12.16zM801.28 192h-624l133.76 133.12c14.08 13.44 14.08 35.84 0 49.92-14.08 13.44-35.84 13.44-49.92 0L75.52 190.08c-5.12-4.48-7.68-10.88-8.96-16.64-1.92-3.84-2.56-8.32-2.56-12.16s0.64-8.32 2.56-12.16c1.28-6.4 3.84-12.16 8.96-17.28l185.6-184.96c14.08-13.44 35.84-13.44 49.92 0 14.08 13.44 14.08 35.84 0 49.92L177.28 129.92h624c17.28 0 30.72 14.08 30.72 30.72S817.92 192 801.28 192z"  horiz-adv-x="1024" />

    
    <glyph glyph-name="field_big_delete_h" unicode="&#59002;" d="M400 496a16 16 0 0 1-16-16v-320a16 16 0 0 1 32 0V480a16 16 0 0 1-16 16zM864 624h-208V704A48 48 0 0 1 608 752h-192A48 48 0 0 1 368 704v-80H160a16 16 0 0 1 0-32h112V128a112 112 0 0 1 112-112h256a112 112 0 0 1 112 112V592H864a16 16 0 0 1 0 32zM400 704a16 16 0 0 0 16 16h192a16 16 0 0 0 16-16v-80h-224z m320-576a80 80 0 0 0-80-80h-256A80 80 0 0 0 304 128V592h416zM512 496a16 16 0 0 1-16-16v-320a16 16 0 0 1 32 0V480a16 16 0 0 1-16 16zM624 496a16 16 0 0 1-16-16v-320a16 16 0 0 1 32 0V480a16 16 0 0 1-16 16z"  horiz-adv-x="1024" />

    
    <glyph glyph-name="field_big_delete_c" unicode="&#59003;" d="M400 496a16 16 0 0 1-16-16v-320a16 16 0 0 1 32 0V480a16 16 0 0 1-16 16zM864 624h-208V704A48 48 0 0 1 608 752h-192A48 48 0 0 1 368 704v-80H160a16 16 0 0 1 0-32h112V128a112 112 0 0 1 112-112h256a112 112 0 0 1 112 112V592H864a16 16 0 0 1 0 32zM400 704a16 16 0 0 0 16 16h192a16 16 0 0 0 16-16v-80h-224z m320-576a80 80 0 0 0-80-80h-256A80 80 0 0 0 304 128V592h416zM512 496a16 16 0 0 1-16-16v-320a16 16 0 0 1 32 0V480a16 16 0 0 1-16 16zM624 496a16 16 0 0 1-16-16v-320a16 16 0 0 1 32 0V480a16 16 0 0 1-16 16z"  horiz-adv-x="1024" />

    
    <glyph glyph-name="eye" unicode="&#59004;" d="M941.677 504.29c9.338 14.006 6.225 32.681-6.225 43.575-14.006 10.894-32.681 7.781-43.575-6.225-1.557-1.556-174.3-205.426-379.728-205.426-199.2 0-379.727 205.426-381.283 206.982-10.895 12.45-31.125 14.006-43.576 3.113-12.45-10.894-14.006-31.125-3.113-43.576 3.113-4.668 40.463-46.687 99.6-93.375l-79.37-82.482c-12.45-12.45-10.893-32.681 1.557-43.575 3.113-6.225 10.894-9.338 18.676-9.338 7.78 0 15.562 3.113 21.787 9.338l85.594 88.706c40.463-28.013 88.707-54.47 141.62-73.144l-32.682-110.495c-4.668-17.118 4.67-34.237 21.788-38.906h9.337c14.006 0 26.457 9.338 29.569 23.344l32.681 110.495c24.9-4.669 51.357-7.782 77.813-7.782s52.913 3.113 77.814 7.782l32.68-108.939c3.114-14.006 17.12-23.343 29.57-23.343 3.113 0 6.225 0 7.782 1.556 17.118 4.67 26.456 21.787 21.788 38.906L649.099 300.42c52.914 18.676 101.157 45.132 141.62 73.144l84.038-87.15c6.225-6.225 14.006-9.338 21.787-9.338 7.781 0 15.563 3.113 21.787 9.337 12.45 12.451 12.45 31.125 1.557 43.576l-79.37 82.481c63.808 46.689 101.16 91.82 101.16 91.82z"  horiz-adv-x="1024" />

    
    <glyph glyph-name="field_big_delete_d" unicode="&#59005;" d="M400 496a16 16 0 0 1-16-16v-320a16 16 0 0 1 32 0V480a16 16 0 0 1-16 16zM864 624h-208V704A48 48 0 0 1 608 752h-192A48 48 0 0 1 368 704v-80H160a16 16 0 0 1 0-32h112V128a112 112 0 0 1 112-112h256a112 112 0 0 1 112 112V592H864a16 16 0 0 1 0 32zM400 704a16 16 0 0 0 16 16h192a16 16 0 0 0 16-16v-80h-224z m320-576a80 80 0 0 0-80-80h-256A80 80 0 0 0 304 128V592h416zM512 496a16 16 0 0 1-16-16v-320a16 16 0 0 1 32 0V480a16 16 0 0 1-16 16zM624 496a16 16 0 0 1-16-16v-320a16 16 0 0 1 32 0V480a16 16 0 0 1-16 16z"  horiz-adv-x="1024" />

    
    <glyph glyph-name="field_binding_c" unicode="&#59006;" d="M347.84 76.16a143.04 143.04 0 0 0-101.76 41.92 144.64 144.64 0 0 0 0 203.84l135.68 135.68a144 144 0 0 0 203.84 0 16 16 0 0 0-22.72-22.72 114.88 114.88 0 0 1-158.4 0L268.8 299.2a112 112 0 0 1 158.4-160l67.84 67.84a16 16 0 0 0 22.72 0 16.32 16.32 0 0 0 0-22.72l-67.84-67.84a143.36 143.36 0 0 0-102.08-40.32zM540.16 268.16a143.04 143.04 0 0 0-101.76 42.24 16 16 0 0 0 22.72 22.72 114.88 114.88 0 0 1 158.4 0l135.68 135.68a112 112 0 0 1-160 158.4l-67.84-67.84a16 16 0 0 0-22.72 0 16.32 16.32 0 0 0 0 22.72l67.84 67.84a144 144 0 1 0 203.84-203.84l-134.08-135.68a143.36 143.36 0 0 0-102.08-42.24z"  horiz-adv-x="1024" />

    
    <glyph glyph-name="email" unicode="&#59007;" d="M513 312.2l448.5 448.5c-11.6 4.7-24.3 7.3-37.5 7.3H100c-12.7 0-24.9-2.4-36.1-6.7L513 312.2zM513 221.7L14.6 720.1C5.3 704.9 0 687.1 0 668v-568c0-55.2 44.8-100 100-100h824c55.2 0 100 44.8 100 100V668c0 18.5-5.1 35.9-13.9 50.8L513 221.7z"  horiz-adv-x="1024" />

    
    <glyph glyph-name="field_config_d" unicode="&#59008;" d="M685.44 684.48L859.2 384l-173.76-300.48H338.56L164.8 384l173.76 300.48h346.88m18.56 32H320L128 384l192-332.48h384L896 384 704 716.48zM512 480a96 96 0 1 0-96-96 96 96 0 0 0 96 96m0 32a128 128 0 1 1 128-128 128 128 0 0 1-128 128z"  horiz-adv-x="1024" />

    
    <glyph glyph-name="field_binding_d" unicode="&#59009;" d="M347.84 76.16a143.04 143.04 0 0 0-101.76 41.92 144.64 144.64 0 0 0 0 203.84l135.68 135.68a144 144 0 0 0 203.84 0 16 16 0 0 0-22.72-22.72 114.88 114.88 0 0 1-158.4 0L268.8 299.2a112 112 0 0 1 158.4-160l67.84 67.84a16 16 0 0 0 22.72 0 16.32 16.32 0 0 0 0-22.72l-67.84-67.84a143.36 143.36 0 0 0-102.08-40.32zM540.16 268.16a143.04 143.04 0 0 0-101.76 42.24 16 16 0 0 0 22.72 22.72 114.88 114.88 0 0 1 158.4 0l135.68 135.68a112 112 0 0 1-160 158.4l-67.84-67.84a16 16 0 0 0-22.72 0 16.32 16.32 0 0 0 0 22.72l67.84 67.84a144 144 0 1 0 203.84-203.84l-134.08-135.68a143.36 143.36 0 0 0-102.08-42.24z"  horiz-adv-x="1024" />

    
    <glyph glyph-name="field_binding_h" unicode="&#59010;" d="M347.84 76.16a143.04 143.04 0 0 0-101.76 41.92 144.64 144.64 0 0 0 0 203.84l135.68 135.68a144 144 0 0 0 203.84 0 16 16 0 0 0-22.72-22.72 114.88 114.88 0 0 1-158.4 0L268.8 299.2a112 112 0 0 1 158.4-160l67.84 67.84a16 16 0 0 0 22.72 0 16.32 16.32 0 0 0 0-22.72l-67.84-67.84a143.36 143.36 0 0 0-102.08-40.32zM540.16 268.16a143.04 143.04 0 0 0-101.76 42.24 16 16 0 0 0 22.72 22.72 114.88 114.88 0 0 1 158.4 0l135.68 135.68a112 112 0 0 1-160 158.4l-67.84-67.84a16 16 0 0 0-22.72 0 16.32 16.32 0 0 0 0 22.72l67.84 67.84a144 144 0 1 0 203.84-203.84l-134.08-135.68a143.36 143.36 0 0 0-102.08-42.24z"  horiz-adv-x="1024" />

    
    <glyph glyph-name="fault_center1" unicode="&#59011;" d="M146.285714 67.047619h926.476191a73.142857 73.142857 0 0 1 73.142857 73.142857v682.666667A73.142857 73.142857 0 0 1 1072.761905 896H146.285714a73.142857 73.142857 0 0 1-73.142857-73.142857v-682.666667A73.142857 73.142857 0 0 1 146.285714 67.047619zM121.904762 822.857143A24.380952 24.380952 0 0 0 146.285714 847.238095h926.476191a24.380952 24.380952 0 0 0 24.380952-24.380952v-682.666667a24.380952 24.380952 0 0 0-24.380952-24.380952H146.285714a24.380952 24.380952 0 0 0-24.380952 24.380952zM1194.666667-79.238095H24.380952a24.380952 24.380952 0 0 1 0-48.761905h1170.285715a24.380952 24.380952 0 0 1 0 48.761905zM355.961905 262.095238h507.123809a24.380952 24.380952 0 0 1 20.967619 36.571429l-253.561904 438.857143a25.35619 25.35619 0 0 1-42.422858 0l-253.561904-438.857143a24.380952 24.380952 0 0 1 21.455238-36.571429z m253.561905 414.476191l211.139047-365.714286H398.384762zM628.053333 579.047619h-39.009523a9.752381 9.752381 0 0 1-9.752381-9.752381L585.142857 442.514286a9.752381 9.752381 0 0 1 9.752381-9.752381h29.257143a9.752381 9.752381 0 0 1 9.752381 9.752381l3.900952 126.780952a9.752381 9.752381 0 0 1-9.752381 9.752381zM609.52381 384m-24.380953 0a24.380952 24.380952 0 1 1 48.761905 0 24.380952 24.380952 0 1 1-48.761905 0Z"  horiz-adv-x="1219" />

    
    <glyph glyph-name="field_delete_small_c" unicode="&#59012;" d="M400.213333 501.333333a21.333333 21.333333 0 0 1-21.333333-21.333333v-320a21.333333 21.333333 0 0 1 21.333333-21.333333 21.333333 21.333333 0 0 1 21.333334 21.333333v320a21.333333 21.333333 0 0 1-21.333334 21.333333zM864 629.333333H661.333333v64a64 64 0 0 1-64 64h-170.666666a64 64 0 0 1-64-64v-64H160a21.333333 21.333333 0 0 1 0-42.666666h106.666667v-426.666667a149.333333 149.333333 0 0 1 149.333333-149.333333h192a149.333333 149.333333 0 0 1 149.333333 149.333333v426.666667h106.666667a21.333333 21.333333 0 0 1 0 42.666666zM405.333333 693.333333a21.333333 21.333333 0 0 0 21.333334 21.333334h170.666666a21.333333 21.333333 0 0 0 21.333334-21.333334v-64h-213.333334z m309.333334-533.333333a106.666667 106.666667 0 0 0-106.666667-106.666667h-192a106.666667 106.666667 0 0 0-106.666667 106.666667v426.666667h405.333334zM512 501.333333a21.333333 21.333333 0 0 1-21.333333-21.333333v-320a21.333333 21.333333 0 0 1 42.666666 0v320a21.333333 21.333333 0 0 1-21.333333 21.333333zM624.213333 501.333333a21.333333 21.333333 0 0 1-21.333333-21.333333v-320a21.333333 21.333333 0 0 1 21.333333-21.333333 21.333333 21.333333 0 0 1 21.333334 21.333333v320a21.333333 21.333333 0 0 1-21.333334 21.333333z"  horiz-adv-x="1024" />

    
    <glyph glyph-name="field_config_h" unicode="&#59013;" d="M685.44 684.48L859.2 384l-173.76-300.48H338.56L164.8 384l173.76 300.48h346.88m18.56 32H320L128 384l192-332.48h384L896 384 704 716.48zM512 480a96 96 0 1 0-96-96 96 96 0 0 0 96 96m0 32a128 128 0 1 1 128-128 128 128 0 0 1-128 128z"  horiz-adv-x="1024" />

    
    <glyph glyph-name="field_config_c" unicode="&#59014;" d="M685.44 684.48L859.2 384l-173.76-300.48H338.56L164.8 384l173.76 300.48h346.88m18.56 32H320L128 384l192-332.48h384L896 384 704 716.48zM512 480a96 96 0 1 0-96-96 96 96 0 0 0 96 96m0 32a128 128 0 1 1 128-128 128 128 0 0 1-128 128z"  horiz-adv-x="1024" />

    
    <glyph glyph-name="field_delete_small_d" unicode="&#59015;" d="M400.213333 501.333333a21.333333 21.333333 0 0 1-21.333333-21.333333v-320a21.333333 21.333333 0 0 1 21.333333-21.333333 21.333333 21.333333 0 0 1 21.333334 21.333333v320a21.333333 21.333333 0 0 1-21.333334 21.333333zM864 629.333333H661.333333v64a64 64 0 0 1-64 64h-170.666666a64 64 0 0 1-64-64v-64H160a21.333333 21.333333 0 0 1 0-42.666666h106.666667v-426.666667a149.333333 149.333333 0 0 1 149.333333-149.333333h192a149.333333 149.333333 0 0 1 149.333333 149.333333v426.666667h106.666667a21.333333 21.333333 0 0 1 0 42.666666zM405.333333 693.333333a21.333333 21.333333 0 0 0 21.333334 21.333334h170.666666a21.333333 21.333333 0 0 0 21.333334-21.333334v-64h-213.333334z m309.333334-533.333333a106.666667 106.666667 0 0 0-106.666667-106.666667h-192a106.666667 106.666667 0 0 0-106.666667 106.666667v426.666667h405.333334zM512 501.333333a21.333333 21.333333 0 0 1-21.333333-21.333333v-320a21.333333 21.333333 0 0 1 42.666666 0v320a21.333333 21.333333 0 0 1-21.333333 21.333333zM624.213333 501.333333a21.333333 21.333333 0 0 1-21.333333-21.333333v-320a21.333333 21.333333 0 0 1 21.333333-21.333333 21.333333 21.333333 0 0 1 21.333334 21.333333v320a21.333333 21.333333 0 0 1-21.333334 21.333333z"  horiz-adv-x="1024" />

    
    <glyph glyph-name="field_edit_d" unicode="&#59016;" d="M512 48a336 336 0 0 0 0 672 16 16 0 0 0 0-32 304 304 0 1 1 304-304 16 16 0 0 0 32 0A336.32 336.32 0 0 0 512 48zM916.16 743.04c8 8 4.48 24.64-8 37.12s-29.12 16-37.12 8l-29.44-29.12 45.44-45.44zM812.48 729.6L462.08 379.52l-6.4-51.84 51.84 6.4L857.6 684.48 812.48 729.6z"  horiz-adv-x="1024" />

    
    <glyph glyph-name="field_edit_c" unicode="&#59017;" d="M512 48a336 336 0 0 0 0 672 16 16 0 0 0 0-32 304 304 0 1 1 304-304 16 16 0 0 0 32 0A336.32 336.32 0 0 0 512 48zM916.16 743.04c8 8 4.48 24.64-8 37.12s-29.12 16-37.12 8l-29.44-29.12 45.44-45.44zM812.48 729.6L462.08 379.52l-6.4-51.84 51.84 6.4L857.6 684.48 812.48 729.6z"  horiz-adv-x="1024" />

    
    <glyph glyph-name="field_delete_small_h" unicode="&#59018;" d="M400.213333 501.333333a21.333333 21.333333 0 0 1-21.333333-21.333333v-320a21.333333 21.333333 0 0 1 21.333333-21.333333 21.333333 21.333333 0 0 1 21.333334 21.333333v320a21.333333 21.333333 0 0 1-21.333334 21.333333zM864 629.333333H661.333333v64a64 64 0 0 1-64 64h-170.666666a64 64 0 0 1-64-64v-64H160a21.333333 21.333333 0 0 1 0-42.666666h106.666667v-426.666667a149.333333 149.333333 0 0 1 149.333333-149.333333h192a149.333333 149.333333 0 0 1 149.333333 149.333333v426.666667h106.666667a21.333333 21.333333 0 0 1 0 42.666666zM405.333333 693.333333a21.333333 21.333333 0 0 0 21.333334 21.333334h170.666666a21.333333 21.333333 0 0 0 21.333334-21.333334v-64h-213.333334z m309.333334-533.333333a106.666667 106.666667 0 0 0-106.666667-106.666667h-192a106.666667 106.666667 0 0 0-106.666667 106.666667v426.666667h405.333334zM512 501.333333a21.333333 21.333333 0 0 1-21.333333-21.333333v-320a21.333333 21.333333 0 0 1 42.666666 0v320a21.333333 21.333333 0 0 1-21.333333 21.333333zM624.213333 501.333333a21.333333 21.333333 0 0 1-21.333333-21.333333v-320a21.333333 21.333333 0 0 1 21.333333-21.333333 21.333333 21.333333 0 0 1 21.333334 21.333333v320a21.333333 21.333333 0 0 1-21.333334 21.333333z"  horiz-adv-x="1024" />

    
    <glyph glyph-name="field_edit_h" unicode="&#59019;" d="M512 48a336 336 0 0 0 0 672 16 16 0 0 0 0-32 304 304 0 1 1 304-304 16 16 0 0 0 32 0A336.32 336.32 0 0 0 512 48zM916.16 743.04c8 8 4.48 24.64-8 37.12s-29.12 16-37.12 8l-29.44-29.12 45.44-45.44zM812.48 729.6L462.08 379.52l-6.4-51.84 51.84 6.4L857.6 684.48 812.48 729.6z"  horiz-adv-x="1024" />

    
    <glyph glyph-name="field_unbinding_d" unicode="&#59020;" d="M666.56 341.44a16.32 16.32 0 0 0-11.52 4.8 16 16 0 0 0 0 22.4l96 96a112 112 0 0 1-160 158.4l-94.08-94.08a16 16 0 0 0-22.72 0 15.36 15.36 0 0 0 0 22.4l94.4 94.4a144 144 0 0 0 203.52-203.52l-94.4-94.4a15.68 15.68 0 0 0-11.2-6.4zM353.6 81.6a144 144 0 0 0-101.76 245.76l96 94.4a16 16 0 0 0 22.72 0 16 16 0 0 0 0-22.4l-96-94.4a112 112 0 0 1 158.4-160l94.08 94.08a16 16 0 0 0 22.72 0 15.36 15.36 0 0 0 0-22.4l-94.4-94.4a143.04 143.04 0 0 0-101.76-40.64zM768 112a15.04 15.04 0 0 0-11.2 4.8l-512 512a15.68 15.68 0 0 0 22.4 22.4l512-512a15.36 15.36 0 0 0 0-22.4 15.04 15.04 0 0 0-11.2-4.8z"  horiz-adv-x="1024" />

    
    <glyph glyph-name="field_delete_disabled" unicode="&#59021;" d="M400.213333 501.333333a21.333333 21.333333 0 0 1-21.333333-21.333333v-320a21.333333 21.333333 0 0 1 21.333333-21.333333 21.333333 21.333333 0 0 1 21.333334 21.333333v320a21.333333 21.333333 0 0 1-21.333334 21.333333zM864 629.333333H661.333333v64a64 64 0 0 1-64 64h-170.666666a64 64 0 0 1-64-64v-64H160a21.333333 21.333333 0 0 1 0-42.666666h106.666667v-426.666667a149.333333 149.333333 0 0 1 149.333333-149.333333h192a149.333333 149.333333 0 0 1 149.333333 149.333333v426.666667h106.666667a21.333333 21.333333 0 0 1 0 42.666666zM405.333333 693.333333a21.333333 21.333333 0 0 0 21.333334 21.333334h170.666666a21.333333 21.333333 0 0 0 21.333334-21.333334v-64h-213.333334z m309.333334-533.333333a106.666667 106.666667 0 0 0-106.666667-106.666667h-192a106.666667 106.666667 0 0 0-106.666667 106.666667v426.666667h405.333334zM512 501.333333a21.333333 21.333333 0 0 1-21.333333-21.333333v-320a21.333333 21.333333 0 0 1 42.666666 0v320a21.333333 21.333333 0 0 1-21.333333 21.333333zM624.213333 501.333333a21.333333 21.333333 0 0 1-21.333333-21.333333v-320a21.333333 21.333333 0 0 1 21.333333-21.333333 21.333333 21.333333 0 0 1 21.333334 21.333333v320a21.333333 21.333333 0 0 1-21.333334 21.333333z"  horiz-adv-x="1024" />

    
    <glyph glyph-name="filter_fields_c" unicode="&#59022;" d="M560 96a16 16 0 0 0-16 16V384a15.04 15.04 0 0 0 4.8 11.2L729.28 576H294.72l180.48-180.8A15.04 15.04 0 0 0 480 384v-208a16 16 0 0 0-32 0v201.28l-176 176A32 32 0 0 0 294.72 608h434.56a32 32 0 0 0 22.72-54.72l-176-176v-265.28a16 16 0 0 0-16-16z"  horiz-adv-x="1024" />

    
    </font>
</defs>
</svg>
