<svg xmlns="http://www.w3.org/2000/svg" viewBox="0 0 24 19"><defs><style>.cls-1{fill:#999;}</style></defs><title>资源 24</title><g id="图层_2" data-name="图层 2"><g id="_编组_" data-name="&lt;编组&gt;"><path class="cls-1" d="M22.4,0H1.6A1.61,1.61,0,0,0,0,1.63V17.38A1.61,1.61,0,0,0,1.6,19H22.4A1.61,1.61,0,0,0,24,17.38V1.63A1.61,1.61,0,0,0,22.4,0ZM1,1.63A.61.61,0,0,1,1.6,1H22.4a.61.61,0,0,1,.6.63V14H1ZM23,17.38a.61.61,0,0,1-.6.63H1.6a.61.61,0,0,1-.6-.62V15H23Z"/><path class="cls-1" d="M14.75,5.76a.5.5,0,1,0-.5.87L17.5,8.5l-3.25,1.88a.5.5,0,0,0,.5.87l4-2.31a.5.5,0,0,0,0-.87Z"/><path class="cls-1" d="M9.93,5.94a.5.5,0,0,0-.68-.18l-4,2.31a.5.5,0,0,0,0,.87l4,2.31a.5.5,0,0,0,.5-.87L6.5,8.5,9.75,6.62A.5.5,0,0,0,9.93,5.94Z"/><path class="cls-1" d="M12.91,5a.5.5,0,0,0-.61.35l-1.55,5.8a.5.5,0,1,0,1,.26l1.55-5.8A.5.5,0,0,0,12.91,5Z"/></g></g></svg>