<?xml version="1.0" standalone="no"?><!DOCTYPE svg PUBLIC "-//W3C//DTD SVG 1.1//EN" "http://www.w3.org/Graphics/SVG/1.1/DTD/svg11.dtd"><svg t="1550642173777" class="icon" style="" viewBox="0 0 1024 1024" version="1.1" xmlns="http://www.w3.org/2000/svg" p-id="2673" xmlns:xlink="http://www.w3.org/1999/xlink" width="200" height="200"><defs><style type="text/css"></style></defs><path d="M992.6 404.1l-94.7 0c-8.7-31.3-21-61-36.6-88.7l66.9-66.9c12.2-12.2 12.2-32.2 0-44.5L820 95.9c-6.1-6.1-14.2-9.2-22.2-9.2s-16.1 3.1-22.2 9.2l-66.9 66.9c-27.7-15.6-57.4-27.9-88.7-36.6L620 31.4c0-17.3-14.2-31.4-31.4-31.4L435.6 0c-17.3 0-31.4 14.2-31.4 31.4l0 94.7c-31.3 8.7-61 21-88.7 36.6l-66.9-66.9c-6.1-6.1-14.2-9.2-22.2-9.2s-16.1 3.1-22.2 9.2L95.9 204c-12.2 12.2-12.2 32.2 0 44.5l66.9 66.9c-15.6 27.7-27.9 57.4-36.6 88.7L31.4 404.1C14.2 404.1 0 418.3 0 435.6l0 152.9c0 17.3 14.2 31.4 31.4 31.4l94.7 0c8.7 31.3 21 61 36.6 88.7l-66.9 66.9c-12.2 12.2-12.2 32.2 0 44.5L204 928.1c6.1 6.1 14.2 9.2 22.2 9.2s16.1-3.1 22.2-9.2l66.9-66.9c27.7 15.6 57.4 27.9 88.7 36.6l0 94.7c0 17.3 14.2 31.4 31.4 31.4l152.9 0c17.3 0 31.4-14.2 31.4-31.4l0-94.7c31.3-8.7 61-21 88.7-36.6l66.9 66.9c6.1 6.1 14.2 9.2 22.2 9.2s16.1-3.1 22.2-9.2L928.1 820c12.2-12.2 12.2-32.2 0-44.5l-66.9-66.9c15.6-27.7 27.9-57.4 36.6-88.7l94.7 0c17.3 0 31.4-14.2 31.4-31.4L1023.9 435.6C1024 418.3 1009.9 404.1 992.6 404.1zM960 555.9l-62.2 0-48.6 0-13.1 46.8c-7.3 26.3-17.7 51.4-30.7 74.5l-23.9 42.3 34.4 34.4 43.9 43.9-62.1 62.1-43.9-43.9-34.4-34.4-42.3 23.9c-23.1 13-48.2 23.4-74.5 30.7l-46.8 13.1 0 48.6L555.8 960l-87.8 0 0-62.2 0-48.6-46.8-13.1c-26.3-7.3-51.4-17.7-74.5-30.7l-42.3-23.9-34.4 34.4-43.9 43.9-62.1-62.1 43.9-43.9 34.4-34.4-23.9-42.3c-13-23.1-23.4-48.2-30.7-74.5l-13.1-46.8-48.6 0L64 555.8l0-87.8 62.2 0 48.6 0 13.1-46.8c7.3-26.3 17.7-51.4 30.7-74.5l23.9-42.3-34.4-34.4-43.9-43.9 62.1-62.1 43.9 43.9 34.4 34.4 42.3-23.9c23.1-13 48.2-23.4 74.5-30.7l46.8-13.1 0-48.6L468.2 64l87.8 0 0 62.2 0 48.6 46.8 13.1c26.3 7.3 51.4 17.7 74.5 30.7l42.3 23.9 34.4-34.4 43.9-43.9 62.1 62.1-43.9 43.9-34.4 34.4 23.9 42.3c13 23.1 23.4 48.2 30.7 74.5l13.1 46.8 48.6 0L960 468.2 960 555.9z" p-id="2674"></path><path d="M512 320c-106 0-192 86-192 192 0 106 86 192 192 192 106 0 192-86 192-192C704 406 618 320 512 320zM602.5 602.5C578.3 626.7 546.2 640 512 640c-34.2 0-66.3-13.3-90.5-37.5C397.3 578.3 384 546.2 384 512c0-34.2 13.3-66.3 37.5-90.5 24.2-24.2 56.3-37.5 90.5-37.5 34.2 0 66.3 13.3 90.5 37.5 24.2 24.2 37.5 56.3 37.5 90.5C640 546.2 626.7 578.3 602.5 602.5z" p-id="2675"></path></svg>