<?xml version="1.0" standalone="no"?><!DOCTYPE svg PUBLIC "-//W3C//DTD SVG 1.1//EN" "http://www.w3.org/Graphics/SVG/1.1/DTD/svg11.dtd"><svg t="1548040950764" class="icon" style="" viewBox="0 0 1024 1024" version="1.1" xmlns="http://www.w3.org/2000/svg" p-id="1640" xmlns:xlink="http://www.w3.org/1999/xlink" width="200" height="200"><defs><style type="text/css"></style></defs><path d="M932 292.8l-262.8-264.4c-18.1-18.2-42.7-28.4-68.3-28.4L108 0c-59.7 0-108 48.4-108 108l0 808c0 59.7 48.4 108 108 108l744 0c59.7 0 108-48.4 108-108L960 360.7C960 335.2 949.9 310.8 932 292.8zM896 916c0 24.3-19.7 44-44 44L108 960c-24.3 0-44-19.7-44-44l0-808c0-24.3 19.7-44 44-44l492.9 0c8.5 0 16.9 3.5 22.9 9.5l262.8 264.4c6.1 6.1 9.4 14.2 9.4 22.8L896 916z" p-id="1641"></path><path d="M736 511 512.1 511l0-223c0-17.7-14.3-32-32-32s-32 14.3-32 32l0 223L224 511c-17.7 0-32 14.3-32 32s14.3 32 32 32l224.1 0 0 225c0 17.7 14.3 32 32 32s32-14.3 32-32l0-225L736 575c17.7 0 32-14.3 32-32S753.7 511 736 511z" p-id="1642"></path></svg>