<svg xmlns="http://www.w3.org/2000/svg" viewBox="0 0 24 24"><defs><style>.cls-1{fill:none;}.cls-2{fill:#3d65c9;}</style></defs><title>btn_h_数据探查</title><g id="图层_2" data-name="图层 2"><g id="抽屉"><rect class="cls-1" width="24" height="24"/><circle class="cls-1" cx="17.59" cy="18" r="3.5"/><path class="cls-2" d="M23.85,23.06l-2.54-2.54a4.63,4.63,0,1,0-.66.75l2.49,2.49a.5.5,0,0,0,.71-.71ZM17.59,21.5a3.5,3.5,0,1,1,3.5-3.5A3.5,3.5,0,0,1,17.59,21.5Z"/><path class="cls-2" d="M11.59,19.5H5.09V4.5h9.29l3.71,3.71V11.5a.5.5,0,0,0,1,0V8a.5.5,0,0,0-.15-.35l-4-4a.5.5,0,0,0-.35-.15h-10a.5.5,0,0,0-.5.5V20a.5.5,0,0,0,.5.5h7a.5.5,0,0,0,0-1Z"/><path class="cls-2" d="M15.59,8H7.09a.5.5,0,0,0,0,1h8.5a.5.5,0,0,0,0-1Z"/><path class="cls-2" d="M15.59,11H7.09a.5.5,0,0,0,0,1h8.5a.5.5,0,0,0,0-1Z"/><path class="cls-2" d="M11.59,14H7.09a.5.5,0,0,0,0,1h4.5a.5.5,0,0,0,0-1Z"/></g></g></svg>