<svg xmlns="http://www.w3.org/2000/svg" viewBox="0 0 22 16"><defs><style>.cls-1{fill:#0f32b5;}</style></defs><title>资源 19.1</title><g id="图层_2" data-name="图层 2"><g id="_编组_" data-name="&lt;编组&gt;"><path id="数据流程" class="cls-1" d="M21,8H17.5V6.51A.5.5,0,0,0,17,6H5a.5.5,0,0,0-.5.5V7H1V2H4.5V3.5A.5.5,0,0,0,5,4H17a.5.5,0,0,0,.5-.5V2H21a.5.5,0,0,0,0-1H17.5V.5A.5.5,0,0,0,17,0H5a.5.5,0,0,0-.5.5V1H1A1,1,0,0,0,0,2V7A1,1,0,0,0,1,8H4.5V9.51A.5.5,0,0,0,5,10H17a.5.5,0,0,0,.5-.5V9H21v5H17.5V12.5A.5.5,0,0,0,17,12H5a.5.5,0,0,0-.5.5V14H1a.5.5,0,0,0,0,1H4.5v.5A.5.5,0,0,0,5,16H17a.5.5,0,0,0,.5-.5V15H21a1,1,0,0,0,1-1V9A1,1,0,0,0,21,8ZM16.5,1V3H8V1ZM5.5,1H7V3H5.5Zm0,6H7V9H5.5Zm11,2H8V7h8.5Zm-11,6V13H7v2Zm11,0H8V13h8.5Z"/></g></g></svg>