<svg xmlns="http://www.w3.org/2000/svg" viewBox="0 0 18 18"><defs><style>.cls-1{fill:none;}.cls-2{fill:#6484d4;}</style></defs><title>btn_h_delete</title><g id="图层_2" data-name="图层 2"><g id="标注_添加流" data-name="标注—添加流"><rect class="cls-1" width="18" height="18"/><path class="cls-1" d="M6.75,5.63H4.87V15A1.13,1.13,0,0,0,6,16.12h6A1.12,1.12,0,0,0,13.12,15V5.63H6.75Zm.37,8.62a.37.37,0,0,1-.37.38.38.38,0,0,1-.38-.38v-6a.37.37,0,0,1,.38-.37.36.36,0,0,1,.37.37Zm2.25,0a.37.37,0,0,1-.37.38.38.38,0,0,1-.38-.38v-6A.37.37,0,0,1,9,7.88a.36.36,0,0,1,.37.37Zm2.25-6v6a.37.37,0,0,1-.37.38.38.38,0,0,1-.38-.38v-6a.37.37,0,0,1,.38-.37A.36.36,0,0,1,11.62,8.25Z"/><path class="cls-1" d="M10.87,4.12A1.12,1.12,0,0,0,9.75,3H8.25A1.13,1.13,0,0,0,7.12,4.12v.75h3.75Z"/><path class="cls-2" d="M15.75,4.87H11.62V4.12A1.87,1.87,0,0,0,9.75,2.25H8.25A1.88,1.88,0,0,0,6.37,4.12v.75H2.25a.38.38,0,0,0,0,.76H4.12V15A1.89,1.89,0,0,0,6,16.88h6A1.88,1.88,0,0,0,13.87,15V5.63h1.88a.38.38,0,0,0,0-.76ZM7.12,4.12A1.13,1.13,0,0,1,8.25,3h1.5a1.12,1.12,0,0,1,1.12,1.12v.75H7.12Zm6,10.88A1.12,1.12,0,0,1,12,16.12H6A1.13,1.13,0,0,1,4.87,15V5.63h8.25Z"/><path class="cls-2" d="M9,7.88a.37.37,0,0,0-.38.37v6a.38.38,0,0,0,.38.38.37.37,0,0,0,.37-.38v-6A.36.36,0,0,0,9,7.88Z"/><path class="cls-2" d="M6.75,7.88a.37.37,0,0,0-.38.37v6a.38.38,0,0,0,.38.38.37.37,0,0,0,.37-.38v-6A.36.36,0,0,0,6.75,7.88Z"/><path class="cls-2" d="M10.87,8.25v6a.38.38,0,0,0,.38.38.37.37,0,0,0,.37-.38v-6a.36.36,0,0,0-.37-.37A.37.37,0,0,0,10.87,8.25Z"/></g></g></svg>