<svg xmlns="http://www.w3.org/2000/svg" viewBox="0 0 24 21"><defs><style>.cls-1{fill:#0f32b5;}</style></defs><title>资源 37.1</title><g id="图层_2" data-name="图层 2"><g id="图层_4" data-name="图层 4"><g id="_编组_" data-name="&lt;编组&gt;"><path class="cls-1" d="M22.5,1H10V.5A.5.5,0,0,0,9.5,0h-5A.5.5,0,0,0,4,.5V1H1.5A1.5,1.5,0,0,0,0,2.5v17A1.5,1.5,0,0,0,1.5,21h21A1.5,1.5,0,0,0,24,19.5V2.5A1.5,1.5,0,0,0,22.5,1Zm0,1a.5.5,0,0,1,.5.5V8H10V2Zm0,7v1h-12V9ZM9,1v.5H9V3.88H5V1ZM8.88,4.88v5H5.13v-5ZM1,19.5V2.5A.5.5,0,0,1,1.5,2H4V20H1.5A.5.5,0,0,1,1,19.5ZM5,20V10.88H9V20Zm18-.5a.5.5,0,0,1-.5.5H10V11H23Z"/></g></g></g></svg>