<?xml version="1.0" standalone="no"?><!DOCTYPE svg PUBLIC "-//W3C//DTD SVG 1.1//EN" "http://www.w3.org/Graphics/SVG/1.1/DTD/svg11.dtd"><svg t="1546931473784" class="icon" style="" viewBox="0 0 1025 1024" version="1.1" xmlns="http://www.w3.org/2000/svg" p-id="3209" xmlns:xlink="http://www.w3.org/1999/xlink" width="200.1953125" height="200"><defs><style type="text/css"></style></defs><path d="M512.016875 999.03122" p-id="3210"></path><path d="M512.016875 0C229.23403 0 0 229.23403 0 512.016875c0 282.749095 229.23403 511.983125 512.016875 511.983125 282.764095 0 512.006875-229.22403 512.006875-511.983125C1024.03 229.23403 794.79097 0 512.016875 0zM774.580946 708.394615c-1.680002 4.882506-4.785006 13.926267-13.980017 13.931267-5.586257 0-9.912512-3.763755-13.393766-7.460009-17.753772-18.741273-36.601295-37.187545-54.828817-55.021317l-0.922501-0.908751c-8.02251-7.84126-16.29377-9.951262-25.478781-6.455008-8.725011 3.310004-13.535017 9.400011-14.712518 18.633773-1.060001 8.04626 1.865002 14.965018 9.462512 22.455027 14.203767 13.988767 28.335035 28.051284 42.725052 42.372552l27.295033 27.150033-11.245014 5.883757c-14.551268 7.607509-30.136287 11.460014-46.318807 11.460014-53.066315 0-98.07637-40.293799-104.692628-93.731364-1.997502-16.11252-0.863751-29.941287 3.466254-42.270052 0.3175-0.903751 0.35625-1.352502 0.36125-1.465002-0.04875 0-0.37625-0.522501-1.488752-1.641252-69.516335-69.252585-131.13766-130.84391-188.40773-188.31023-1.456252-1.465002-1.851252-1.465002-2.007502-1.465002-0.4 0-1.181251 0.0875-2.636253 0.498751-9.336261 2.616253-18.960023 3.960005-28.603785 3.960005l-0.005 0c-50.220061 0-93.828865-35.542543-103.716377-84.512603-4.833756-23.978779-2.338753-46.015056 7.436259-65.50258l2.130003-4.252505 4.701256-0.762501c8.813761-1.411252 13.037516 4.331255 14.805018 6.592508 0.18625 0.23875 0.35625 0.482501 0.551251 0.682501 8.14001 8.05751 16.27002 16.19627 24.40503 24.34128 10.278763 10.292513 20.556275 20.581275 30.942538 30.771288 11.723764 11.508764 25.122531 12.705016 35.292543 2.715003 4.731256-4.648756 7.080009-10.297513 6.802508-16.31877-0.29875-6.463758-3.516254-12.987516-9.297511-18.856273-13.978767-14.218767-28.125034-28.291285-42.710052-42.822552l-29.272536-29.200036 12.935016-5.302506c16.45502-6.737508 31.811289-10.018762 46.957557-10.018762 16.41127 0 32.50504 4.047505 47.822558 12.031265 44.297554 23.100028 66.518831 74.540091 52.822564 122.328899-0.825001 2.871254-0.840001 2.925004 1.655002 5.405007 51.592563 51.411313 119.438896 119.096395 186.723978 186.747728 1.841252 1.850002 2.500003 1.850002 3.203754 1.850002 0.878751 0 2.113753-0.19375 3.793755-0.596251 9.810012-2.333753 19.487524-3.516254 28.735035-3.516254 29.912537 0 55.840068 11.945015 77.070094 35.493793C780.269702 633.594523 787.739712 669.927068 774.580946 708.394615z" p-id="3211"></path></svg>