<svg xmlns="http://www.w3.org/2000/svg" viewBox="0 0 384 264"><defs><style>.cls-1{fill:none;}.cls-2{fill:#f4f4f4;}.cls-3{fill:#e6e6e6;}.cls-4{fill:#ccc;}.cls-5{fill:#999;}</style></defs><title>空白页</title><g id="图层_2" data-name="图层 2"><g id="消息中心"><rect class="cls-1" width="384" height="264"/><ellipse class="cls-2" cx="68.23" cy="57.75" rx="8.23" ry="7.92"/><ellipse class="cls-2" cx="320.23" cy="42.24" rx="3.09" ry="2.97"/><ellipse class="cls-2" cx="325.03" cy="143.22" rx="4.46" ry="4.29"/><path class="cls-2" d="M298,169.3c12.13-14.72,19.15-32.15,19.15-50.83,0-52.79-56-95.58-125.13-95.58S66.87,65.68,66.87,118.47c0,33.15,22.09,62.35,55.63,79.49a11.21,11.21,0,0,0-7,10.27,11.67,11.67,0,0,0,23.31,0,10.82,10.82,0,0,0-.55-3.4A157.44,157.44,0,0,0,192,214.05c29.3,0,56.24-7.69,77.56-20.58A20.52,20.52,0,0,0,289,206.91c11.36,0,20.57-8.86,20.57-19.8A19.74,19.74,0,0,0,298,169.3Z"/><ellipse class="cls-2" cx="323.31" cy="166.65" rx="8.23" ry="7.92"/><ellipse class="cls-2" cx="51.09" cy="187.11" rx="12.34" ry="11.88"/><ellipse class="cls-2" cx="46.97" cy="152.79" rx="4.11" ry="3.96"/><ellipse class="cls-2" cx="282.86" cy="33.33" rx="5.49" ry="5.28"/><ellipse class="cls-2" cx="331.54" cy="80.19" rx="5.49" ry="5.28"/><rect class="cls-1" x="133.66" y="47.21" width="116.69" height="141.2" rx="14" ry="14"/><path class="cls-3" d="M236.34,43.21H147.66a18,18,0,0,0-18,18v113.2a18,18,0,0,0,18,18h88.69a18,18,0,0,0,18-18V61.21A18,18,0,0,0,236.34,43.21Zm14,131.2a14,14,0,0,1-14,14H147.66a14,14,0,0,1-14-14V61.21a14,14,0,0,1,14-14h88.69a14,14,0,0,1,14,14Z"/><path class="cls-3" d="M242.08,67.65H141.92a.66.66,0,1,1,0-1.32H242.08a.66.66,0,1,1,0,1.32Z"/><g id="按钮块"><rect class="cls-3" x="146.14" y="53.13" width="19.2" height="9.24" rx="3.45" ry="3.45"/><rect class="cls-3" x="166.9" y="53.13" width="19.2" height="9.24" rx="3.45" ry="3.45"/><rect class="cls-3" x="188.28" y="53.13" width="19.2" height="9.24" rx="3.45" ry="3.45"/></g><g id="文字块"><rect class="cls-3" x="142.63" y="77.55" width="98.74" height="5.28" rx="1.97" ry="1.97"/><rect class="cls-3" x="142.63" y="90.75" width="98.74" height="5.28" rx="1.97" ry="1.97"/><rect class="cls-3" x="142.63" y="103.95" width="98.74" height="5.28" rx="1.97" ry="1.97"/><rect class="cls-3" x="142.63" y="117.15" width="98.74" height="5.28" rx="1.97" ry="1.97"/><rect class="cls-3" x="142.63" y="130.35" width="98.74" height="5.28" rx="1.97" ry="1.97"/><rect class="cls-3" x="142.63" y="143.55" width="98.74" height="5.28" rx="1.97" ry="1.97"/><rect class="cls-3" x="142.63" y="156.75" width="64.46" height="5.28" rx="1.97" ry="1.97"/></g><path id="椭圆2" class="cls-1" d="M219.53,102.63a28.66,28.66,0,0,1-.2,3.42,29.06,29.06,0,0,1-2.23,8.22,29.53,29.53,0,0,1-4.16,6.85,32.05,32.05,0,0,1-49.43,0,29.53,29.53,0,0,1-4.16-6.85,29.06,29.06,0,0,1-2.23-8.22,29.28,29.28,0,0,1,.79-11,29.2,29.2,0,0,1,3.63-8.22,30.38,30.38,0,0,1,6-6.85,32.19,32.19,0,0,1,41.39,0,30.38,30.38,0,0,1,6,6.85,29.16,29.16,0,0,1,4.62,15.75Z"/><path class="cls-4" d="M188.23,68.61c-19.43,0-35.23,15.26-35.23,34s15.8,34,35.23,34,35.23-15.26,35.23-34S207.65,68.61,188.23,68.61Zm0,4A31.75,31.75,0,0,1,208.82,80H167.64A31.75,31.75,0,0,1,188.23,72.57Zm-26.6,14.31h53.2a29.46,29.46,0,0,1,3.64,8.22H158A29.46,29.46,0,0,1,161.63,86.88ZM219.26,106a28.91,28.91,0,0,1-2.23,8.22h-57.6A28.91,28.91,0,0,1,157.2,106Zm-31,26.64a31.6,31.6,0,0,1-24.62-11.57h49.24A31.6,31.6,0,0,1,188.23,132.69Z"/><path class="cls-5" d="M194.66,115.39l9.28-1.09L182.07,98.35l3.4,26.21,5.63-7.19,5.64,9.41a2.07,2.07,0,0,0,1.78,1,2.11,2.11,0,0,0,1-.27,1.94,1.94,0,0,0,.75-2.7Z"/><g id="页码块"><rect class="cls-3" x="142.97" y="169.95" width="6.86" height="6.6" rx="2" ry="2"/><rect class="cls-3" x="156" y="169.95" width="6.86" height="6.6" rx="2" ry="2"/><rect class="cls-3" x="169.03" y="169.95" width="6.86" height="6.6" rx="2" ry="2"/><rect class="cls-3" x="182.06" y="169.95" width="6.86" height="6.6" rx="2" ry="2"/><rect class="cls-3" x="195.09" y="169.95" width="6.86" height="6.6" rx="2" ry="2"/><rect class="cls-3" x="208.11" y="169.95" width="6.86" height="6.6" rx="2" ry="2"/><rect class="cls-3" x="221.14" y="169.95" width="6.86" height="6.6" rx="2" ry="2"/><rect class="cls-3" x="234.17" y="169.95" width="6.86" height="6.6" rx="2" ry="2"/></g></g></g></svg>
