<svg xmlns="http://www.w3.org/2000/svg" viewBox="0 0 25 21"><defs><style>.cls-1{fill:#999;}</style></defs><title>资源 38</title><g id="图层_2" data-name="图层 2"><g id="图层_4" data-name="图层 4"><g id="_编组_" data-name="&lt;编组&gt;"><path class="cls-1" d="M3,17H22a1.5,1.5,0,0,0,1.5-1.5V1.5A1.5,1.5,0,0,0,22,0H3A1.5,1.5,0,0,0,1.5,1.5v14A1.5,1.5,0,0,0,3,17ZM2.5,1.5A.5.5,0,0,1,3,1H22a.5.5,0,0,1,.5.5v14a.5.5,0,0,1-.5.5H3a.5.5,0,0,1-.5-.5Z"/><path class="cls-1" d="M24.5,20H.5a.5.5,0,0,0,0,1h24a.5.5,0,0,0,0-1Z"/><path class="cls-1" d="M7.3,13H17.7a.5.5,0,0,0,.43-.75l-5.2-9a.52.52,0,0,0-.87,0l-5.2,9A.5.5,0,0,0,7.3,13Zm5.2-8.5L16.83,12H8.17Z"/><path class="cls-1" d="M12.88,6.5h-.8a.2.2,0,0,0-.2.2L12,9.3a.2.2,0,0,0,.2.2h.6a.2.2,0,0,0,.2-.2l.08-2.6A.2.2,0,0,0,12.88,6.5Z"/><circle class="cls-1" cx="12.5" cy="10.5" r="0.5"/></g></g></g></svg>