<svg xmlns="http://www.w3.org/2000/svg" viewBox="0 0 32 32"><defs><style>.cls-1{fill:none;}.cls-2{fill:#123ecc;}</style></defs><title>btn_h_修改_1</title><g id="图层_2" data-name="图层 2"><g id="弹窗_表不解析" data-name="弹窗—表不解析"><rect class="cls-1" width="32" height="32"/><path class="cls-2" d="M16,26.5a10.5,10.5,0,0,1,0-21,.5.5,0,0,1,0,1A9.5,9.5,0,1,0,25.5,16a.5.5,0,0,1,1,0A10.51,10.51,0,0,1,16,26.5Z"/><path class="cls-2" d="M28.63,4.78c.25-.25.14-.77-.25-1.16s-.91-.5-1.16-.25l-.92.91L27.72,5.7Z"/><polygon class="cls-2" points="25.39 5.2 14.44 16.14 14.24 17.76 15.86 17.56 26.8 6.61 25.39 5.2"/></g></g></svg>