<svg xmlns="http://www.w3.org/2000/svg" viewBox="0 0 32 32"><defs><style>.cls-1{fill:none;}.cls-2{fill:#4773e2;}</style></defs><title>btn_h_未绑定</title><g id="图层_2" data-name="图层 2"><g id="弹窗_表解析" data-name="弹窗—表解析"><rect class="cls-1" width="32" height="32"/><path class="cls-2" d="M20.83,17.33a.51.51,0,0,1-.36-.15.5.5,0,0,1,0-.7l3-3a3.5,3.5,0,0,0-5-4.95l-2.94,2.94a.5.5,0,0,1-.71,0,.48.48,0,0,1,0-.7l2.95-2.95a4.5,4.5,0,0,1,6.36,6.36l-2.95,2.95A.49.49,0,0,1,20.83,17.33Z"/><path class="cls-2" d="M11.05,25.45a4.5,4.5,0,0,1-3.18-7.68l3-2.95a.5.5,0,0,1,.71,0,.5.5,0,0,1,0,.7L8.58,18.47a3.5,3.5,0,0,0,4.95,5l2.94-2.94a.5.5,0,0,1,.71,0,.48.48,0,0,1,0,.7l-2.95,2.95A4.47,4.47,0,0,1,11.05,25.45Z"/><path class="cls-2" d="M24,24.5a.47.47,0,0,1-.35-.15l-16-16a.49.49,0,0,1,.7-.7l16,16a.48.48,0,0,1,0,.7A.47.47,0,0,1,24,24.5Z"/></g></g></svg>