<svg xmlns="http://www.w3.org/2000/svg" viewBox="0 0 32 32"><defs><style>.cls-1{fill:none;}.cls-2{fill:#999;}</style></defs><title>btn_d_大号_删除</title><g id="图层_2" data-name="图层 2"><g id="添加字段"><rect class="cls-1" width="32" height="32"/><path class="cls-2" d="M12.5,12.5a.5.5,0,0,0-.5.5V23a.5.5,0,0,0,1,0V13A.5.5,0,0,0,12.5,12.5Z"/><path class="cls-2" d="M27,8.5H20.5V6A1.5,1.5,0,0,0,19,4.5H13A1.5,1.5,0,0,0,11.5,6V8.5H5a.5.5,0,0,0,0,1H8.5V24A3.5,3.5,0,0,0,12,27.5h8A3.5,3.5,0,0,0,23.5,24V9.5H27a.5.5,0,0,0,0-1ZM12.5,6a.5.5,0,0,1,.5-.5h6a.5.5,0,0,1,.5.5V8.5h-7Zm10,18A2.5,2.5,0,0,1,20,26.5H12A2.5,2.5,0,0,1,9.5,24V9.5h13Z"/><path class="cls-2" d="M16,12.5a.5.5,0,0,0-.5.5V23a.5.5,0,0,0,1,0V13A.5.5,0,0,0,16,12.5Z"/><path class="cls-2" d="M19.5,12.5a.5.5,0,0,0-.5.5V23a.5.5,0,0,0,1,0V13A.5.5,0,0,0,19.5,12.5Z"/></g></g></svg>