<svg xmlns="http://www.w3.org/2000/svg" viewBox="0 0 32 32"><defs><style>.cls-1{fill:none;}.cls-2{fill:#2b5bd6;}</style></defs><title>btn_d_绑定</title><g id="图层_2" data-name="图层 2"><g id="弹窗_表解析" data-name="弹窗—表解析"><rect class="cls-1" width="32" height="32"/><path class="cls-2" d="M10.87,25.62a4.47,4.47,0,0,1-3.18-1.31,4.52,4.52,0,0,1,0-6.37l4.24-4.24a4.5,4.5,0,0,1,6.37,0,.5.5,0,0,1-.71.71,3.59,3.59,0,0,0-4.95,0L8.4,18.65a3.5,3.5,0,0,0,4.95,5l2.12-2.12a.5.5,0,0,1,.71,0,.51.51,0,0,1,0,.71l-2.12,2.12A4.48,4.48,0,0,1,10.87,25.62Z"/><path class="cls-2" d="M16.88,19.62A4.47,4.47,0,0,1,13.7,18.3a.5.5,0,0,1,.71-.71,3.59,3.59,0,0,0,4.95,0l4.24-4.24a3.5,3.5,0,0,0-5-4.95l-2.12,2.12a.5.5,0,0,1-.71,0,.51.51,0,0,1,0-.71l2.12-2.12a4.5,4.5,0,1,1,6.37,6.37L20.07,18.3A4.48,4.48,0,0,1,16.88,19.62Z"/></g></g></svg>