<svg xmlns="http://www.w3.org/2000/svg" viewBox="0 0 32 32"><defs><style>.cls-1{fill:none;}.cls-2{fill:#123ecc;}</style></defs><title>btn_table_c_筛选</title><g id="图层_2" data-name="图层 2"><g id="交互_元数据管理" data-name="交互—元数据管理"><rect class="cls-1" width="32" height="32"/><path class="cls-2" d="M17.5,25a.5.5,0,0,1-.5-.5V16a.47.47,0,0,1,.15-.35L22.79,10H9.21l5.64,5.65A.47.47,0,0,1,15,16v6.5a.5.5,0,0,1-1,0V16.21l-5.5-5.5A1,1,0,0,1,9.21,9H22.79a1,1,0,0,1,.71,1.71L18,16.21V24.5A.5.5,0,0,1,17.5,25Z"/></g></g></svg>