<svg xmlns="http://www.w3.org/2000/svg" viewBox="0 0 24 24"><defs><style>.cls-1{fill:none;}.cls-2{fill:#6484d4;}</style></defs><title>icn_执行中</title><g id="图层_2" data-name="图层 2"><g id="图层_4" data-name="图层 4"><rect class="cls-1" width="24" height="24"/><polygon class="cls-1" points="18.77 12.01 18.77 12 18.77 11.99 18.77 12.01"/><path class="cls-1" d="M8.09,11.4,9.93,7.13a.31.31,0,0,1,.58,0l1.71,7.09a.2.2,0,0,0,.38,0l1.85-4.89a.3.3,0,0,1,.55,0l1,2a.19.19,0,0,0,.18.11h2.59a6.77,6.77,0,0,0-13.48,0Z"/><path class="cls-1" d="M15.28,12.6l-.46-.93-2.25,5.92a.3.3,0,0,1-.57,0l-1.84-7.49L9,12.4a.31.31,0,0,1-.29.2H5.26a6.77,6.77,0,0,0,13.48,0Z"/><path class="cls-2" d="M12,4a8,8,0,1,0,8,8A8,8,0,0,0,12,4Zm6.77,8h0v0ZM12,5.23a6.78,6.78,0,0,1,6.74,6.17H16.15a.19.19,0,0,1-.18-.11l-1-2a.3.3,0,0,0-.55,0L12.6,14.25a.2.2,0,0,1-.38,0L10.51,7.14a.31.31,0,0,0-.58,0L8.09,11.4H5.26A6.78,6.78,0,0,1,12,5.23Zm0,13.54A6.78,6.78,0,0,1,5.26,12.6H8.72A.31.31,0,0,0,9,12.4l1.15-2.32L12,17.57a.3.3,0,0,0,.57,0l2.25-5.92.46.93h3.46A6.78,6.78,0,0,1,12,18.77Z"/></g></g></svg>