<svg xmlns="http://www.w3.org/2000/svg" viewBox="0 0 28 28"><defs><style>.cls-1{fill:none;}.cls-2{fill:#6484d4;}</style></defs><title>进入下级hover</title><g id="图层_2" data-name="图层 2"><g id="画布"><rect class="cls-1" width="28" height="28" rx="6" ry="6"/><path class="cls-2" d="M21.16,13.47l-5-5a.75.75,0,0,0-1.06,1.06L19.56,14l-4.47,4.47a.75.75,0,1,0,1.06,1.06l5-5A.75.75,0,0,0,21.16,13.47Z"/><path class="cls-2" d="M14.91,13.47l-5-5A.75.75,0,0,0,8.84,9.53L13.31,14,8.84,18.47a.75.75,0,1,0,1.06,1.06l5-5A.75.75,0,0,0,14.91,13.47Z"/></g></g></svg>
