<svg xmlns="http://www.w3.org/2000/svg" viewBox="0 0 22 19"><defs><style>.cls-1{fill:#999;}</style></defs><title>资源 22</title><g id="图层_2" data-name="图层 2"><g id="_编组_" data-name="&lt;编组&gt;"><path class="cls-1" d="M20.5,0H1.5A1.5,1.5,0,0,0,0,1.5v16A1.5,1.5,0,0,0,1.5,19h19A1.5,1.5,0,0,0,22,17.5V1.5A1.5,1.5,0,0,0,20.5,0ZM21,17.5a.5.5,0,0,1-.5.5H1.5a.5.5,0,0,1-.5-.5V1.5A.5.5,0,0,1,1.5,1h19a.5.5,0,0,1,.5.5Z"/><path class="cls-1" d="M18.5,2h-5a.5.5,0,0,0-.5.5V3H4.5A1.5,1.5,0,0,0,3,4.5v4A1.5,1.5,0,0,0,4.5,10H8v1a.5.5,0,0,0,.5.5h5A.5.5,0,0,0,14,11V10h3.5a.5.5,0,0,1,.5.5v4a.5.5,0,0,1-.5.5H9V13.5a.5.5,0,0,0-.5-.5h-5a.5.5,0,0,0-.5.5v3a.5.5,0,0,0,.5.5h5a.5.5,0,0,0,.5-.5V16h8.5A1.5,1.5,0,0,0,19,14.5v-4A1.5,1.5,0,0,0,17.5,9H14V8a.5.5,0,0,0-.5-.5h-5A.5.5,0,0,0,8,8V9H4.5A.5.5,0,0,1,4,8.5v-4A.5.5,0,0,1,4.5,4H13V5.5a.5.5,0,0,0,.5.5h5a.5.5,0,0,0,.5-.5v-3A.5.5,0,0,0,18.5,2ZM8,16H4V14H8ZM9,8.5h4v2H9ZM18,5H14V3h4Z"/></g></g></svg>