<svg xmlns="http://www.w3.org/2000/svg" viewBox="0 0 28 28"><defs><style>.cls-1{fill:none;}.cls-2{fill:none;}.cls-3{fill:#3d65c9;}</style></defs><title>操作default</title><g id="图层_2" data-name="图层 2"><g id="画布"><rect class="cls-1" width="28" height="28" rx="6" ry="6"/><path class="cls-2" d="M22.91,16.81a1,1,0,0,1,.32-.73l.9-.81a5,5,0,0,0-.34-.8l-1.19.08a1,1,0,0,1-.74-.28,1,1,0,0,1-.28-.74l.06-1.22a5.05,5.05,0,0,0-.81-.33l-.79.9a1,1,0,0,1-1.45,0l-.81-.9a5.06,5.06,0,0,0-.8.34l.08,1.2a1,1,0,0,1-.3.75,1,1,0,0,1-.73.27l-1.21-.06a4.68,4.68,0,0,0-.33.81l.9.79a1,1,0,0,1,0,1.45l-.91.81a5.55,5.55,0,0,0,.35.81L16,19.06h.05a1,1,0,0,1,.67.28,1,1,0,0,1,.3.74L17,21.3a5.17,5.17,0,0,0,.81.33l.79-.9a1,1,0,0,1,.72-.32h0a1,1,0,0,1,.72.33l.81.89a5,5,0,0,0,.81-.34l-.08-1.19a1,1,0,0,1,.28-.74,1,1,0,0,1,.74-.28l1.21.06a5.14,5.14,0,0,0,.33-.81l-.89-.78A1,1,0,0,1,22.91,16.81ZM19.3,18.9a2.1,2.1,0,1,1,2.1-2.1A2.1,2.1,0,0,1,19.3,18.9Z"/><path class="cls-3" d="M3.63,7.68H21.37a.75.75,0,0,0,0-1.5H3.63a.75.75,0,0,0,0,1.5Z"/><path class="cls-3" d="M3.63,14.78h7.1a.75.75,0,0,0,0-1.5H3.63a.75.75,0,1,0,0,1.5Z"/><path class="cls-3" d="M14.27,20.37H3.63a.75.75,0,0,0,0,1.5H14.27a.75.75,0,1,0,0-1.5Z"/><path class="cls-3" d="M23.92,16.81l.88-.8a1,1,0,0,0,.29-1,5.75,5.75,0,0,0-.42-1,1,1,0,0,0-.92-.51l-1.18.09.06-1.21a1,1,0,0,0-.51-.92,5.59,5.59,0,0,0-1-.42,1,1,0,0,0-1,.29l-.78.9-.81-.9a1,1,0,0,0-1-.29,5.59,5.59,0,0,0-1,.42,1,1,0,0,0-.51.92l.09,1.19-1.21-.06a1,1,0,0,0-.91.5,5.41,5.41,0,0,0-.43,1,1,1,0,0,0,.29,1l.9.78-.9.81a1,1,0,0,0-.29,1,5.74,5.74,0,0,0,.43,1,1,1,0,0,0,.91.5L16,20,16,21.25a1,1,0,0,0,.51.92,5.61,5.61,0,0,0,1,.42,1,1,0,0,0,1-.29l.78-.9.81.9a1,1,0,0,0,.74.33.94.94,0,0,0,.27,0,5.57,5.57,0,0,0,1-.42,1,1,0,0,0,.51-.92l-.09-1.18,1.21.06a1,1,0,0,0,.92-.51,5.7,5.7,0,0,0,.42-1,1,1,0,0,0-.29-1Zm-.12,2.32-1.21-.06a1,1,0,0,0-.74.28,1,1,0,0,0-.28.74l.08,1.19a5,5,0,0,1-.81.34L20,20.73a1,1,0,0,0-.72-.33h0a1,1,0,0,0-.72.32l-.79.9A5.17,5.17,0,0,1,17,21.3L17,20.08a1,1,0,0,0-.3-.74,1,1,0,0,0-.67-.28H16l-1.19.08a5.55,5.55,0,0,1-.35-.81l.91-.81a1,1,0,0,0,0-1.45l-.9-.79a4.68,4.68,0,0,1,.33-.81l1.21.06a1,1,0,0,0,.73-.27,1,1,0,0,0,.3-.75L17,12.32a5.06,5.06,0,0,1,.8-.34l.81.9a1,1,0,0,0,1.45,0l.79-.9a5.05,5.05,0,0,1,.81.33l-.06,1.22a1,1,0,0,0,.28.74,1,1,0,0,0,.74.28l1.19-.08a5,5,0,0,1,.34.8l-.9.81a1,1,0,0,0,0,1.45l.89.78A5.14,5.14,0,0,1,23.8,19.13Z"/><path class="cls-3" d="M19.3,14.71a2.1,2.1,0,1,0,2.1,2.1A2.1,2.1,0,0,0,19.3,14.71Zm0,3.19a1.1,1.1,0,1,1,1.1-1.1A1.1,1.1,0,0,1,19.3,17.9Z"/></g></g></svg>
