<svg xmlns="http://www.w3.org/2000/svg" viewBox="0 0 24 24"><defs><style>.cls-1{fill:#fff;}.cls-2{fill:#8ba3df;}</style></defs><title>h_刷新</title><g id="图层_2" data-name="图层 2"><g id="标注_抽屉" data-name="标注—抽屉"><g id="h-刷新"><rect class="cls-1" width="24" height="24" rx="4"/><path class="cls-2" d="M17.4,8a.66.66,0,0,0-.93.93,6.33,6.33,0,1,1-5.7-1.74l-2,3.37a.66.66,0,0,0,.23.9.58.58,0,0,0,.33.1.66.66,0,0,0,.57-.32l2.7-4.49s0,0,0,0a.56.56,0,0,0,0-.12l0-.13s0,0,0,0,0-.05,0-.07a.28.28,0,0,0,0-.13.37.37,0,0,0,0-.11.41.41,0,0,0-.07-.11l-.1-.09s0,0-.05,0L7.85,3.09a.66.66,0,0,0-.9.23.65.65,0,0,0,.22.9L10.07,6A7.66,7.66,0,1,0,17.4,8Z"/></g></g></g></svg>