<svg xmlns="http://www.w3.org/2000/svg" viewBox="0 0 24 24"><defs><style>.cls-1{fill:none;}.cls-2{fill:#3f5bc4;}</style></defs><title>btn_icn_h_批量更新</title><g id="图层_2" data-name="图层 2"><g id="服务模型"><rect class="cls-1" width="24" height="24"/><path class="cls-2" d="M12,18.38A6.38,6.38,0,1,1,18.38,12,6.38,6.38,0,0,1,12,18.38Zm0-12A5.63,5.63,0,1,0,17.62,12,5.62,5.62,0,0,0,12,6.38Z"/><path class="cls-2" d="M14.38,10.69l-2.1-2.08a.41.41,0,0,0-.56,0l-2.1,2.08a.38.38,0,0,0,0,.55.39.39,0,0,0,.55,0l1.44-1.41v5.28a.39.39,0,0,0,.78,0V9.83l1.44,1.41a.39.39,0,0,0,.28.11.39.39,0,0,0,.27-.11A.38.38,0,0,0,14.38,10.69Z"/></g></g></svg>