<svg xmlns="http://www.w3.org/2000/svg" viewBox="0 0 90 60"><defs><style>.cls-1{fill:none;}.cls-2{fill:#333;}</style></defs><title>icn_01</title><g id="图层_2" data-name="图层 2"><g id="图层_2-2" data-name="图层 2"><circle class="cls-1" cx="29" cy="30" r="5"/><circle class="cls-1" cx="61" cy="30" r="5"/><circle class="cls-1" cx="8.35" cy="8.78" r="1.24"/><circle class="cls-1" cx="81.17" cy="8.78" r="1.24"/><circle class="cls-1" cx="8.35" cy="50.94" r="1.24"/><path class="cls-1" d="M36.48,25a9,9,0,0,1,0,10h17a9,9,0,0,1,0-10Z"/><path class="cls-1" d="M4,4V56H86V4ZM8.35,53.7a2.76,2.76,0,1,1,2.76-2.76A2.77,2.77,0,0,1,8.35,53.7Zm0-42.16a2.76,2.76,0,1,1,2.76-2.76A2.77,2.77,0,0,1,8.35,11.54ZM61,39H29a9,9,0,0,1-1.84-17.81A2,2,0,0,1,28,21H60a2,2,0,0,1,.33,0c.22,0,.44,0,.67,0a9,9,0,0,1,0,18ZM81.17,6A2.76,2.76,0,1,1,78.4,8.78,2.77,2.77,0,0,1,81.17,6Zm.48,48a2.77,2.77,0,1,1,2.77-2.77A2.77,2.77,0,0,1,81.64,54Z"/><circle class="cls-1" cx="81.64" cy="51.21" r="1.23"/><path class="cls-2" d="M86,0H4A4,4,0,0,0,0,4V56a4,4,0,0,0,4,4H86a4,4,0,0,0,4-4V4A4,4,0,0,0,86,0ZM4,56V4H86V56Z"/><path class="cls-2" d="M61,21c-.22,0-.44,0-.67,0A2,2,0,0,0,60,21H28a2,2,0,0,0-.84.19A9,9,0,0,0,29,39H61a9,9,0,0,0,0-18ZM29,35a5,5,0,1,1,5-5A5,5,0,0,1,29,35Zm24.52,0h-17a9,9,0,0,0,0-10h17a9,9,0,0,0,0,10ZM61,35a5,5,0,1,1,5-5A5,5,0,0,1,61,35Z"/><path class="cls-2" d="M8.35,6a2.76,2.76,0,1,0,2.76,2.76A2.77,2.77,0,0,0,8.35,6Zm0,4A1.24,1.24,0,1,1,9.59,8.78,1.24,1.24,0,0,1,8.35,10Z"/><path class="cls-2" d="M81.17,11.54A2.76,2.76,0,1,0,78.4,8.78,2.77,2.77,0,0,0,81.17,11.54Zm0-4a1.24,1.24,0,1,1-1.24,1.24A1.24,1.24,0,0,1,81.17,7.54Z"/><path class="cls-2" d="M8.35,48.17a2.76,2.76,0,1,0,2.76,2.76A2.77,2.77,0,0,0,8.35,48.17Zm0,4a1.24,1.24,0,1,1,1.24-1.24A1.24,1.24,0,0,1,8.35,52.17Z"/><path class="cls-2" d="M81.64,48.45a2.77,2.77,0,1,0,2.77,2.77A2.77,2.77,0,0,0,81.64,48.45Zm0,4a1.23,1.23,0,1,1,1.23-1.23A1.23,1.23,0,0,1,81.64,52.45Z"/></g></g></svg>