<svg xmlns="http://www.w3.org/2000/svg" viewBox="0 0 90 69"><defs><style>.cls-1{fill:none;}.cls-2{fill:#333;}</style></defs><title>icn_04</title><g id="图层_2" data-name="图层 2"><g id="图层_2-2" data-name="图层 2"><rect class="cls-1" x="39" y="58" width="12" height="7"/><path class="cls-1" d="M17.7,32l5.89-8.86a3.27,3.27,0,0,1-.32-1.4,3.3,3.3,0,0,1,6.61,0,3.26,3.26,0,0,1-.38,1.51L41.61,39.9h.11L56.49,15.94a3.27,3.27,0,0,1-.21-1.11,3.3,3.3,0,1,1,6.61,0,3.27,3.27,0,0,1-.3,1.36L68,25H86V4H4V32Z"/><path class="cls-1" d="M66.91,29a2,2,0,0,1-1.7-.95l-5.75-9.31L45,42.12a3.26,3.26,0,0,1,.19,1.05,3.3,3.3,0,1,1-6.56-.5L26.52,26l-6.09,9.15a2,2,0,0,1-1.67.89H4V54H86V29Z"/><path class="cls-2" d="M86,0H4A4,4,0,0,0,0,4V54a4,4,0,0,0,4,4H35v7H27a2,2,0,0,0,0,4H63a2,2,0,0,0,0-4H55V58H86a4,4,0,0,0,4-4V4A4,4,0,0,0,86,0Zm0,4V25H68l-5.44-8.81a3.27,3.27,0,0,0,.3-1.36,3.3,3.3,0,1,0-6.61,0,3.27,3.27,0,0,0,.21,1.11L41.72,39.88h-.11L29.5,23.25a3.26,3.26,0,0,0,.38-1.51,3.3,3.3,0,0,0-6.61,0,3.27,3.27,0,0,0,.32,1.4L17.7,32H4V4ZM51,65H39V58H51ZM4,54V36H18.77a2,2,0,0,0,1.67-.89L26.52,26l12.16,16.7A3.3,3.3,0,1,0,45,42.12L59.46,18.74l5.75,9.31a2,2,0,0,0,1.7.95H86V54Z"/></g></g></svg>