<?xml version="1.0" standalone="no"?><!DOCTYPE svg PUBLIC "-//W3C//DTD SVG 1.1//EN" "http://www.w3.org/Graphics/SVG/1.1/DTD/svg11.dtd"><svg t="1543222652136" class="icon" style="" viewBox="0 0 1046 1024" version="1.1" xmlns="http://www.w3.org/2000/svg" p-id="2839" xmlns:xlink="http://www.w3.org/1999/xlink" width="65.375" height="64"><defs><style type="text/css"></style></defs><path d="M 918.103 127.21 A 119.322 119.322 0 0 0 830.988 90.127 H 214.862 a 124.864 124.864 0 0 0 -124.737 124.737 v 431.263 a 124.864 124.864 0 0 0 124.737 124.737 h 150.845 v 101.125 h -76.3897 a 30.9426 30.9426 0 0 0 -30.9426 30.9426 a 30.9426 30.9426 0 0 0 30.9426 30.9426 h 464.139 a 30.9426 30.9426 0 0 0 30.9426 -30.9426 a 30.9426 30.9426 0 0 0 -30.9426 -30.9426 h -78.3235 V 770.836 h 155.854 c 31.6002 0 62.8522 -13.4214 85.7304 -36.8315 A 125.115 125.115 0 0 0 952.666 646.119 v -431.263 c 0 -33.186 -12.2513 -64.3124 -34.5688 -87.6453 Z M 214.862 152.012 h 616.127 C 864.513 152.012 890.785 179.609 890.785 214.864 v 308.538 H 152.029 v -308.556 A 62.9007 62.9007 0 0 1 214.862 152.012 Z m 398.387 719.977 h -185.657 V 770.836 h 185.657 Z m 217.739 -163.039 H 214.862 a 62.9007 62.9007 0 0 1 -62.8522 -62.8522 v -60.812 h 738.756 v 60.8313 c 0.0193395 34.0563 -27.365 62.8329 -59.7774 62.8329 Z" p-id="2840"></path></svg>