<svg xmlns="http://www.w3.org/2000/svg" viewBox="0 0 22 17"><defs><style>.cls-1{fill:#999;}</style></defs><title>资源 46</title><g id="图层_2" data-name="图层 2"><g id="图层_4" data-name="图层 4"><g id="_编组_" data-name="&lt;编组&gt;"><path class="cls-1" d="M20.5,0H1.5A1.5,1.5,0,0,0,0,1.5v14A1.5,1.5,0,0,0,1.5,17h19A1.5,1.5,0,0,0,22,15.5V1.5A1.5,1.5,0,0,0,20.5,0ZM21,15.24,13.62,7.52,20.94,1.6h0L21,1.53V15.26ZM20.09,1,11,8.36,1.91,1ZM1,15.24l0,0V1.53l.06.07L8.38,7.52Zm.71.76a.12.12,0,0,1,0-.07L9.16,8.15l1.53,1.24a.5.5,0,0,0,.63,0l1.53-1.24,7.42,7.77a.12.12,0,0,1,0,.07Z"/></g></g></g></svg>