<svg xmlns="http://www.w3.org/2000/svg" viewBox="0 0 18 18"><defs><style>.cls-1{fill:none;}.cls-2{fill:#0f32b5;}</style></defs><title>icon_hover_delete</title><g id="图层_2" data-name="图层 2"><g id="左列表"><g id="d删除"><path class="cls-1" d="M4.24,15.35a1.59,1.59,0,0,0,1.59,1.59h6.35a1.59,1.59,0,0,0,1.59-1.59V4.24H4.24Zm6.88-7.41a.53.53,0,0,1,1.06,0v6.35a.53.53,0,0,1-1.06,0Zm-2.65,0a.53.53,0,1,1,1.06,0v6.35a.53.53,0,0,1-1.06,0Zm-2.65,0a.53.53,0,1,1,1.06,0v6.35a.53.53,0,0,1-1.06,0Z"/><path class="cls-1" d="M11.65,2.65a1.59,1.59,0,0,0-1.59-1.59H7.94A1.59,1.59,0,0,0,6.35,2.65v.53h5.29Z"/><path class="cls-2" d="M17.47,3.18H12.71V2.65A2.65,2.65,0,0,0,10.06,0H7.94A2.65,2.65,0,0,0,5.29,2.65v.53H.53a.53.53,0,0,0,0,1.06H3.18V15.35A2.65,2.65,0,0,0,5.82,18h6.35a2.65,2.65,0,0,0,2.65-2.65V4.24h2.65a.53.53,0,0,0,0-1.06ZM6.35,2.65A1.59,1.59,0,0,1,7.94,1.06h2.12a1.59,1.59,0,0,1,1.59,1.59v.53H6.35Zm7.41,12.71a1.59,1.59,0,0,1-1.59,1.59H5.82a1.59,1.59,0,0,1-1.59-1.59V4.24h9.53Z"/><path class="cls-2" d="M6.35,14.82a.53.53,0,0,0,.53-.53V7.94a.53.53,0,1,0-1.06,0v6.35A.53.53,0,0,0,6.35,14.82Z"/><path class="cls-2" d="M9,14.82a.53.53,0,0,0,.53-.53V7.94a.53.53,0,1,0-1.06,0v6.35A.53.53,0,0,0,9,14.82Z"/><path class="cls-2" d="M11.65,14.82a.53.53,0,0,0,.53-.53V7.94a.53.53,0,0,0-1.06,0v6.35A.53.53,0,0,0,11.65,14.82Z"/></g></g></g></svg>