<svg xmlns="http://www.w3.org/2000/svg" viewBox="0 0 24 24"><defs><style>.cls-1{fill:none;}.cls-2{fill:#123ecc;}</style></defs><title>btn_tree_c_edit</title><g id="图层_2" data-name="图层 2"><g id="交互_元数据管理" data-name="交互—元数据管理"><rect class="cls-1" width="24" height="24"/><path class="cls-2" d="M17.06,18.42H7A1.43,1.43,0,0,1,5.56,17V6.92A1.44,1.44,0,0,1,7,5.48h5a.47.47,0,0,1,0,.94H7a.49.49,0,0,0-.49.5V17a.49.49,0,0,0,.49.49H17.06a.49.49,0,0,0,.5-.49V12a.47.47,0,1,1,.94,0v5A1.44,1.44,0,0,1,17.06,18.42Z"/><path class="cls-2" d="M11.35,13.12A.47.47,0,0,1,11,13a.45.45,0,0,1,0-.66L17.9,5.44a.45.45,0,0,1,.66,0,.47.47,0,0,1,0,.66L11.68,13A.47.47,0,0,1,11.35,13.12Z"/></g></g></svg>