<svg xmlns="http://www.w3.org/2000/svg" viewBox="0 0 24 24"><defs><style>.cls-1{fill:none;}.cls-2{fill:#c60928;}</style></defs><title>btn_tree_c_delete</title><g id="图层_2" data-name="图层 2"><g id="交互_元数据管理" data-name="交互—元数据管理"><rect class="cls-1" width="24" height="24"/><path class="cls-2" d="M19.21,7.11H15.09V6a1.54,1.54,0,0,0-1.54-1.54h-3.1A1.54,1.54,0,0,0,8.91,6V7.11H4.79a.52.52,0,1,0,0,1H6.33v9.78A2.59,2.59,0,0,0,8.91,20.5h6.18a2.59,2.59,0,0,0,2.58-2.58V8.14h1.54a.52.52,0,1,0,0-1ZM9.94,6a.51.51,0,0,1,.51-.51h3.1a.51.51,0,0,1,.51.51V7.11H9.94Zm6.7,12a1.55,1.55,0,0,1-1.55,1.55H8.91a1.55,1.55,0,0,1-1.55-1.55V8.14h9.28Z"/><path class="cls-2" d="M9.42,9.89a.51.51,0,0,0-.51.51v6.8a.52.52,0,1,0,1,0V10.4A.51.51,0,0,0,9.42,9.89Z"/><path class="cls-2" d="M12,9.89a.52.52,0,0,0-.52.51v6.8a.52.52,0,1,0,1,0V10.4A.52.52,0,0,0,12,9.89Z"/><path class="cls-2" d="M14.58,9.89a.51.51,0,0,0-.52.51v6.8a.52.52,0,1,0,1,0V10.4A.51.51,0,0,0,14.58,9.89Z"/></g></g></svg>