<svg xmlns="http://www.w3.org/2000/svg" viewBox="0 0 24 24"><defs><style>.cls-1{fill:none;}.cls-2{fill:#999;}</style></defs><title>icn_描述_edit</title><g id="图层_2" data-name="图层 2"><g id="交互_元数据管理" data-name="交互—元数据管理"><rect class="cls-1" width="24" height="24"/><path class="cls-2" d="M18.75,20.56H5.32a1.92,1.92,0,0,1-1.91-1.91V5.22A1.92,1.92,0,0,1,5.32,3.31H12a.63.63,0,0,1,0,1.25H5.32a.67.67,0,0,0-.66.66V18.65a.67.67,0,0,0,.66.66H18.75a.67.67,0,0,0,.66-.66V12a.63.63,0,1,1,1.25,0v6.7A1.92,1.92,0,0,1,18.75,20.56Z"/><path class="cls-2" d="M11.13,13.49a.63.63,0,0,1-.44-1.07l9.17-9.17a.64.64,0,0,1,.89,0,.63.63,0,0,1,0,.88l-9.18,9.18A.62.62,0,0,1,11.13,13.49Z"/></g></g></svg>