<svg xmlns="http://www.w3.org/2000/svg" viewBox="0 0 22 16"><defs><style>.cls-1{fill:#0f32b5;}</style></defs><title>资源 23.1</title><g id="图层_2" data-name="图层 2"><g id="_编组_" data-name="&lt;编组&gt;"><path class="cls-1" d="M21,11H20V8.5A1.5,1.5,0,0,0,18.5,7h-7V5H13a1,1,0,0,0,1-1V1a1,1,0,0,0-1-1H9A1,1,0,0,0,8,1V4A1,1,0,0,0,9,5h1.5V7h-7A1.49,1.49,0,0,0,2,8.49V11H1a1,1,0,0,0-1,1v3a1,1,0,0,0,1,1H5a1,1,0,0,0,1-1V12a1,1,0,0,0-1-1H3V8.49A.49.49,0,0,1,3.49,8h7v3H9a1,1,0,0,0-1,1v3a1,1,0,0,0,1,1h4a1,1,0,0,0,1-1V12a1,1,0,0,0-1-1H11.5V8h7a.5.5,0,0,1,.5.5V11H17a1,1,0,0,0-1,1v3a1,1,0,0,0,1,1h4a1,1,0,0,0,1-1V12A1,1,0,0,0,21,11ZM13,4H9V1h4V4h0M5,15H1V12H5v3H5m8,0H9V12h4v3h0m8,0H17V12h4v3h0"/></g></g></svg>