<svg xmlns="http://www.w3.org/2000/svg" viewBox="0 0 24 24"><defs><style>.cls-1{fill:none;}.cls-2{fill:#b7b7b7;}</style></defs><title>btn_d_监测记录</title><g id="图层_2" data-name="图层 2"><g id="周期流程"><rect class="cls-1" width="24" height="24"/><rect class="cls-1" x="8.5" y="1.75" width="7" height="2"/><path class="cls-1" d="M18,3.25H16.5v1a.5.5,0,0,1-.5.5H8a.5.5,0,0,1-.5-.5v-1H6a1.5,1.5,0,0,0-1.5,1.5v16A1.5,1.5,0,0,0,6,22.25H18a1.5,1.5,0,0,0,1.5-1.5v-16A1.5,1.5,0,0,0,18,3.25Zm-.85,16h-10a.5.5,0,0,1,0-1h10a.5.5,0,1,1,0,1Zm0-3h-10a.5.5,0,0,1,0-1h10a.5.5,0,1,1,0,1Zm.85-6H14.45L13.13,13a.5.5,0,0,1-.45.28h0a.5.5,0,0,1-.45-.32l-2-5L8.85,10.26a.5.5,0,0,1-.43.24H6a.5.5,0,0,1,0-1H8.13l1.79-3a.5.5,0,0,1,.9.07l1.92,4.93,1-2a.5.5,0,0,1,.45-.28H18a.5.5,0,1,1,0,1Z"/><path class="cls-2" d="M18,2.25H16.5v-1a.5.5,0,0,0-.5-.5H8a.5.5,0,0,0-.5.5v1H6a2.5,2.5,0,0,0-2.5,2.5v16A2.5,2.5,0,0,0,6,23.25H18a2.5,2.5,0,0,0,2.5-2.5v-16A2.5,2.5,0,0,0,18,2.25Zm-9.5-.5h7v2h-7Zm11,19a1.5,1.5,0,0,1-1.5,1.5H6a1.5,1.5,0,0,1-1.5-1.5v-16A1.5,1.5,0,0,1,6,3.25H7.5v1a.5.5,0,0,0,.5.5h8a.5.5,0,0,0,.5-.5v-1H18a1.5,1.5,0,0,1,1.5,1.5Z"/><path class="cls-2" d="M18,9.25H14.13a.5.5,0,0,0-.45.28l-1,2L10.81,6.57a.5.5,0,0,0-.9-.07l-1.79,3H6a.5.5,0,0,0,0,1H8.42a.5.5,0,0,0,.43-.24l1.41-2.37,2,5a.5.5,0,0,0,.45.32h0a.5.5,0,0,0,.45-.28l1.31-2.72H18a.5.5,0,1,0,0-1Z"/><path class="cls-2" d="M17.15,15.25h-10a.5.5,0,0,0,0,1h10a.5.5,0,1,0,0-1Z"/><path class="cls-2" d="M17.15,18.25h-10a.5.5,0,0,0,0,1h10a.5.5,0,1,0,0-1Z"/></g></g></svg>