<svg xmlns="http://www.w3.org/2000/svg" viewBox="0 0 20 20"><defs><style>.cls-1{fill:#0f32b5;}</style></defs><title>资源 45.1</title><g id="图层_2" data-name="图层 2"><g id="图层_4" data-name="图层 4"><g id="_编组_" data-name="&lt;编组&gt;"><path class="cls-1" d="M18.5,5H15V2.5A2.5,2.5,0,0,0,12.5,0h-5A2.5,2.5,0,0,0,5,2.5V5H1.5A1.5,1.5,0,0,0,0,6.5v12A1.5,1.5,0,0,0,1.5,20h17A1.5,1.5,0,0,0,20,18.5V6.5A1.5,1.5,0,0,0,18.5,5ZM6,2.5A1.5,1.5,0,0,1,7.5,1h5A1.5,1.5,0,0,1,14,2.5V5H6Zm13,16a.5.5,0,0,1-.5.5H1.5a.5.5,0,0,1-.5-.5V6.5A.5.5,0,0,1,1.5,6h17a.5.5,0,0,1,.5.5Z"/><path class="cls-1" d="M10,8.63a2.5,2.5,0,0,0-2.5,2.5,2.45,2.45,0,0,0,1,2v2.75a.5.5,0,0,0,.5.5h2a.5.5,0,0,0,.5-.5V13.12A2.5,2.5,0,0,0,10,8.63Zm.76,3.81,0,0-.08.07-.05.08,0,.08a.49.49,0,0,0,0,.1.47.47,0,0,0,0,.06v2.5h-1v-2.5a.47.47,0,0,0,0-.06.49.49,0,0,0,0-.1l0-.08-.05-.08-.08-.07,0,0a1.47,1.47,0,0,1-.74-1.31,1.5,1.5,0,0,1,3,0A1.47,1.47,0,0,1,10.76,12.44Z"/></g></g></g></svg>