<svg xmlns="http://www.w3.org/2000/svg" viewBox="0 0 32 32"><defs><style>.cls-1{fill:none;}.cls-2{fill:#8ba3df;}</style></defs><title>问号</title><g id="图层_2" data-name="图层 2"><g id="添加流增"><rect class="cls-1" width="32" height="32"/><path class="cls-2" d="M16,10a6,6,0,1,0,6,6A6,6,0,0,0,16,10Zm.4,9.27h-.88v-.92h.88Zm1.42-4.12a2.85,2.85,0,0,1-.59.72,6.87,6.87,0,0,0-.6.63,1.23,1.23,0,0,0-.23.44,2.53,2.53,0,0,0-.07.68h-.79a3.4,3.4,0,0,1,.08-.8,1.73,1.73,0,0,1,.25-.53,5.8,5.8,0,0,1,.58-.66A5.86,5.86,0,0,0,17,15a1.18,1.18,0,0,0,.12-.59,1,1,0,0,0-1.09-1c-.8,0-1.2.48-1.2,1.42H14a2.91,2.91,0,0,1,.15-1,1.48,1.48,0,0,1,.43-.6,2.05,2.05,0,0,1,.66-.4,2.48,2.48,0,0,1,.77-.12,2,2,0,0,1,1.37.48A1.63,1.63,0,0,1,18,14.49,1.45,1.45,0,0,1,17.82,15.15Z"/></g></g></svg>