<svg xmlns="http://www.w3.org/2000/svg" viewBox="0 0 22 20"><defs><style>.cls-1{fill:#999;}</style></defs><title>资源 36</title><g id="图层_2" data-name="图层 2"><g id="图层_4" data-name="图层 4"><g id="_编组_" data-name="&lt;编组&gt;"><path class="cls-1" d="M18.5,9.5H18c0-.07,0-.14,0-.21s0-.1,0-.15,0-.37-.08-.55l0-.1c0-.2-.09-.39-.15-.58v0A7,7,0,0,0,16,5.08h0A7,7,0,0,0,11.5,3V2.5a.5.5,0,0,0-1,0V3A7,7,0,0,0,4,9.5H3.5a.5.5,0,0,0,0,1H4A7,7,0,0,0,10.5,17v.53a.5.5,0,0,0,1,0V17A7,7,0,0,0,18,10.5h.53a.5.5,0,0,0,0-1ZM11,12a.5.5,0,0,0-.5.5v.45A3,3,0,0,1,8.05,10.5H8.5a.5.5,0,0,0,0-1H8.05A3,3,0,0,1,10.5,7.05V7.5a.5.5,0,0,0,1,0V7.05a3,3,0,0,1,1.88,1.14l.11.14a3,3,0,0,1,.2.37l.07.14a3,3,0,0,1,.13.42s0,.1,0,.15,0,.06,0,.1H13.5a.5.5,0,0,0,0,1h.45a3,3,0,0,1-2.45,2.45V12.5A.5.5,0,0,0,11,12Zm4-2.5c0-.1,0-.2,0-.29s0-.13-.06-.2a4,4,0,0,0-.17-.55c0-.07-.07-.13-.1-.19a4,4,0,0,0-.27-.49c0-.07-.1-.12-.15-.19a4,4,0,0,0-.32-.39h0A4,4,0,0,0,11.5,6.05V4A6,6,0,0,1,16.72,8.2v0c.05.16.09.33.13.5l0,.08c0,.15.05.31.07.47s0,.08,0,.13,0,.07,0,.1ZM10.5,4v2A4,4,0,0,0,7.05,9.5H5A6,6,0,0,1,10.5,4ZM5,10.5h2a4,4,0,0,0,3.45,3.45v2A6,6,0,0,1,5,10.5ZM11.5,16v-2a4,4,0,0,0,3.45-3.45h2A6,6,0,0,1,11.5,16Z"/><path class="cls-1" d="M20.5,0H1.5A1.5,1.5,0,0,0,0,1.5v17A1.5,1.5,0,0,0,1.5,20h19A1.5,1.5,0,0,0,22,18.5V1.5A1.5,1.5,0,0,0,20.5,0ZM21,18.5a.5.5,0,0,1-.5.5H1.5a.5.5,0,0,1-.5-.5V1.5A.5.5,0,0,1,1.5,1h19a.5.5,0,0,1,.5.5Z"/></g></g></g></svg>