<svg xmlns="http://www.w3.org/2000/svg" viewBox="0 0 22.5 20.53"><defs><style>.cls-1{fill:none;}.cls-2{fill:#0f32b5;}</style></defs><title>资源 2</title><g id="图层_2" data-name="图层 2"><g id="图层_1-2" data-name="图层 1"><path class="cls-1" d="M10.5,6.35V9h2.65A3.2,3.2,0,0,0,10.5,6.35Z"/><circle class="cls-1" cx="18.5" cy="17" r="1"/><path class="cls-1" d="M17,14.47,15.58,17,17,19.53H20L21.42,17,20,14.47ZM18.5,19a2,2,0,1,1,2-2A2,2,0,0,1,18.5,19Z"/><path class="cls-2" d="M16.5,2.5h2A.5.5,0,0,1,19,3v9a.5.5,0,0,0,1,0V3a1.5,1.5,0,0,0-1.5-1.5h-2a.5.5,0,0,0,0,1Z"/><path class="cls-2" d="M7.5,2.5h5a.5.5,0,0,0,0-1h-5a.5.5,0,0,0,0,1Z"/><path class="cls-2" d="M13,16.5H1.5A.5.5,0,0,1,1,16V3a.5.5,0,0,1,.5-.5h2a.5.5,0,0,0,0-1h-2A1.5,1.5,0,0,0,0,3V16a1.5,1.5,0,0,0,1.5,1.5H13a.5.5,0,1,0,0-1Z"/><path class="cls-2" d="M5.5,4A.5.5,0,0,0,6,3.5V.5a.5.5,0,0,0-1,0v3A.5.5,0,0,0,5.5,4Z"/><path class="cls-2" d="M14.5,4a.5.5,0,0,0,.5-.5V.5a.5.5,0,0,0-1,0v3A.5.5,0,0,0,14.5,4Z"/><path class="cls-2" d="M18.5,15a2,2,0,1,0,2,2A2,2,0,0,0,18.5,15Zm0,3a1,1,0,1,1,1-1A1,1,0,0,1,18.5,18Z"/><path class="cls-2" d="M22.43,16.75l-1.75-3a.5.5,0,0,0-.43-.25h-3.5a.5.5,0,0,0-.43.25l-1.75,3a.5.5,0,0,0,0,.5l1.75,3a.5.5,0,0,0,.43.25h3.5a.5.5,0,0,0,.43-.25l1.75-3A.5.5,0,0,0,22.43,16.75ZM20,19.53H17L15.58,17,17,14.47H20L21.42,17Z"/><path class="cls-2" d="M13.37,10.41a.5.5,0,0,0-.62.33,3.19,3.19,0,1,1-4-4,.5.5,0,1,0-.3-1A4.19,4.19,0,1,0,13.7,11,.5.5,0,0,0,13.37,10.41Z"/><path class="cls-2" d="M10,5.31a.5.5,0,0,0-.5.5V9.5a.5.5,0,0,0,.5.5h3.69a.5.5,0,0,0,.5-.5A4.2,4.2,0,0,0,10,5.31ZM10.5,9V6.35A3.2,3.2,0,0,1,13.15,9Z"/></g></g></svg>