<svg xmlns="http://www.w3.org/2000/svg" viewBox="0 0 22 20.5"><defs><style>.cls-1{fill:#0f32b5;}</style></defs><title>资源 42.1</title><g id="图层_2" data-name="图层 2"><g id="图层_4" data-name="图层 4"><g id="_编组_" data-name="&lt;编组&gt;"><path class="cls-1" d="M16,2.5h2.5A.5.5,0,0,1,19,3v8.63a.5.5,0,0,0,1,0V3a1.5,1.5,0,0,0-1.5-1.5H16a.5.5,0,0,0,0,1Z"/><path class="cls-1" d="M7,2.5h6a.5.5,0,0,0,0-1H7a.5.5,0,0,0,0,1Z"/><path class="cls-1" d="M13,16.5H1.5A.5.5,0,0,1,1,16V3a.5.5,0,0,1,.5-.5H4a.5.5,0,0,0,0-1H1.5A1.5,1.5,0,0,0,0,3V16a1.5,1.5,0,0,0,1.5,1.5H13a.5.5,0,0,0,0-1Z"/><path class="cls-1" d="M5.5,4A.5.5,0,0,0,6,3.5V.5a.5.5,0,0,0-1,0v3A.5.5,0,0,0,5.5,4Z"/><path class="cls-1" d="M14.5,4a.5.5,0,0,0,.5-.5V.5a.5.5,0,0,0-1,0v3A.5.5,0,0,0,14.5,4Z"/><path class="cls-1" d="M20.69,14.3l.27-.72L18.5,14l1.59,1.92.23-.62A2.5,2.5,0,1,1,16,17.21c0-.07,0-.14,0-.21a2.48,2.48,0,0,1,.74-1.77.5.5,0,0,0-.71-.71A3.48,3.48,0,0,0,15,17c0,.1,0,.2,0,.29a3.5,3.5,0,1,0,5.68-3Z"/><path class="cls-1" d="M4,6.5h6a.5.5,0,0,0,0-1H4a.5.5,0,0,0,0,1Z"/><path class="cls-1" d="M16,8.5H4a.5.5,0,0,0,0,1H16a.5.5,0,0,0,0-1Z"/><path class="cls-1" d="M16,11.5H4a.5.5,0,0,0,0,1H16a.5.5,0,0,0,0-1Z"/></g></g></g></svg>