<svg xmlns="http://www.w3.org/2000/svg" viewBox="0 0 24.26 24.26"><defs><style>.cls-1{fill:none;}.cls-2{fill:#d4475e;}</style></defs><title>icn_失败</title><g id="图层_2" data-name="图层 2"><g id="抽屉"><rect class="cls-1" x="0.13" y="0.13" width="24" height="24" transform="translate(-0.13 0.13) rotate(-0.63)"/><path class="cls-2" d="M12.22,20.13A8,8,0,1,1,20.13,12,8,8,0,0,1,12.22,20.13ZM12.06,5.36a6.77,6.77,0,1,0,6.84,6.69A6.78,6.78,0,0,0,12.06,5.36Z"/><path class="cls-2" d="M13.05,12.12l2.51-2.57a.65.65,0,1,0-.93-.91l-2.51,2.57L9.55,8.7a.65.65,0,1,0-.91.93l2.57,2.51L8.7,14.71a.65.65,0,0,0,.93.91l2.51-2.57,2.57,2.51a.65.65,0,1,0,.91-.93Z"/></g></g></svg>