<svg xmlns="http://www.w3.org/2000/svg" viewBox="0 0 24 24"><defs><style>.cls-1{fill:none;}.cls-2{fill:#3d65c9;}</style></defs><title>btn_h_重新启动</title><g id="图层_2" data-name="图层 2"><g id="抽屉"><rect class="cls-1" width="24" height="24"/><polygon class="cls-1" points="10.67 17.07 15.27 14 10.67 10.93 10.67 17.07"/><path class="cls-2" d="M20.51,17.54a.5.5,0,0,0-.68.2A8.5,8.5,0,1,1,18.14,7.4l-1.65,1,4.41,2.32-.2-5L19,6.86a9.5,9.5,0,1,0-7.45,16.26q.42,0,.83,0a9.51,9.51,0,0,0,8.33-4.93A.5.5,0,0,0,20.51,17.54Z"/><path class="cls-2" d="M10.44,9.58a.5.5,0,0,0-.78.42v8a.5.5,0,0,0,.78.42l6-4a.5.5,0,0,0,0-.83Zm.22,7.48V10.93L15.27,14Z"/></g></g></svg>