<svg xmlns="http://www.w3.org/2000/svg" viewBox="0 0 24.26 24.26"><defs><style>.cls-1{fill:none;}.cls-2{fill:#20c988;}</style></defs><title>icn_成功</title><g id="图层_2" data-name="图层 2"><g id="抽屉"><rect class="cls-1" x="0.13" y="0.13" width="24" height="24" transform="translate(-0.13 0.13) rotate(-0.63)"/><path class="cls-2" d="M12.22,20.13A8,8,0,1,1,20.13,12,8,8,0,0,1,12.22,20.13ZM12.06,5.36a6.77,6.77,0,1,0,6.84,6.69A6.78,6.78,0,0,0,12.06,5.36Z"/><path class="cls-2" d="M10.83,15.41h0a.6.6,0,0,1-.43-.17L7.71,12.6a.6.6,0,0,1,.84-.86L10.82,14l4.86-5a.6.6,0,1,1,.86.84l-5.28,5.39A.6.6,0,0,1,10.83,15.41Z"/></g></g></svg>