<svg xmlns="http://www.w3.org/2000/svg" viewBox="0 0 24 24"><defs><style>.cls-1{fill:none;}.cls-2{fill:#6379cf;}.cls-3{fill:#fff;}</style></defs><title>icn_部署中</title><g id="图层_2" data-name="图层 2"><g id="服务模型"><rect class="cls-1" width="24" height="24"/><circle class="cls-2" cx="12" cy="12" r="9"/><path class="cls-3" d="M15.66,14.94l-4-2.32V8a.65.65,0,0,0-1.3,0v5a.24.24,0,0,0,0,.08.51.51,0,0,0,0,.13l.06.11.06.1a.81.81,0,0,0,.1.09l.06.05L15,16.06a.68.68,0,0,0,.33.09.66.66,0,0,0,.56-.32A.65.65,0,0,0,15.66,14.94Z"/></g></g></svg>