<svg xmlns="http://www.w3.org/2000/svg" viewBox="0 0 1024 1024"><defs><style>.cls-1{fill:none;}.cls-2{fill:#999;}.cls-3{fill:#fff;}</style></defs><title>btn_d_模型服务</title><g id="图层_2" data-name="图层 2"><g id="图标层"><rect class="cls-1" width="1024" height="1024"/><path class="cls-2" d="M865.75,327.64a82.6,82.6,0,0,0-37-45.36L553.78,123.55a82.66,82.66,0,0,0-82.56,0L196.28,282.28A82.5,82.5,0,0,0,175.77,299l-.06.11A82.38,82.38,0,0,0,155,353.78V671.22a82.59,82.59,0,0,0,41.28,71.5L471.22,901.45a82.66,82.66,0,0,0,82.56,0L828.72,742.72A82.58,82.58,0,0,0,870,671.22V353.78A82.62,82.62,0,0,0,865.75,327.64ZM188.87,680.26a48.42,48.42,0,0,1-.85-9V353.78a48.42,48.42,0,0,1,.85-9L370.34,449.5a48.5,48.5,0,0,0-.84,9V566.46a48.5,48.5,0,0,0,.84,9ZM496,876.64a47.81,47.81,0,0,1-8.26-3.8L212.79,714.12a49.19,49.19,0,0,1-7.4-5.25L386.85,604.11a49.58,49.58,0,0,0,7.42,5.25l93.46,53.95a48.45,48.45,0,0,0,8.26,3.8Zm0-518.75a48.45,48.45,0,0,0-8.26,3.8l-93.46,53.95a49.58,49.58,0,0,0-7.42,5.25L205.39,316.13a49.19,49.19,0,0,1,7.4-5.25L487.73,152.16a47.81,47.81,0,0,1,8.26-3.8Zm33-209.53a47.81,47.81,0,0,1,8.26,3.8L812.21,310.88a49.19,49.19,0,0,1,7.4,5.25L638.15,420.89a49.58,49.58,0,0,0-7.42-5.25l-93.46-53.95a48.45,48.45,0,0,0-8.26-3.8Zm283.2,565.76L537.27,872.84a47.81,47.81,0,0,1-8.26,3.8V667.11a48.45,48.45,0,0,0,8.26-3.8l93.46-53.95a49.58,49.58,0,0,0,7.42-5.25L819.61,708.87A49.19,49.19,0,0,1,812.21,714.12ZM837,671.22a48.42,48.42,0,0,1-.85,9L654.66,575.5a48.5,48.5,0,0,0,.84-9V458.54a48.5,48.5,0,0,0-.84-9L836.13,344.74a48.42,48.42,0,0,1,.85,9Z"/><path class="cls-3" d="M654.66,449.5,537.27,517.27a16.51,16.51,0,0,0-8.26,14.3V667.11a49.49,49.49,0,0,1-33,0V531.57a16.51,16.51,0,0,0-8.26-14.3L370.34,449.5a49.46,49.46,0,0,1,16.51-28.61l117.39,67.77a16.52,16.52,0,0,0,16.52,0l117.39-67.77A49.46,49.46,0,0,1,654.66,449.5Z"/></g></g></svg>