<svg xmlns="http://www.w3.org/2000/svg" viewBox="0 0 40 40"><defs><style>.cls-1{fill:none;}.cls-2{fill:#b7b7b7;}</style></defs><title>icn_h_筛选</title><g id="图层_2" data-name="图层 2"><g id="服务模型"><rect class="cls-1" width="40" height="40"/><path class="cls-2" d="M18,28.5a.54.54,0,0,1-.22-.05A.51.51,0,0,1,17.5,28V18.21l-5-5a1,1,0,0,1-.21-1.09,1,1,0,0,1,.92-.61H26.8a1,1,0,0,1,.92.61,1,1,0,0,1-.21,1.09l-5,5V25a.48.48,0,0,1-.2.4l-4,3A.47.47,0,0,1,18,28.5Zm8.8-16H13.2l5.15,5.15a.47.47,0,0,1,.15.35v9l3-2.25V18a.47.47,0,0,1,.15-.35ZM22,25h0Z"/></g></g></svg>