<svg xmlns="http://www.w3.org/2000/svg" viewBox="0 0 24 19"><defs><style>.cls-1{fill:#999;}</style></defs><title>资源 35</title><g id="图层_2" data-name="图层 2"><g id="图层_4" data-name="图层 4"><g id="_编组_" data-name="&lt;编组&gt;"><path class="cls-1" d="M22.4,0H1.6A1.61,1.61,0,0,0,0,1.63V17.38A1.61,1.61,0,0,0,1.6,19H22.4A1.61,1.61,0,0,0,24,17.38V1.63A1.61,1.61,0,0,0,22.4,0ZM1,11H5a.5.5,0,0,0,.42-.22L8,6.91l4.09,6.36a.5.5,0,0,0,.42.23h0a.5.5,0,0,0,.42-.29l4.05-9,2.54,5.5A.5.5,0,0,0,20,10h3v5H1ZM1,1.63A.61.61,0,0,1,1.6,1H22.4a.61.61,0,0,1,.6.63V9H20.32L17.45,2.79A.5.5,0,0,0,17,2.5a.57.57,0,0,0-.46.29L12.42,12l-4-6.23A.5.5,0,0,0,8,5.5a.57.57,0,0,0-.42.22L4.73,10H1ZM23,17.38a.61.61,0,0,1-.6.63H1.6a.61.61,0,0,1-.6-.62V16H23Z"/></g></g></g></svg>