<svg xmlns="http://www.w3.org/2000/svg" viewBox="0 0 22 20"><defs><style>.cls-1{fill:#999;}</style></defs><title>资源 44</title><g id="图层_2" data-name="图层 2"><g id="图层_4" data-name="图层 4"><g id="_编组_" data-name="&lt;编组&gt;"><path class="cls-1" d="M14.77,6.71a1,1,0,1,0-.07,1.41,1,1,0,0,0,.07-1.41Z"/><path class="cls-1" d="M20.5,0H1.5A1.5,1.5,0,0,0,0,1.5v17A1.5,1.5,0,0,0,1.5,20h19A1.5,1.5,0,0,0,22,18.5V1.5A1.5,1.5,0,0,0,20.5,0ZM21,18.5a.5.5,0,0,1-.5.5H1.5a.5.5,0,0,1-.5-.5V1.5A.5.5,0,0,1,1.5,1h19a.5.5,0,0,1,.5.5Z"/><path class="cls-1" d="M16.69,4.54l-4.57-.59a.48.48,0,0,0-.4.13l-8.92,8a.5.5,0,0,0,0,.71L7.45,18a.5.5,0,0,0,.35.16h0A.5.5,0,0,0,8.16,18l8.92-8a.5.5,0,0,0,.17-.38L17.13,5A.5.5,0,0,0,16.69,4.54ZM7.86,17l-4-4.46L12.22,5l3.92.51.1,4Z"/></g></g></g></svg>