<svg xmlns="http://www.w3.org/2000/svg" viewBox="0 0 24.09 20.5"><defs><style>.cls-1{fill:#0f32b5;}</style></defs><title>资源 25.1</title><g id="图层_2" data-name="图层 2"><g id="_编组_" data-name="&lt;编组&gt;"><g id="_编组_2" data-name="&lt;编组&gt;"><g id="_编组_3" data-name="&lt;编组&gt;"><path class="cls-1" d="M6.5,4A.5.5,0,0,1,6,3.5V.5a.5.5,0,0,1,1,0v3A.5.5,0,0,1,6.5,4Z"/></g><g id="_编组_4" data-name="&lt;编组&gt;"><path class="cls-1" d="M15.5,4a.5.5,0,0,1-.5-.5V.5a.5.5,0,0,1,1,0v3A.5.5,0,0,1,15.5,4Z"/></g><g id="_编组_5" data-name="&lt;编组&gt;"><path class="cls-1" d="M21.5,12a.5.5,0,0,1-.5-.5V3a.5.5,0,0,0-.5-.5H17a.5.5,0,0,1,0-1h3.5A1.5,1.5,0,0,1,22,3v8.5A.5.5,0,0,1,21.5,12Z"/></g><g id="_编组_6" data-name="&lt;编组&gt;"><path class="cls-1" d="M14,2.5H8a.5.5,0,0,1,0-1h6a.5.5,0,0,1,0,1Z"/></g><g id="_编组_7" data-name="&lt;编组&gt;"><path class="cls-1" d="M9,18.5H1.5A1.5,1.5,0,0,1,0,17V3A1.5,1.5,0,0,1,1.5,1.5H5a.5.5,0,0,1,0,1H1.5A.5.5,0,0,0,1,3V17a.5.5,0,0,0,.5.5H9a.5.5,0,0,1,0,1Z"/></g><g id="_编组_8" data-name="&lt;编组&gt;"><path class="cls-1" d="M16.7,20.5a8.52,8.52,0,0,1-7.32-4.25.5.5,0,0,1,0-.5,8.43,8.43,0,0,1,14.65,0,.5.5,0,0,1,0,.5A8.52,8.52,0,0,1,16.7,20.5ZM10.39,16A7.43,7.43,0,0,0,23,16a7.43,7.43,0,0,0-12.61,0Z"/></g><g id="_编组_9" data-name="&lt;编组&gt;"><path class="cls-1" d="M9.5,12H9.45a.5.5,0,0,1-.35-.19l-2-2.63a.5.5,0,1,1,.8-.61l1.68,2.2,4.27-3.66a.5.5,0,0,1,.65.76l-4.67,4A.5.5,0,0,1,9.5,12Z"/></g><g id="_编组_10" data-name="&lt;编组&gt;"><path class="cls-1" d="M16.7,18.5A2.5,2.5,0,1,1,19.2,16,2.5,2.5,0,0,1,16.7,18.5Zm0-4A1.5,1.5,0,1,0,18.2,16,1.5,1.5,0,0,0,16.7,14.5Z"/></g></g></g></g></svg>