<svg xmlns="http://www.w3.org/2000/svg" viewBox="0 0 23 19"><defs><style>.cls-1{fill:none;}.cls-2{fill:#0f32b5;}</style></defs><title>menu_icn_mxpz_selected</title><g id="图层_2" data-name="图层 2"><g id="侧栏与顶栏"><path class="cls-1" d="M21.5,8h-11a.5.5,0,0,0-.5.5v9a.5.5,0,0,0,.5.5h11a.5.5,0,0,0,.5-.5v-9A.5.5,0,0,0,21.5,8ZM20,16.46H12a.5.5,0,0,1,0-1h8a.5.5,0,0,1,0,1Zm0-3H12a.5.5,0,0,1,0-1h8a.5.5,0,0,1,0,1Zm0-3H12a.5.5,0,0,1,0-1h8a.5.5,0,0,1,0,1Z"/><rect class="cls-1" x="1" y="14" width="6" height="4" rx="0.5" ry="0.5"/><rect class="cls-1" x="1" y="8" width="6" height="3" rx="0.5" ry="0.5"/><rect class="cls-1" x="1" y="1" width="21" height="4" rx="0.5" ry="0.5"/><path class="cls-2" d="M21.5,0H1.5A1.5,1.5,0,0,0,0,1.5v3A1.5,1.5,0,0,0,1.5,6h20A1.5,1.5,0,0,0,23,4.5v-3A1.5,1.5,0,0,0,21.5,0ZM22,4.5a.5.5,0,0,1-.5.5H1.5A.5.5,0,0,1,1,4.5v-3A.5.5,0,0,1,1.5,1h20a.5.5,0,0,1,.5.5Z"/><path class="cls-2" d="M6.5,7h-5A1.5,1.5,0,0,0,0,8.5v2A1.5,1.5,0,0,0,1.5,12h5A1.5,1.5,0,0,0,8,10.5v-2A1.5,1.5,0,0,0,6.5,7ZM7,10.5a.5.5,0,0,1-.5.5h-5a.5.5,0,0,1-.5-.5v-2A.5.5,0,0,1,1.5,8h5a.5.5,0,0,1,.5.5Z"/><path class="cls-2" d="M21.5,7h-11A1.5,1.5,0,0,0,9,8.5v9A1.5,1.5,0,0,0,10.5,19h11A1.5,1.5,0,0,0,23,17.5v-9A1.5,1.5,0,0,0,21.5,7ZM22,17.5a.5.5,0,0,1-.5.5h-11a.5.5,0,0,1-.5-.5v-9a.5.5,0,0,1,.5-.5h11a.5.5,0,0,1,.5.5Z"/><path class="cls-2" d="M6.5,13h-5A1.5,1.5,0,0,0,0,14.5v3A1.5,1.5,0,0,0,1.5,19h5A1.5,1.5,0,0,0,8,17.5v-3A1.5,1.5,0,0,0,6.5,13ZM7,17.5a.5.5,0,0,1-.5.5h-5a.5.5,0,0,1-.5-.5v-3a.5.5,0,0,1,.5-.5h5a.5.5,0,0,1,.5.5Z"/><path class="cls-2" d="M20,9.5H12a.5.5,0,0,0,0,1h8a.5.5,0,0,0,0-1Z"/><path class="cls-2" d="M20,12.48H12a.5.5,0,0,0,0,1h8a.5.5,0,0,0,0-1Z"/><path class="cls-2" d="M20,15.46H12a.5.5,0,0,0,0,1h8a.5.5,0,0,0,0-1Z"/></g></g></svg>