<svg xmlns="http://www.w3.org/2000/svg" viewBox="0 0 23.5 18"><defs><style>.cls-1{fill:#0f32b5;}</style></defs><title>资源 43.1</title><g id="图层_2" data-name="图层 2"><g id="图层_4" data-name="图层 4"><g id="_编组_" data-name="&lt;编组&gt;"><path class="cls-1" d="M22,0H3A1.5,1.5,0,0,0,1.5,1.5V4H.5a.5.5,0,0,0,0,1h1V9H.5a.5.5,0,0,0,0,1h1v4H.5a.5.5,0,0,0,0,1h1v1.5A1.5,1.5,0,0,0,3,18H22a1.5,1.5,0,0,0,1.5-1.5V1.5A1.5,1.5,0,0,0,22,0Zm.5,16.5a.5.5,0,0,1-.5.5H3a.5.5,0,0,1-.5-.5V15h1a.5.5,0,0,0,0-1h-1V10h1a.5.5,0,0,0,0-1h-1V5h1a.5.5,0,0,0,0-1h-1V1.5A.5.5,0,0,1,3,1H22a.5.5,0,0,1,.5.5Z"/><path class="cls-1" d="M16.46,8.05A2,2,0,0,0,14.33,4.8a.5.5,0,1,0,.33.94A1,1,0,0,1,16,6.69a1,1,0,0,1-1,1,.5.5,0,0,0,0,1,2.79,2.79,0,0,1,2.5,3,.5.5,0,0,0,1,0A4.07,4.07,0,0,0,16.46,8.05Z"/><path class="cls-1" d="M12.72,8.86a2.5,2.5,0,1,0-2.44,0A5,5,0,0,0,6.5,13.69a.5.5,0,0,0,1,0,4,4,0,0,1,8,0,.5.5,0,0,0,1,0A5,5,0,0,0,12.72,8.86ZM11.5,8.19A1.5,1.5,0,1,1,13,6.69,1.5,1.5,0,0,1,11.5,8.19Z"/></g></g></g></svg>