<svg xmlns="http://www.w3.org/2000/svg" viewBox="0 0 19.62 21"><defs><style>.cls-1{fill:#0f32b5;}</style></defs><title>资源 41.1</title><g id="图层_2" data-name="图层 2"><g id="图层_4" data-name="图层 4"><g id="_编组_" data-name="&lt;编组&gt;"><path class="cls-1" d="M17.81,20h-16a.5.5,0,0,0,0,1h16a.5.5,0,0,0,0-1Z"/><path class="cls-1" d="M3.81,18.5a.5.5,0,0,0,.5.5h11a.5.5,0,0,0,.5-.5V10a6,6,0,0,0-12,0Zm1-8.5a5,5,0,0,1,10,0v8h-10Z"/><path class="cls-1" d="M9.81,3a.5.5,0,0,0,.5-.5V.5a.5.5,0,0,0-1,0v2A.5.5,0,0,0,9.81,3Z"/><path class="cls-1" d="M15.28,4.85l1.36-1.46a.5.5,0,0,0-.73-.68L14.55,4.17a.5.5,0,1,0,.73.68Z"/><path class="cls-1" d="M4.34,4.85a.5.5,0,1,0,.73-.68L3.71,2.7A.5.5,0,0,0,3,3.38Z"/><path class="cls-1" d="M19.61,8A.5.5,0,0,0,19,7.62l-2,.4a.5.5,0,0,0,.2,1l2-.4A.5.5,0,0,0,19.61,8Z"/><path class="cls-1" d="M3,8.61A.5.5,0,0,0,2.56,8l-2-.4a.5.5,0,0,0-.2,1l2,.4A.5.5,0,0,0,3,8.61Z"/><path class="cls-1" d="M11.26,12.38a.5.5,0,1,0-.5.87l1.85,1.07-1.85,1.07a.5.5,0,0,0,.5.87l2.6-1.5a.5.5,0,0,0,0-.87Z"/><path class="cls-1" d="M8.61,12.31a.5.5,0,0,0,.25-.93L7,10.31,8.86,9.24a.5.5,0,1,0-.5-.87l-2.6,1.5a.5.5,0,0,0,0,.87l2.6,1.5A.5.5,0,0,0,8.61,12.31Z"/><path class="cls-1" d="M11,8.91a.5.5,0,0,0-.64.32l-2,5.84a.52.52,0,0,0,.31.66.5.5,0,0,0,.64-.32l2-5.84A.52.52,0,0,0,11,8.91Z"/></g></g></g></svg>