<svg xmlns="http://www.w3.org/2000/svg" viewBox="0 0 25 21"><defs><style>.cls-1{fill:#999;}</style></defs><title>资源 18</title><g id="图层_2" data-name="图层 2"><g id="_编组_" data-name="&lt;编组&gt;"><g id="工作台"><path class="cls-1" d="M3,17H22a1.5,1.5,0,0,0,1.5-1.5V1.5A1.5,1.5,0,0,0,22,0H3A1.5,1.5,0,0,0,1.5,1.5v14A1.5,1.5,0,0,0,3,17ZM2.5,1.5A.5.5,0,0,1,3,1H22a.5.5,0,0,1,.5.5v14a.5.5,0,0,1-.5.5H3a.5.5,0,0,1-.5-.5Z"/><path class="cls-1" d="M24.5,20H.5a.5.5,0,0,0,0,1h24a.5.5,0,0,0,0-1Z"/><path class="cls-1" d="M5.5,14h14a.5.5,0,0,0,0-1H5.5a.5.5,0,0,0,0,1Z"/></g></g></g></svg>