<?xml version="1.0" standalone="no"?><!DOCTYPE svg PUBLIC "-//W3C//DTD SVG 1.1//EN" "http://www.w3.org/Graphics/SVG/1.1/DTD/svg11.dtd"><svg class="icon" width="64px" height="64.00px" viewBox="0 0 1024 1024" version="1.1" xmlns="http://www.w3.org/2000/svg"><path fill="#000000" d="M512 1024C229.248 1024 0 794.752 0 512S229.248 0 512 0s512 229.248 512 512-229.248 512-512 512z m0-938.666667C276.352 85.333333 85.333333 276.352 85.333333 512s191.018667 426.666667 426.666667 426.666667 426.666667-191.018667 426.666667-426.666667S747.648 85.333333 512 85.333333z m338.133333 357.162667a42.325333 42.325333 0 0 1-23.637333 23.637333c-6.058667 2.56-12.501333 3.456-18.944 3.2H213.333333a42.666667 42.666667 0 0 1 0-85.333333h491.989334l-52.693334-52.693333a44.288 44.288 0 1 1 62.677334-62.677334l125.397333 125.397334c13.098667 13.098667 16.213333 32.341333 9.429333 48.469333zM170.666667 597.333333a42.666667 42.666667 0 0 1 42.666666-42.666666h597.333334a42.666667 42.666667 0 0 1 0 85.333333H316.970667l53.162666 53.162667a44.074667 44.074667 0 0 1-62.293333 62.293333l-124.629333-124.629333a43.605333 43.605333 0 0 1-12.501334-33.237334L170.666667 597.333333z" /></svg>