<svg xmlns="http://www.w3.org/2000/svg" viewBox="0 0 16 16"><defs><style>.cls-1{fill:#3d65c9;}.cls-2{fill:#fff;}</style></defs><title>子集——d_1</title><g id="图层_2" data-name="图层 2"><g id="标注"><circle class="cls-1" cx="8" cy="8" r="8"/><rect class="cls-2" x="3" y="4" width="10" height="9" rx="1"/><path class="cls-1" d="M11.5,11h-7a.35.35,0,1,0,0,.7h7a.35.35,0,1,0,0-.7Z"/><path class="cls-1" d="M7.51,9.84H7.6a.35.35,0,0,0,.34-.26l.8-3a.35.35,0,0,0-.25-.43.36.36,0,0,0-.43.25l-.8,3A.35.35,0,0,0,7.51,9.84Z"/><path class="cls-1" d="M4.33,8.31l2,1.12a.34.34,0,0,0,.17.05.38.38,0,0,0,.31-.18.36.36,0,0,0-.14-.48L5.21,8l1.46-.82a.36.36,0,0,0,.14-.48.37.37,0,0,0-.48-.13l-2,1.12a.36.36,0,0,0,0,.62Z"/><path class="cls-1" d="M9.19,9.3a.38.38,0,0,0,.31.18.34.34,0,0,0,.17-.05l2-1.12A.37.37,0,0,0,11.85,8a.34.34,0,0,0-.18-.3l-2-1.13a.37.37,0,0,0-.48.13.36.36,0,0,0,.14.48L10.79,8l-1.46.82A.36.36,0,0,0,9.19,9.3Z"/></g></g></svg>