<svg xmlns="http://www.w3.org/2000/svg" viewBox="0 0 16 16"><defs><style>.cls-1{fill:#0f32b5;}.cls-2{fill:#fff;}</style></defs><title>子集——s_1</title><g id="图层_2" data-name="图层 2"><g id="标注"><circle class="cls-1" cx="8" cy="8" r="8"/><rect class="cls-2" x="3" y="4" width="10" height="9" rx="1"/><path class="cls-1" d="M11.5,11.7h-7a.35.35,0,1,1,0-.7h7a.35.35,0,1,1,0,.7Z"/><path class="cls-1" d="M7.6,9.85H7.51a.35.35,0,0,1-.25-.43l.8-3a.35.35,0,1,1,.68.18l-.8,3A.35.35,0,0,1,7.6,9.85Z"/><path class="cls-1" d="M6.5,9.47a.33.33,0,0,1-.17,0l-2-1.13a.34.34,0,0,1,0-.6l2-1.13a.35.35,0,0,1,.48.13.36.36,0,0,1-.14.48L5.21,8l1.46.82a.36.36,0,0,1,.14.48A.37.37,0,0,1,6.5,9.47Z"/><path class="cls-1" d="M9.5,9.48a.38.38,0,0,1-.31-.18.36.36,0,0,1,.14-.48L10.79,8,9.33,7.18a.35.35,0,1,1,.34-.61l2,1.13a.35.35,0,0,1,.18.3.37.37,0,0,1-.18.31l-2,1.12A.34.34,0,0,1,9.5,9.48Z"/></g></g></svg>