<svg xmlns="http://www.w3.org/2000/svg" viewBox="0 0 16 16"><defs><style>.cls-1{fill:none;}.cls-2{fill:#0f32b5;}</style></defs><title>模块_1</title><g id="图层_2" data-name="图层 2"><g id="标注"><rect class="cls-1" width="16" height="16"/><path class="cls-2" d="M5.61,9.82a.59.59,0,0,1-.22-.05l-3-1.5a.51.51,0,0,1,0-.9l3-1.5a.5.5,0,0,1,.67.23.49.49,0,0,1-.22.67L3.73,7.82l2.11,1a.5.5,0,0,1-.23,1Z"/><path class="cls-2" d="M10.39,10a.5.5,0,0,1-.23-.95L12.27,8,10.16,7a.49.49,0,0,1-.22-.67.5.5,0,0,1,.67-.23l3,1.5a.5.5,0,0,1,0,.9l-3,1.5A.59.59,0,0,1,10.39,10Z"/><path class="cls-2" d="M7.33,11,7.2,11a.49.49,0,0,1-.35-.61l1.34-5a.5.5,0,0,1,1,.26l-1.34,5A.5.5,0,0,1,7.33,11Z"/><path class="cls-2" d="M13.4,14.5H2.6A2.1,2.1,0,0,1,.5,12.4V3.6A2.1,2.1,0,0,1,2.6,1.5H13.4a2.1,2.1,0,0,1,2.1,2.1v8.8A2.1,2.1,0,0,1,13.4,14.5ZM2.6,2.5A1.1,1.1,0,0,0,1.5,3.6v8.8a1.1,1.1,0,0,0,1.1,1.1H13.4a1.1,1.1,0,0,0,1.1-1.1V3.6a1.1,1.1,0,0,0-1.1-1.1Z"/></g></g></svg>