<svg xmlns="http://www.w3.org/2000/svg" viewBox="0 0 24 24"><defs><style>.cls-1{fill:none;}.cls-2{fill:#0f32b5;}</style></defs><title>父级——s_1</title><g id="图层_2" data-name="图层 2"><g id="标注"><rect class="cls-1" width="24" height="24"/><path class="cls-1" d="M20.23,4.5H3.77a.5.5,0,0,0-.5.5V19a.5.5,0,0,0,.5.5H20.23a.5.5,0,0,0,.5-.5V5A.5.5,0,0,0,20.23,4.5Zm-6.1,6.09A.51.51,0,0,1,14,9.9a.49.49,0,0,1,.68-.18l3.2,1.85a.49.49,0,0,1,0,.86l-3.2,1.85a.59.59,0,0,1-.25.07A.5.5,0,0,1,14,14.1a.51.51,0,0,1,.18-.69L16.58,12Zm-3.25,3.66,1.27-4.76a.52.52,0,0,1,.62-.35.5.5,0,0,1,.35.61l-1.27,4.76a.51.51,0,0,1-.49.37l-.13,0A.5.5,0,0,1,10.88,14.25ZM6.17,11.57l3.2-1.85a.49.49,0,0,1,.68.18.51.51,0,0,1-.18.69L7.42,12l2.45,1.41a.51.51,0,0,1,.18.69.5.5,0,0,1-.43.25.59.59,0,0,1-.25-.07l-3.2-1.85a.49.49,0,0,1,0-.86ZM18.77,18H5.23a.5.5,0,0,1-.5-.5.5.5,0,0,1,.5-.5H18.77a.5.5,0,0,1,.5.5A.5.5,0,0,1,18.77,18Z"/><path class="cls-2" d="M20.23,3.5H3.77A1.5,1.5,0,0,0,2.27,5V19a1.5,1.5,0,0,0,1.5,1.5H20.23a1.5,1.5,0,0,0,1.5-1.5V5A1.5,1.5,0,0,0,20.23,3.5Zm.5,15.5a.5.5,0,0,1-.5.5H3.77a.5.5,0,0,1-.5-.5V5a.5.5,0,0,1,.5-.5H20.23a.5.5,0,0,1,.5.5Z"/><path class="cls-2" d="M18.77,17H5.23a.5.5,0,0,0-.5.5.5.5,0,0,0,.5.5H18.77a.5.5,0,0,0,.5-.5A.5.5,0,0,0,18.77,17Z"/><path class="cls-2" d="M11.23,14.86l.13,0a.51.51,0,0,0,.49-.37l1.27-4.76a.5.5,0,0,0-.35-.61.52.52,0,0,0-.62.35l-1.27,4.76A.5.5,0,0,0,11.23,14.86Z"/><path class="cls-2" d="M9.37,14.28a.59.59,0,0,0,.25.07.5.5,0,0,0,.43-.25.51.51,0,0,0-.18-.69L7.42,12l2.45-1.41a.51.51,0,0,0,.18-.69.49.49,0,0,0-.68-.18l-3.2,1.85a.49.49,0,0,0,0,.86Z"/><path class="cls-2" d="M14,14.1a.5.5,0,0,0,.43.25.59.59,0,0,0,.25-.07l3.2-1.85a.49.49,0,0,0,0-.86l-3.2-1.85A.49.49,0,0,0,14,9.9a.51.51,0,0,0,.18.69L16.58,12l-2.45,1.41A.51.51,0,0,0,14,14.1Z"/></g></g></svg>