<svg xmlns="http://www.w3.org/2000/svg" viewBox="0 0 15 15.6"><defs><style>.cls-1{fill:none;}.cls-2{fill:#0f32b5;}</style></defs><title>d&amp;amp;c_删除</title><g id="图层_2" data-name="图层 2"><g id="标注"><path class="cls-1" d="M9.5,1.5A.5.5,0,0,0,9,1H6a.5.5,0,0,0-.5.5V2.6h4Z"/><path class="cls-1" d="M4.5,3.6H3v9.5a1.5,1.5,0,0,0,1.5,1.5h6A1.5,1.5,0,0,0,12,13.1V3.6H4.5Zm1,8.8a.5.5,0,0,1-1,0V5.8a.5.5,0,0,1,1,0Zm2.5,0a.5.5,0,0,1-1,0V5.8a.5.5,0,0,1,1,0Zm2.5,0a.5.5,0,0,1-1,0V5.8a.5.5,0,0,1,1,0Z"/><path class="cls-2" d="M14.5,2.6h-4V1.5A1.5,1.5,0,0,0,9,0H6A1.5,1.5,0,0,0,4.5,1.5V2.6H.5a.5.5,0,0,0,0,1H2v9.5a2.5,2.5,0,0,0,2.5,2.5h6A2.5,2.5,0,0,0,13,13.1V3.6h1.5a.5.5,0,0,0,0-1Zm-9-1.1A.5.5,0,0,1,6,1H9a.5.5,0,0,1,.5.5V2.6h-4ZM12,13.1a1.5,1.5,0,0,1-1.5,1.5h-6A1.5,1.5,0,0,1,3,13.1V3.6h9Z"/><path class="cls-2" d="M5,5.3a.5.5,0,0,0-.5.5v6.6a.5.5,0,0,0,1,0V5.8A.5.5,0,0,0,5,5.3Z"/><path class="cls-2" d="M7.5,5.3a.5.5,0,0,0-.5.5v6.6a.5.5,0,0,0,1,0V5.8A.5.5,0,0,0,7.5,5.3Z"/><path class="cls-2" d="M10,5.3a.5.5,0,0,0-.5.5v6.6a.5.5,0,0,0,1,0V5.8A.5.5,0,0,0,10,5.3Z"/></g></g></svg>