<svg xmlns="http://www.w3.org/2000/svg" viewBox="0 0 28 28"><defs><style>.cls-1{fill:none;}.cls-2{fill:#3d65c9;}</style></defs><title>d_撤销</title><g id="图层_2" data-name="图层 2"><g id="标注"><rect class="cls-1" width="28" height="28"/><path class="cls-2" d="M16.06,9.85H11.75V7.17a.33.33,0,0,0-.49-.28L5.5,10.22a.32.32,0,0,0,0,.56l5.76,3.33a.33.33,0,0,0,.49-.28V11.15h4.31c2.93,0,5.3,1.95,5.3,4.35s-2.37,4.35-5.3,4.35H7.51a.65.65,0,0,0,0,1.3h8.55c3.64,0,6.6-2.53,6.6-5.65S19.7,9.85,16.06,9.85Z"/></g></g></svg>
