<svg xmlns="http://www.w3.org/2000/svg" viewBox="0 0 28 28"><defs><style>.cls-1{fill:none;}.cls-2{fill:none;}.cls-3{fill:#6484d4;}</style></defs><title>h_保存</title><g id="图层_2" data-name="图层 2"><g id="标注"><rect class="cls-1" width="28" height="28"/><path class="cls-2" d="M17.5,16.65h-7a.35.35,0,0,0-.35.35v4.35h7.7V17A.35.35,0,0,0,17.5,16.65Z"/><path class="cls-2" d="M11.5,11.35h5a.35.35,0,0,0,.35-.35V6.65h-3.2V9a.65.65,0,0,1-1.3,0V6.65h-1.2V11A.35.35,0,0,0,11.5,11.35Z"/><path class="cls-2" d="M19.5,6.65H18.15V11a1.65,1.65,0,0,1-1.65,1.65h-5A1.65,1.65,0,0,1,9.85,11V6.65H8.5A1.36,1.36,0,0,0,7.15,8V20A1.36,1.36,0,0,0,8.5,21.35h.35V17a1.65,1.65,0,0,1,1.65-1.65h7A1.65,1.65,0,0,1,19.15,17v4.35h.35A1.36,1.36,0,0,0,20.85,20V8A1.36,1.36,0,0,0,19.5,6.65Z"/><path class="cls-3" d="M19.5,5.35H8.5A2.65,2.65,0,0,0,5.85,8V20A2.65,2.65,0,0,0,8.5,22.65h11A2.65,2.65,0,0,0,22.15,20V8A2.65,2.65,0,0,0,19.5,5.35Zm-7.15,1.3V9a.65.65,0,0,0,1.3,0V6.65h3.2V11a.35.35,0,0,1-.35.35h-5a.35.35,0,0,1-.35-.35V6.65Zm-2.2,14.7V17a.35.35,0,0,1,.35-.35h7a.35.35,0,0,1,.35.35v4.35ZM20.85,20a1.36,1.36,0,0,1-1.35,1.35h-.35V17a1.65,1.65,0,0,0-1.65-1.65h-7A1.65,1.65,0,0,0,8.85,17v4.35H8.5A1.36,1.36,0,0,1,7.15,20V8A1.36,1.36,0,0,1,8.5,6.65H9.85V11a1.65,1.65,0,0,0,1.65,1.65h5A1.65,1.65,0,0,0,18.15,11V6.65H19.5A1.36,1.36,0,0,1,20.85,8Z"/></g></g></svg>
