<svg xmlns="http://www.w3.org/2000/svg" viewBox="0 0 28 28"><defs><style>.cls-1{fill:none;}.cls-2{fill:#6484d4;}</style></defs><title>h_发布</title><g id="图层_2" data-name="图层 2"><g id="标注"><g id="发布预测"><rect class="cls-1" width="28" height="28"/><path class="cls-2" d="M22.65,6.84s0,0,0-.06a.64.64,0,0,0-.15-.25l0,0v0l-.05,0a.64.64,0,0,0-.24-.1h-.08a.65.65,0,0,0-.31,0h0L5.68,14.31a.68.68,0,0,0-.36.57.65.65,0,0,0,.32.58l2.9,1.67a.64.64,0,0,0,.88-.24A.65.65,0,0,0,9.19,16L7.35,14.94l11.7-5.75-8,8.45a.67.67,0,0,0-.18.45V23a.65.65,0,1,0,1.3,0V18.35l8.65-9.1L17.83,21,15.1,19.42a.65.65,0,1,0-.65,1.12l3.47,2a.61.61,0,0,0,.32.08.58.58,0,0,0,.26-.05.67.67,0,0,0,.38-.44l3.78-15s0,0,0,0A.82.82,0,0,0,22.65,6.84Z"/></g></g></g></svg>
