<svg xmlns="http://www.w3.org/2000/svg" viewBox="0 0 18 18"><defs><style>.cls-1{fill:#3d65c9;}.cls-2{fill:#fff;}</style></defs><title>子集——d</title><g id="图层_2" data-name="图层 2"><g id="标注"><circle class="cls-1" cx="9" cy="9" r="9"/><path class="cls-2" d="M3.71,7.11l5,2.5a.59.59,0,0,0,.56,0l5-2.5a.61.61,0,0,0,.34-.56A.63.63,0,0,0,14.29,6l-5-2.5a.65.65,0,0,0-.56,0L3.71,6a.63.63,0,0,0-.34.56A.61.61,0,0,0,3.71,7.11Z"/><path class="cls-2" d="M3.22,9.32l5.62,2.82a.44.44,0,0,0,.32,0l5.62-2.82a.36.36,0,0,0,.16-.47.35.35,0,0,0-.47-.15L9,11.43,3.53,8.7a.35.35,0,0,0-.47.15A.36.36,0,0,0,3.22,9.32Z"/><path class="cls-2" d="M14.47,11.16,9,13.89,3.53,11.16a.35.35,0,0,0-.47.15.36.36,0,0,0,.16.47L8.84,14.6a.44.44,0,0,0,.32,0l5.62-2.82a.36.36,0,0,0,.16-.47A.35.35,0,0,0,14.47,11.16Z"/></g></g></svg>