<svg xmlns="http://www.w3.org/2000/svg" viewBox="0 0 16 16"><defs><style>.cls-1{fill:none;}.cls-2{fill:#0f32b5;}</style></defs><title>模块</title><g id="图层_2" data-name="图层 2"><g id="标注"><rect class="cls-1" width="16" height="16"/><path class="cls-2" d="M8,15.6a.64.64,0,0,1-.3-.08L1.56,12a.59.59,0,0,1-.22-.82.61.61,0,0,1,.82-.22L8,14.31l5.84-3.38a.61.61,0,0,1,.82.22.59.59,0,0,1-.22.82L8.3,15.52A.64.64,0,0,1,8,15.6Z"/><path class="cls-2" d="M8,12.15a.64.64,0,0,1-.3-.08L1.56,8.52a.59.59,0,0,1-.22-.82.6.6,0,0,1,.82-.22L8,10.86l5.84-3.38a.6.6,0,0,1,.82.22.59.59,0,0,1-.22.82L8.3,12.07A.64.64,0,0,1,8,12.15Z"/><path class="cls-2" d="M8,8.69a.54.54,0,0,1-.3-.08L1.56,5.07a.6.6,0,0,1-.3-.52A.59.59,0,0,1,1.56,4L7.7.48a.59.59,0,0,1,.6,0L14.44,4a.59.59,0,0,1,.3.52.6.6,0,0,1-.3.52L8.3,8.61A.54.54,0,0,1,8,8.69ZM3.06,4.55,8,7.4l4.94-2.85L8,1.69Z"/></g></g></svg>