<svg xmlns="http://www.w3.org/2000/svg" viewBox="0 0 24 24"><defs><style>.cls-1{fill:none;}.cls-2{fill:#0f32b5;}</style></defs><title>父级——s</title><g id="图层_2" data-name="图层 2"><g id="标注"><rect class="cls-1" width="24" height="24"/><path class="cls-2" d="M12,13a.86.86,0,0,1-.41-.1L4,9.05a.89.89,0,0,1-.51-.82A.91.91,0,0,1,4,7.41L11.59,3.6a.91.91,0,0,1,.82,0L20,7.41a.91.91,0,0,1,.51.82.89.89,0,0,1-.51.82h0l-7.62,3.81A.86.86,0,0,1,12,13ZM4.56,8.23,12,12l7.45-3.76L12,4.49Zm15.25.37h0Z"/><path class="cls-2" d="M12,16.75a.42.42,0,0,1-.22-.05L3.22,12.42A.5.5,0,0,1,3,11.75a.49.49,0,0,1,.67-.22L12,15.7l8.34-4.17a.49.49,0,0,1,.67.22.5.5,0,0,1-.23.67L12.22,16.7A.42.42,0,0,1,12,16.75Z"/><path class="cls-2" d="M12,20.5a.54.54,0,0,1-.22-.05L3.22,16.17a.5.5,0,0,1,.44-.9L12,19.44l8.34-4.17a.5.5,0,0,1,.44.9l-8.56,4.28A.54.54,0,0,1,12,20.5Z"/></g></g></svg>