<svg xmlns="http://www.w3.org/2000/svg" viewBox="0 0 16 16"><defs><style>.cls-1{fill:#0f32b5;}.cls-2{fill:#fff;}</style></defs><title>子集——s_1</title><g id="图层_2" data-name="图层 2"><g id="标注"><circle class="cls-1" cx="8" cy="8" r="8"/><rect class="cls-2" x="3" y="3" width="10" height="10" rx="1"/><path class="cls-1" d="M10.5,12h-5a.35.35,0,1,1,0-.7h5a.35.35,0,1,1,0,.7Z"/><path class="cls-1" d="M10.5,10.7h-5a.35.35,0,1,1,0-.7h5a.35.35,0,1,1,0,.7Z"/><path class="cls-1" d="M8,9.09A.36.36,0,0,1,7.72,9L6.31,7.57a.35.35,0,0,1,.49-.49L8,8.24,10.2,6a.35.35,0,1,1,.49.49L8.22,9A.36.36,0,0,1,8,9.09Z"/></g></g></svg>