<svg xmlns="http://www.w3.org/2000/svg" viewBox="0 0 16 16"><defs><style>.cls-1{fill:#3d65c9;}.cls-2{fill:#fff;}</style></defs><title>子集——d_1</title><g id="图层_2" data-name="图层 2"><g id="标注"><circle class="cls-1" cx="8" cy="8" r="8"/><rect class="cls-2" x="3" y="3" width="10" height="10" rx="1"/><path class="cls-1" d="M10.5,11.3h-5a.35.35,0,1,0,0,.7h5a.35.35,0,1,0,0-.7Z"/><path class="cls-1" d="M5.5,10.7h5a.35.35,0,1,0,0-.7h-5a.35.35,0,1,0,0,.7Z"/><path class="cls-1" d="M7.72,9a.36.36,0,0,0,.5,0l2.47-2.48a.35.35,0,0,0,0-.5.36.36,0,0,0-.49,0L8,8.24,6.8,7.08a.35.35,0,0,0-.49.49Z"/></g></g></svg>