<svg xmlns="http://www.w3.org/2000/svg" viewBox="0 0 16 16"><defs><style>.cls-1{fill:none;}.cls-2{fill:#0f32b5;}</style></defs><title>模块_1</title><g id="图层_2" data-name="图层 2"><g id="标注"><rect class="cls-1" width="16" height="16"/><path class="cls-1" d="M13,2H11v.5a.5.5,0,0,1-1,0V2H6v.5a.5.5,0,0,1-1,0V2H3a.5.5,0,0,0-.5.5v12A.5.5,0,0,0,3,15H13a.5.5,0,0,0,.5-.5V2.5A.5.5,0,0,0,13,2ZM6.2,7a.5.5,0,0,1,.71,0L8,8l2.12-2.12a.5.5,0,0,1,.71,0,.51.51,0,0,1,0,.71L8.32,9.09a.48.48,0,0,1-.7,0L6.2,7.68A.51.51,0,0,1,6.2,7Zm4.3,6h-5a.5.5,0,0,1,0-1h5a.5.5,0,0,1,0,1Zm0-2h-5a.5.5,0,0,1,0-1h5a.5.5,0,0,1,0,1Z"/><path class="cls-2" d="M10.5,12h-5a.5.5,0,0,0,0,1h5a.5.5,0,0,0,0-1Z"/><path class="cls-2" d="M10.5,10h-5a.5.5,0,0,0,0,1h5a.5.5,0,0,0,0-1Z"/><path class="cls-2" d="M7.62,9.09a.48.48,0,0,0,.7,0L10.8,6.62a.51.51,0,0,0,0-.71.5.5,0,0,0-.71,0L8,8,6.91,7A.5.5,0,0,0,6.2,7a.51.51,0,0,0,0,.71Z"/><path class="cls-2" d="M13,1H11V.5a.5.5,0,0,0-1,0V1H6V.5a.5.5,0,0,0-1,0V1H3A1.5,1.5,0,0,0,1.5,2.5v12A1.5,1.5,0,0,0,3,16H13a1.5,1.5,0,0,0,1.5-1.5V2.5A1.5,1.5,0,0,0,13,1Zm.5,13.5a.5.5,0,0,1-.5.5H3a.5.5,0,0,1-.5-.5V2.5A.5.5,0,0,1,3,2H5v.5a.5.5,0,0,0,1,0V2h4v.5a.5.5,0,0,0,1,0V2h2a.5.5,0,0,1,.5.5Z"/></g></g></svg>