<svg xmlns="http://www.w3.org/2000/svg" viewBox="0 0 24 24"><defs><style>.cls-1{fill:none;}.cls-2{fill:#3d65c9;}</style></defs><title>父级——d_1</title><g id="图层_2" data-name="图层 2"><g id="标注"><rect class="cls-1" width="24" height="24"/><path class="cls-1" d="M20.23,4.5H3.77a.5.5,0,0,0-.5.5V19a.5.5,0,0,0,.5.5H20.23a.5.5,0,0,0,.5-.5V5A.5.5,0,0,0,20.23,4.5ZM9.36,10.15a.51.51,0,0,1,.71,0l1.75,1.76,3.34-3.34a.5.5,0,0,1,.71.71L12.18,13a.51.51,0,0,1-.36.15.5.5,0,0,1-.35-.15L9.36,10.86A.51.51,0,0,1,9.36,10.15ZM16.92,18H7.08a.5.5,0,0,1-.5-.5.5.5,0,0,1,.5-.5h9.84a.5.5,0,0,1,.5.5A.5.5,0,0,1,16.92,18Zm0-2.46H7.08a.5.5,0,0,1-.5-.5.5.5,0,0,1,.5-.5h9.84a.5.5,0,0,1,.5.5A.5.5,0,0,1,16.92,15.58Z"/><path class="cls-2" d="M20.23,3.5H3.77A1.5,1.5,0,0,0,2.27,5V19a1.5,1.5,0,0,0,1.5,1.5H20.23a1.5,1.5,0,0,0,1.5-1.5V5A1.5,1.5,0,0,0,20.23,3.5Zm.5,15.5a.5.5,0,0,1-.5.5H3.77a.5.5,0,0,1-.5-.5V5a.5.5,0,0,1,.5-.5H20.23a.5.5,0,0,1,.5.5Z"/><path class="cls-2" d="M16.92,17H7.08a.5.5,0,0,0-.5.5.5.5,0,0,0,.5.5h9.84a.5.5,0,0,0,.5-.5A.5.5,0,0,0,16.92,17Z"/><path class="cls-2" d="M16.92,14.58H7.08a.5.5,0,0,0-.5.5.5.5,0,0,0,.5.5h9.84a.5.5,0,0,0,.5-.5A.5.5,0,0,0,16.92,14.58Z"/><path class="cls-2" d="M11.47,13a.5.5,0,0,0,.35.15.51.51,0,0,0,.36-.15l3.69-3.69a.5.5,0,0,0-.71-.71l-3.34,3.34-1.75-1.76a.5.5,0,1,0-.71.71Z"/></g></g></svg>